<?xml version="1.0" encoding="utf-8"?>
<!-- Svg Vector Icons : http://www.onlinewebfonts.com/icon -->
<!DOCTYPE svg PUBLIC "-//W3C//DTD SVG 1.1//EN" "http://www.w3.org/Graphics/SVG/1.1/DTD/svg11.dtd">
<svg version="1.1" xmlns="http://www.w3.org/2000/svg" xmlns:xlink="http://www.w3.org/1999/xlink" x="0px" y="0px" viewBox="0 0 1000 1000" enable-background="new 0 0 1000 1000" xml:space="preserve">
<metadata> Svg Vector Icons : http://www.onlinewebfonts.com/icon </metadata>
<g><g transform="translate(0.000000,511.000000) scale(0.100000,-0.100000)"><path d="M7621.6,4985.8c-656.3-107.6-1293.2-419.6-1884.9-925.2c-499.2-428.2-843.5-948.9-1284.6-1943C4170.2,1482.8,3798,417.7,3569.9-410.7l-105.4-383l-494.9-490.6c-522.9-518.6-596-574.5-830.6-626.2c-563.7-124.8-1095.2,258.2-1131.8,817.6c-23.7,333.5,79.6,557.3,408.8,880.1l185,182.9l320.6-322.8l320.6-320.6l154.9,1398.6c83.9,768.2,152.8,1413.7,152.8,1430.9c0,45.2-1981.7-1936.5-2100.1-2100.1C-64.3-656-6.2-1628.5,587.6-2259c172.1-180.7,350.7-312,565.9-413.1c223.8-105.4,380.8-144.2,656.3-157.1l238.8-12.9l12.9-228.1c23.7-462.6,172.1-811.2,484.1-1144.7c600.3-641.2,1512.7-757.4,2302.3-294.8c163.5,94.7,2242.1,2156,2184,2164.6c-21.5,2.2-647.7-62.4-1392.2-146.3C4895.4-2573.1,4269.2-2642,4252-2642c-19.4,0,111.9-144.2,288.3-322.8l322.8-322.8l-193.7-193.7c-107.6-107.6-238.8-225.9-296.9-260.4c-374.4-243.2-880.1-178.6-1177,146.3c-264.7,290.5-320.6,671.3-150.6,1035c58.1,124.8,131.3,206.6,559.4,639.1l494.9,494.9l413.1,116.2C6197.2-841,7636.7-232.1,8415.6,338.1c337.8,247.5,751,723,1009.2,1159.8c200.1,342.1,331.4,667,423.9,1056.5c68.9,286.2,68.9,849.9-2.2,1106c-180.7,673.5-632.6,1118.9-1310.4,1295.3C8314.5,5013.8,7877.6,5028.8,7621.6,4985.8z M8314.5,4082.1c611.1-144.2,843.5-748.8,591.7-1549.2c-114.1-361.5-320.6-720.8-628.3-1086.6c-269-320.6-563.8-535.8-1110.3-811.2L6890,495.2l-753.1,753.1l-751,751l152.8,299.1c264.7,520.7,445.4,772.5,763.9,1058.6C6930.9,3925,7742.1,4215.5,8314.5,4082.1z M5508.6,607.1c376.5-376.5,466.9-477.7,441.1-494.9C5857.2,54.1,4557.5-374.1,4536-352.6c-25.8,25.8,451.9,1433,484.1,1433C5028.8,1080.4,5248.3,867.4,5508.6,607.1z"/><path d="M7236.4,3597.9c-322.8-172.1-318.4-630.4,10.8-798.3c129.1-66.7,327.1-51.6,449.7,34.4c266.8,189.3,247.4,596-36.6,757.4C7548.4,3653.9,7350.5,3658.2,7236.4,3597.9z"/></g></g>
</svg>