<?xml version="1.0" encoding="utf-8"?>
<!-- Svg Vector Icons : http://www.onlinewebfonts.com/icon -->
<!DOCTYPE svg PUBLIC "-//W3C//DTD SVG 1.1//EN" "http://www.w3.org/Graphics/SVG/1.1/DTD/svg11.dtd">
<svg version="1.1" xmlns="http://www.w3.org/2000/svg" xmlns:xlink="http://www.w3.org/1999/xlink" x="0px" y="0px" viewBox="0 0 1000 1000" enable-background="new 0 0 1000 1000" xml:space="preserve">
<metadata> Svg Vector Icons : http://www.onlinewebfonts.com/icon </metadata>
<g><path d="M591.8,525.7c-15.1,14.5-90.9,153.2-75.1,247.1c8.5,50.6,30.2,100.1,75.5,133.4c77.6-74.8,62.7-156.2,81.4-301.7c11.8-91.8,36.2-165.6,61.5-221.5C674.1,444.8,626,492.8,591.8,525.7z"/><path d="M933.5,73.9c-19.8-19.9-47.5-32.2-77.8-32.2c-30.3,0-58,12.4-77.8,32.2c-19.9,19.8-32.2,47.5-32.2,77.8c0,17.3,4.1,33.7,11.3,48.3c-29.5,30.3-75.5,77.4-122.8,125.1c-34.9,35.3-70.5,70.9-100.5,100.2c-15,14.6-28.5,27.7-39.8,38.3c-5.6,5.3-10.7,9.9-15,13.8c-4.3,3.9-7.9,7-10.5,9.1c-28.2,23-56.4,43.9-85.1,59.5c-28.7,15.6-57.6,26-88.2,29.4c-12.1,1.3-23.3,1.9-33.7,1.9c-19.9,0-36.8-2.2-51.1-5.8c-21.5-5.4-37.6-13.8-50.8-23.7c-13.2-9.9-23.5-21.4-32.2-33.3c-8.1-11-13.5-22.7-17-35.1c-3.5-12.3-5.1-25.4-5.1-38.5c0-18.1,3-36.4,7.4-52.4c4.3-16,10.1-29.8,14.6-38.4c7.8-14.9,17.9-31,28.6-46.6c13-19,27-37.1,39-51.9c9.4,22.5,21.5,45.3,36.1,61.7C259.3,159.8,398.6,41.4,410.3,30.5c11.7-10.8,10-25-5.8-19.2c-96.5,32.8-184.1,110.3-219.1,144c-5.5,5.3-36.3,39.5-52.7,60.3c-11.1,14.1-23.4,30.4-35.3,47.6c-11.9,17.3-23.4,35.6-33.1,54.1c-7.1,13.7-14.4,31.5-20.2,52.6c-5.7,21-9.9,45.2-9.9,71.1c0,18.7,2.2,38.3,7.8,57.9c5.6,19.6,14.6,39.3,28,57.6c15.5,21.2,37.4,44.7,69,62.5c15.7,8.9,33.8,16.3,54.2,21.4c20.4,5.1,43.1,7.9,68.3,7.9c13.1,0,26.9-0.8,41.4-2.3c41.9-4.6,79.9-18.8,114.5-37.6c34.6-18.9,66.1-42.4,96-66.8c4.1-3.4,8.7-7.4,14-12.1c9.8-8.9,21.9-20.2,35.7-33.5c48.2-46.4,117.3-116.2,174.6-174.5c27-27.5,51.3-52.3,69.5-71c14.7,7.2,31.2,11.4,48.6,11.4c30.3,0,58-12.4,77.8-32.2c19.8-19.8,32.2-47.5,32.2-77.8C965.8,121.5,953.4,93.7,933.5,73.9z M883.3,179.3c-7.2,7.1-16.7,11.4-27.6,11.4c-10.9,0-20.4-4.3-27.6-11.4c-7.1-7.2-11.4-16.7-11.4-27.6c0-10.9,4.3-20.4,11.4-27.6c7.2-7.1,16.7-11.4,27.6-11.4c10.9,0,20.4,4.3,27.6,11.4c7.1,7.2,11.4,16.7,11.4,27.6C894.7,162.6,890.4,172.1,883.3,179.3z"/><path d="M808.2,307.7l-60.7,62.6L734.7,383c-10.8,28.4-33,124.8-8.5,182.8c14.7,34.8,38.7,66.5,76.8,82.6c42.7-66.8,18.2-122.5,6.7-229.8C805.4,377.6,805.5,340.5,808.2,307.7z"/><path d="M639,418.3c-28.1,29.3-54.5,58.6-78.5,88c-12,14.7-23.4,29.5-34.1,44.2c-10.8,15.2-21.3,29.3-30.7,43.9c-38.1,58.1-62,116.4-75.9,167.1c-13.9,50.7-19,93.5-22.2,122.9c-3,29.5-4.3,46-6.1,46c-1.6,0-3.7-16.5-3.6-46.6c0.3-30,2.6-73.8,14.8-126.7c12-52.8,35.2-114.3,73.6-175.1c9.4-15.2,20.3-30.4,30.7-45.4c10.8-15.3,22.4-30.5,34.5-45.7c24.3-30.3,51.2-60.2,79.5-89.8L639,418.3z"/><path d="M624.4,432.8c-69.3,61.9-130.6,125.6-179.5,189c-49.1,63.2-85.6,125.7-110.1,181C310.1,858,296.9,905.5,289,938.4c-7.8,33.1-10.9,51.8-12.7,51.5c-1.5-0.2-1.7-19.3,3.2-53.4c5.1-34,15.9-83.2,39.1-140.7c23-57.5,58.8-122.6,108.1-188c49-65.5,111.1-131,181.1-193.6L624.4,432.8z"/><path d="M543.5,513.5c-33.5,21-63.1,46.3-90.3,72.4c-27.2,26.1-52,53.1-75.3,79.2c-46.2,52.1-84.4,102.1-112,146.7c-27.9,44.5-45.1,83.5-55.2,111.1c-10.1,27.6-14,43.6-15.9,43.2c-1.5-0.3-0.8-17,6.6-46.1c7.4-29.1,22.7-70.4,49.3-117.2c26.4-46.9,63.9-99,110-152.9c23.1-26.7,47.9-54.4,75.6-81.6c27.7-27,58.6-53.7,93.9-75.8L543.5,513.5z"/><path d="M525,527.1c-65,45-125.3,89.2-177.3,133.2c-52.3,43.5-96.5,85.9-130,124.6c-33.7,38.6-56.4,73.4-70.5,98.3c-14,25-20.2,39.8-22,39.1c-1.5-0.5,1.6-16.5,13.3-43.5c11.7-26.9,32.8-64.2,65.6-105.2c65.1-82.6,175.8-177.4,306.6-267.1L525,527.1z"/></g>
</svg>