<?xml version="1.0" encoding="utf-8"?>
<!-- Generator: Adobe Illustrator 22.0.1, SVG Export Plug-In . SVG Version: 6.00 Build 0)  -->
<svg version="1.1" id="Слой_1" xmlns="http://www.w3.org/2000/svg" xmlns:xlink="http://www.w3.org/1999/xlink" x="0px" y="0px"
	 viewBox="0 0 150 150" style="enable-background:new 0 0 150 150;" xml:space="preserve">
<style type="text/css">
	.st0{fill:#F57000;}
	.st1{fill:#FFFFFF;}
	.st2{fill:none;stroke:#FFFFFF;stroke-miterlimit:10;}
	.st3{fill:none;}
	.st4{fill:#5D5D5D;}
</style>
<g>
	<path class="st0" d="M41,69.9c0.1-0.7,0.3-1.5,0.5-2.2c0.2-0.7,0.4-1.5,0.7-2.2l-2.9,0.2l0,0L36.1,66l0,0l-2.9,0.2
		c-0.3,1.2-0.5,2.5-0.7,3.7c-0.2,1.5-0.4,3-0.5,4.5c-0.2,3-0.4,6-0.4,9c0,3,0.1,6,0.2,9c0.1,2.5,0.3,5,0.4,7.5
		c0.9,0.1,1.9,0.3,2.8,0.4c0,0,0.1,0,0.1,0c1.1,0.2,2.2,0.4,3.1,0.5c0,0,0,0,0,0c1.3,0.2,2.4,0.5,2.8,0.6c-0.4-3-0.7-6-1-9
		c-0.2-3-0.3-6-0.3-9.1c0-3,0.2-6.1,0.5-9.1C40.5,72.9,40.7,71.4,41,69.9z M131.8,123.1c-2.7-0.9-9.1-2.1-12.6-2.4
		c-0.9-0.1-1.9-0.1-3-0.1c-1.7-2.7-7.7-12.3-12.7-20.6c3.3,0,5.5,0,5.5,0c9.4,0,8.6-1.1,8.8-1c0.6,0.3,11.7,0.3,11.7,0.3
		c0.7-0.1,2.1,0.3,3-2.7c1.3-4.2,0.8-15.5,0.9-17.5c0.1-2-2.1-2.8-2.1-2.8l-12.9-0.6c-0.3-0.8-1.4-2.4-3.1-4.4v0
		c3.2-5.1,11.7-3.8,14.2-5c2.5-1.2,2.5-3.4,2.1-3.6c-1.5-1-4.8-2.6-6-3c-1.2-0.5-3.4,0.5-4.3,0.9c-0.9,0.4-9.1,5.8-10,6.3
		c-10.5-11.2-29.1-28.8-31.9-31.7c-3.8-4-3.3-4.6-3.3-4.6l-0.2-5.4v0c0,0,0,0,0,0v0c0-0.4,0-1.2,0.1-3.2c0.3-4.7,5.9-6.6,5.9-6.6
		c3.5-1.8,16.1-1.5,17.1-2.3c1.6-1.2,1.2-4.2-0.9-4.1L72.8,9L47.6,9.1c-2.1-0.1-2.5,2.9-0.9,4.1c0.9,0.8,13.5,0.5,17.1,2.3
		c0,0,5.6,1.9,5.9,6.6c0.1,1.9,0,3.4,0,3.4c0,0,0,0,0,0h0c0,0-0.3,4.7-0.1,8.4c0.2,3.7,1.7,5.7,1.7,5.7S80.8,57,81.9,59
		c1,2,0,2.9,0,2.9l-7,6.6c0,0,0.3-7.8-1.1-11.1c-2.9-6.8-8.1-6.8-8.1-6.8c-2.3-0.2-12.4-0.8-12.4-0.8S41.6,45.6,37,44.3
		c-4.8-1.4-14.4-3.5-14.7,5.5c-0.1,3.7,2.7,5.3,4.7,5.5c2.7,0.3,4.7-1.7,4.7-1.7c0,1.1-0.8,6.2-1.8,13.2l-3.4,0.7
		c0,0-0.9,0.3-0.9-1.3c0-1.6-0.9-5.1-2.6-5c-1.8,0-3,3-3.4,7.7c0,0-1.6,1.3-2.4,2.8c-0.4,0.8-5.2-0.7-6.6,4.6c0,0-0.3,7.7-0.2,11.6
		c0,1.6,0.7,3.3,1.8,4.2c1.6,1.3,4,1.3,4.1,1.8c0.4,1.5,1.3,3.3,2.2,3.4c0,0,0.2,8.6,3.1,8.2c2.9-0.4,2.3-5.3,2.6-5.8
		c0.3-0.4,0.9-0.6,1.6-0.5c-1.2,12.3-1.4,22.3,0.9,22.6c3.2,0.4,14.8-1,18.7-1.1c3.9-0.1,6-2.7,6-2.7s11.1,0.6,15.5-1.4
		c4.5-2,6.1-10.2,6.1-10.2l0.5-6c0.2,0,0.4,0,0.7,0c0.4,0.7,0.9,1.8,1.3,3.1c0.6,2,2.8,1.5,3.3,1.5c0.5,0,5.1,0.5,6.8,0.3
		c0.3,0,3.1-0.7,1.5-2.9c-1.3-1.7-5.8-0.7-7.7-1.1c-0.3-0.1-0.5-0.6-0.7-0.9c4,0,9.7-0.1,15.1-0.1l14,20.8c-0.5,0-0.9,0.1-1.4,0.2
		c-4.6,0.6-8.7,3-9.1,7.1l-0.1,1.8c-0.3,4.1,3.4,7,7.8,8.4c2.7,0.9,8.5,2.1,12.6,2.4c4.1,0.3,9.4,0.1,12.8-0.4
		c4.6-0.6,8.7-3,9.1-7.1l0.1-1.8C139.9,127.5,136.2,124.6,131.8,123.1z M63.9,107.3c0,0-0.3,1.2-2.3,1.3c-2,0.1-23.5,0.3-23.5,0.3
		s-1.7,0.1-1.8,3.1c-0.1,3,0,4.5,0,4.5h-4.8c0,0-1.3-2.4-4.7-0.6c0,0,0.6-16.5,1-16.5c0.1,0,0.7,0.1,1.5,0.2c0,0,0.1,0,0.1,0
		c0.7,0.1,1.6,0.2,2.6,0.4c0,0,0.1,0,0.1,0c0.9,0.1,1.9,0.3,2.8,0.4c0,0,0.1,0,0.1,0c1.1,0.2,2.2,0.4,3.1,0.5c0,0,0,0,0,0
		c1.3,0.2,2.4,0.5,2.8,0.6v0c0.1,0,0.2,0.1,0.3,0.1c0.6,0.5,0.7,3.2,0.7,3.2s-0.3,2.4,2.7,2.2c3.3-0.2,10.3,0.2,10.3,0.2
		s2.1,0.1,2.1-1.9c0-1.9,0.2-2.2,0.2-2.2l6.5,0.6V107.3z M66.4,65.6h-8.1l0.1-3.7c0,0,0-0.9-0.7-0.9c-0.7-0.1-13.3-0.6-13.3-0.6
		s-0.9,0.5-1.2,2.2c-0.2,1.7-0.7,2.9-0.7,2.9l-0.4,0l-2.9,0.2l0,0L36.1,66l0,0l-2.9,0.2l-0.1,0L32,66.4l1.9-14.8c0,0,0.3-1,1.4-1
		c1.1,0,3.7,0,3.7,0v5.9c0,0-0.2,2.7,3.6,2.7c3.8,0,18.1,1.6,18.1,1.6s5.3,0.3,5.6,1.9C66.5,63.4,66.4,65.6,66.4,65.6z M41,69.9
		c0.1-0.7,0.3-1.5,0.5-2.2c0.2-0.7,0.4-1.5,0.7-2.2l-2.9,0.2l0,0L36.1,66l0,0l-2.9,0.2c-0.3,1.2-0.5,2.5-0.7,3.7
		c-0.2,1.5-0.4,3-0.5,4.5c-0.2,3-0.4,6-0.4,9c0,3,0.1,6,0.2,9c0.1,2.5,0.3,5,0.4,7.5c0.9,0.1,1.9,0.3,2.8,0.4c0,0,0.1,0,0.1,0
		c1.1,0.2,2.2,0.4,3.1,0.5c0,0,0,0,0,0c1.3,0.2,2.4,0.5,2.8,0.6c-0.4-3-0.7-6-1-9c-0.2-3-0.3-6-0.3-9.1c0-3,0.2-6.1,0.5-9.1
		C40.5,72.9,40.7,71.4,41,69.9z"/>
	<path class="st1" d="M134.6,132.2c0,0.4-0.2,0.8-0.4,1.1c-0.2,0.3-0.5,0.6-0.8,0.8c-0.6,0.5-1.3,0.8-2,1.1
		c-1.4,0.6-2.9,0.9-4.4,1.2c-3,0.5-6.1,0.6-9.1,0.3c-3-0.3-6-0.9-8.9-1.9c-1.4-0.5-2.9-1-4.2-1.8c-0.7-0.4-1.3-0.8-1.9-1.4
		c-0.3-0.3-0.5-0.6-0.7-1c-0.2-0.4-0.3-0.8-0.3-1.2c0-0.4,0.2-0.8,0.4-1.2c0.2-0.3,0.5-0.6,0.8-0.9c0.6-0.5,1.3-0.8,2-1.1
		c1.4-0.6,2.9-0.9,4.5-1.1c3-0.4,6.1-0.5,9.1-0.2c3,0.3,6.1,0.8,8.9,1.8c1.4,0.5,2.8,1.1,4.1,1.9c0.6,0.4,1.3,0.9,1.8,1.4
		c0.3,0.3,0.5,0.6,0.7,0.9C134.6,131.4,134.7,131.8,134.6,132.2L134.6,132.2z M134.5,132.2c0-0.4-0.1-0.7-0.2-1.1
		c-0.2-0.3-0.4-0.6-0.7-0.9c-0.5-0.5-1.2-1-1.8-1.3c-1.3-0.7-2.7-1.2-4.2-1.6c-1.4-0.4-2.9-0.7-4.4-0.9c-1.5-0.2-3-0.4-4.4-0.5
		c-1.5-0.1-3-0.2-4.5-0.2c-1.5,0-3,0.1-4.5,0.3c-1.5,0.2-2.9,0.5-4.3,1c-0.7,0.3-1.4,0.6-1.9,1c-0.6,0.4-1.1,1-1.1,1.6
		c0,0.3,0,0.7,0.2,1c0.1,0.3,0.4,0.6,0.6,0.9c0.5,0.5,1.1,1,1.7,1.4c1.3,0.8,2.7,1.3,4.1,1.8c1.4,0.4,2.9,0.7,4.4,1
		c1.5,0.2,3,0.4,4.5,0.5c3,0.2,6,0.2,9-0.1c1.5-0.2,3-0.4,4.4-0.9c0.7-0.2,1.4-0.6,2-1C133.9,133.5,134.5,132.9,134.5,132.2
		L134.5,132.2z"/>
	<g>
		<g>
			<path class="st1" d="M99.2,93.3L97.3,90l-0.9-1.6L96,87.5l-0.2-0.4c-0.1-0.1-0.1-0.3-0.2-0.4c0.1-0.5,0-1-0.1-1.5
				c-0.1-0.5-0.3-0.9-0.5-1.4c-0.4-0.9-0.8-1.8-1.3-2.7L91.1,76c-0.2-0.4-0.4-0.9-0.6-1.3c-0.3-0.4-0.6-0.8-0.9-1.2
				c-0.7-0.7-1.5-1.3-2.4-1.7c-0.9-0.4-2-0.6-3-0.4c-1,0.2-1.9,0.6-2.8,1.2c-0.8,0.6-1.6,1.3-2.1,2.1c-0.6,0.8-1,1.7-1.1,2.7
				c-0.1,1,0.1,2,0.5,2.9c0.4,0.9,1,1.7,1.5,2.5c1.2,1.6,2.5,3.1,3.8,4.6c0.6,0.7,1.3,1.5,1.9,2.3c0.2,0.2,0.3,0.4,0.5,0.6
				c0.2,0.2,0.3,0.4,0.5,0.5c0.4,0.3,0.8,0.6,1.3,0.8l5.5,8.4l0,0l0,0l-2.4-4.5c-0.4-0.7-0.9-1.4-1.4-2.1l-1.4-2.1L88.4,91L88.2,91
				c-0.2-0.1-0.4-0.2-0.6-0.3c-0.2-0.1-0.4-0.3-0.5-0.4c-0.2-0.1-0.3-0.3-0.5-0.5c-0.1-0.2-0.3-0.4-0.5-0.6
				c-0.6-0.8-1.3-1.5-1.9-2.3c-1.3-1.5-2.6-3-3.8-4.5c-0.3-0.4-0.6-0.8-0.8-1.2c-0.3-0.4-0.5-0.8-0.7-1.2c-0.4-0.8-0.6-1.7-0.4-2.6
				c0.1-0.9,0.5-1.7,1-2.5c0.5-0.8,1.3-1.4,2-2c0.8-0.6,1.6-1,2.6-1.2c0.9-0.2,1.9,0,2.8,0.3c0.9,0.4,1.7,1,2.4,1.7
				c0.3,0.3,0.7,0.7,0.9,1.1c0.1,0.2,0.2,0.4,0.3,0.6L91,76c0.9,1.7,1.8,3.5,2.7,5.2c0.4,0.9,0.9,1.7,1.3,2.6
				c0.2,0.4,0.4,0.9,0.5,1.4c0.1,0.5,0.2,1,0.1,1.4c0,0.2,0.1,0.3,0.2,0.5l0.2,0.4l0.4,0.8l0.9,1.6L99.2,93.3l1.8,3.3l2.1,3.2
				L99.2,93.3z"/>
		</g>
	</g>
	<path class="st1" d="M16.3,93.5c-0.6-1.8-0.9-3.6-1-5.5c-0.2-1.9-0.2-3.7-0.1-5.6c0.1-1.9,0.3-3.7,0.6-5.6c0.3-1.8,0.8-3.7,1.4-5.4
		c-0.4,1.8-0.7,3.6-1,5.5c-0.2,1.8-0.4,3.7-0.5,5.5c-0.1,1.8-0.1,3.7,0,5.5c0,0.9,0.1,1.8,0.2,2.8C16,91.7,16.1,92.6,16.3,93.5z"/>
	<path class="st1" d="M40.4,83.5c0,3,0.1,6,0.2,9c0.1,3,0.3,6,0.5,9c-0.4-3-0.7-6-1-9c-0.2-3-0.3-6-0.3-9.1c0-3,0.2-6.1,0.5-9.1
		c0.2-1.5,0.4-3,0.7-4.5c0.1-0.7,0.3-1.5,0.5-2.2c0.2-0.7,0.4-1.5,0.7-2.2c-0.4,1.5-0.7,2.9-0.9,4.4c-0.2,1.5-0.4,3-0.5,4.5
		C40.5,77.5,40.4,80.5,40.4,83.5z"/>
	<path class="st1" d="M37.6,83.5c0,3,0.1,6,0.2,9c0.1,2.8,0.3,5.6,0.5,8.4c0,0,0,0,0,0c-0.4-2.8-0.7-5.6-0.9-8.4
		c-0.2-3-0.3-6-0.3-9.1c0-3,0.2-6.1,0.5-9.1c0.2-1.5,0.4-3,0.7-4.5c0.1-0.7,0.3-1.5,0.5-2.2c0.2-0.7,0.3-1.3,0.6-1.9l0,0
		c-0.4,1.4-0.6,2.8-0.8,4.2c-0.2,1.5-0.4,3-0.5,4.5C37.7,77.5,37.6,80.5,37.6,83.5z"/>
	<path class="st1" d="M34.9,74.5c-0.2,3-0.4,6-0.4,9c0,3,0.1,6,0.2,9c0.1,2.6,0.3,5.3,0.5,7.9c0,0-0.1,0-0.1,0
		c-0.3-2.6-0.6-5.2-0.8-7.9c-0.2-3-0.3-6-0.3-9.1c0-3,0.2-6.1,0.5-9.1c0.2-1.5,0.4-3,0.7-4.5c0.1-0.7,0.3-1.5,0.5-2.2
		c0.1-0.6,0.3-1.1,0.5-1.7l0,0c-0.3,1.3-0.6,2.6-0.8,3.9C35.2,71.5,35,73,34.9,74.5z"/>
	<path class="st1" d="M31.6,83.5c0,3,0.1,6,0.2,9c0.1,2.5,0.3,5,0.4,7.5c0,0-0.1,0-0.1,0c-0.3-2.5-0.6-4.9-0.7-7.4
		c-0.2-3-0.3-6-0.3-9.1c0-3,0.2-6.1,0.5-9.1c0.2-1.5,0.4-3,0.7-4.5c0.1-0.7,0.3-1.5,0.5-2.2c0.1-0.5,0.3-1,0.4-1.4l0.1,0
		c-0.3,1.2-0.5,2.5-0.7,3.7c-0.2,1.5-0.4,3-0.5,4.5C31.7,77.5,31.6,80.5,31.6,83.5z"/>
	<path class="st1" d="M29.3,74.5c-0.2,3-0.4,6-0.4,9c0,3,0.1,6,0.2,9c0.1,2.4,0.2,4.7,0.4,7.1c0,0-0.1,0-0.1,0
		c-0.3-2.3-0.5-4.7-0.7-7c-0.2-3-0.3-6-0.3-9.1c0-3,0.2-6.1,0.5-9.1c0.2-1.5,0.4-3,0.7-4.5c0.1-0.7,0.3-1.5,0.5-2.2
		c0.2-0.7,0.4-1.5,0.7-2.2C30.3,67,30,68.5,29.8,70C29.6,71.5,29.4,73,29.3,74.5z"/>
	<path class="st1" d="M27.9,65.6C27.5,67,27.2,68.5,27,70c-0.2,1.5-0.4,3-0.5,4.5c-0.2,3-0.4,6-0.4,9c0,3,0.1,6,0.2,9
		c0.1,3,0.3,6,0.5,9c-0.4-3-0.7-6-1-9c-0.2-3-0.3-6-0.3-9.1c0-3,0.2-6.1,0.5-9.1c0.2-1.5,0.4-3,0.7-4.5c0.1-0.7,0.3-1.5,0.5-2.2
		C27.4,67,27.6,66.3,27.9,65.6z"/>
	<path class="st1" d="M19.5,68.6c-0.3,2.4-0.5,4.7-0.7,7.1c-0.2,2.4-0.3,4.7-0.4,7.1c-0.1,2.4-0.2,4.7-0.2,7.1
		c0,2.4,0.1,4.7,0.2,7.1c-0.3-2.3-0.5-4.7-0.6-7.1c-0.1-2.4-0.1-4.8,0-7.1c0.1-2.4,0.3-4.7,0.6-7.1C18.7,73.3,19,70.9,19.5,68.6z"/>
	<path class="st1" d="M22.4,104.4c-0.2,0.1-0.5,0-0.7-0.1c-0.2-0.1-0.4-0.3-0.6-0.5c-0.3-0.4-0.5-0.8-0.7-1.3
		c-0.3-0.9-0.5-1.9-0.6-2.9c-0.1-1-0.1-1.9-0.2-2.9c0-1-0.1-1.9-0.1-2.9c-0.1-1.9-0.1-3.9-0.1-5.8c0-1.9,0-3.9,0.1-5.8
		c0.1-1.9,0.1-3.9,0.3-5.8c0.1-1.9,0.3-3.9,0.5-5.8c0.2-1.9,0.5-3.9,1-5.8c0.1-0.5,0.3-0.9,0.5-1.4c0.2-0.5,0.5-0.9,0.8-1.2
		c0.2-0.2,0.4-0.3,0.7-0.4c0.3,0,0.5,0.1,0.7,0.2c0.4,0.4,0.5,0.8,0.7,1.3c-0.2-0.5-0.4-0.9-0.7-1.2c-0.2-0.2-0.4-0.2-0.6-0.2
		c-0.2,0-0.4,0.2-0.6,0.4c-0.3,0.3-0.6,0.8-0.8,1.2c-0.2,0.4-0.3,0.9-0.4,1.4c-0.5,1.9-0.7,3.8-0.9,5.7c-0.4,3.9-0.5,7.8-0.6,11.6
		c-0.1,3.9-0.1,7.8-0.1,11.7c0,1.9,0,3.9,0.1,5.8c0.1,1,0.2,1.9,0.5,2.9c0.1,0.5,0.3,0.9,0.6,1.3c0.1,0.2,0.3,0.4,0.5,0.5
		C21.9,104.4,22.1,104.4,22.4,104.4z"/>
	<path class="st1" d="M42.2,106.1c-0.2-1.9-0.4-3.8-0.6-5.7c-0.1-1.9-0.3-3.8-0.4-5.7C41,90.9,41,87.1,41,83.2
		c0-1.9,0.1-3.8,0.2-5.7c0.1-1.9,0.2-3.8,0.4-5.7c0.2-1.9,0.4-3.8,0.8-5.7c0.2-0.9,0.4-1.9,0.7-2.8c0.3-0.9,0.6-1.8,1.1-2.6
		c-0.4,0.8-0.7,1.8-1,2.7c-0.2,0.9-0.4,1.9-0.6,2.8c-0.3,1.9-0.5,3.8-0.6,5.7c-0.3,3.8-0.4,7.6-0.4,11.4c-0.1,3.8,0,7.6,0.1,11.4
		c0,1.9,0.1,3.8,0.2,5.7C41.9,102.3,42.1,104.2,42.2,106.1z"/>
	<path class="st1" d="M55.9,107.3c-0.3-1.9-0.4-3.9-0.6-5.8c-0.1-1.9-0.3-3.9-0.4-5.8c-0.2-3.9-0.3-7.8-0.3-11.6
		c0-1.9,0.1-3.9,0.2-5.8c0.1-1.9,0.2-3.9,0.4-5.8c0.2-1.9,0.4-3.9,0.8-5.8c0.2-1,0.4-1.9,0.7-2.8c0.3-0.9,0.6-1.8,1.1-2.7
		c-0.4,0.9-0.7,1.8-1,2.7c-0.2,0.9-0.4,1.9-0.6,2.8c-0.3,1.9-0.5,3.8-0.6,5.8c-0.3,3.9-0.4,7.7-0.4,11.6c-0.1,3.9,0,7.7,0.1,11.6
		c0,1.9,0.1,3.9,0.2,5.8C55.7,103.4,55.8,105.4,55.9,107.3z"/>
	<path class="st1" d="M111.2,67c-0.4,0.4-0.8,0.7-1.3,1c-0.2,0.1-0.5,0.3-0.7,0.4c-0.3,0.1-0.5,0.1-0.8,0.1c-1.1-0.1-2.1-0.2-3.2,0
		c-0.5,0.1-1,0.3-1.3,0.7c-0.4,0.4-0.6,0.9-0.7,1.4c-0.1,0.5-0.2,1-0.1,1.5c0.1,0.5,0.3,1,0.6,1.4c0.3,0.4,0.8,0.7,1.3,0.8
		c0.5,0.2,1,0.3,1.5,0.3c1,0.1,2.1,0,3.1-0.3c1-0.2,2-0.6,3-1.1c0.5-0.2,1-0.5,1.4-0.8c0.2-0.1,0.4-0.3,0.7-0.5
		c0.2-0.2,0.4-0.3,0.6-0.6c-0.1,0.2-0.3,0.4-0.5,0.6c-0.2,0.2-0.4,0.3-0.6,0.5c-0.4,0.3-0.9,0.6-1.4,0.8c-1,0.5-2,0.9-3,1.2
		c-1,0.3-2.1,0.4-3.2,0.3c-0.5,0-1.1-0.1-1.6-0.3c-0.5-0.2-1-0.5-1.4-0.9c-0.4-0.4-0.6-1-0.7-1.5c-0.1-0.6,0-1.1,0.1-1.6
		c0.1-0.5,0.4-1.1,0.8-1.5c0.4-0.4,0.9-0.7,1.5-0.8c1.1-0.2,2.2,0,3.2,0.1c0.3,0,0.5,0,0.8-0.1c0.2-0.1,0.5-0.2,0.7-0.4
		C110.3,67.7,110.8,67.3,111.2,67z"/>
	<path class="st1" d="M78.7,100.3c-0.1-0.2-0.2-0.4-0.3-0.6c0-0.1-0.1-0.2-0.1-0.3c0-0.1,0-0.2,0-0.3c0-0.4,0-0.9-0.1-1.3
		c-0.2-0.4-0.5-0.7-0.9-0.7c-0.4-0.1-0.9-0.2-1.3-0.2c-0.4,0-0.9,0-1.3,0.1c-0.2,0.1-0.4,0.2-0.5,0.3c-0.1,0.1-0.2,0.3-0.3,0.5
		c-0.1,0.4-0.1,0.8,0,1.3c0,0.2,0.1,0.4,0.2,0.6c0.1,0.2,0.1,0.4,0.3,0.6c-0.2-0.1-0.3-0.4-0.3-0.6c-0.1-0.2-0.2-0.4-0.2-0.6
		c-0.1-0.4-0.1-0.9,0-1.3c0.1-0.2,0.1-0.4,0.3-0.6c0.2-0.2,0.4-0.3,0.6-0.4c0.4-0.2,0.9-0.2,1.3-0.2c0.4,0,0.9,0.1,1.3,0.2
		c0.2,0,0.4,0.1,0.6,0.3c0.2,0.2,0.3,0.4,0.4,0.6c0.2,0.4,0.1,0.9,0.1,1.3c0,0.2-0.1,0.4,0,0.6C78.5,99.9,78.6,100.1,78.7,100.3z"/>
	<path class="st1" d="M83.5,95.8c-0.3-0.4-0.8-0.6-1.4-0.6c-0.5,0-1.1,0.2-1.4,0.6c-0.4,0.4-0.6,0.9-0.6,1.4c0,0.5,0.2,1,0.6,1.4
		c0.4,0.4,0.9,0.6,1.4,0.6c0.5,0,1-0.2,1.3-0.6c0.3-0.4,0.5-0.8,0.5-1.3C84.1,96.7,83.9,96.2,83.5,95.8z"/>
	<path class="st0" d="M82.9,96.7c-0.1,0-0.2,0.1-0.3,0.2c0,0,0,0-0.1,0c0-0.1,0-0.2,0.1-0.3c0,0,0-0.1,0-0.1c0-0.2-0.2-0.3-0.5-0.3
		c-0.3,0-0.5,0.2-0.5,0.3c0,0,0,0.1,0,0.1c0,0.1,0.1,0.2,0.1,0.3c0,0,0,0-0.1,0c-0.1-0.1-0.2-0.2-0.3-0.2c-0.2,0-0.3,0.2-0.3,0.5
		c0,0.3,0.2,0.5,0.3,0.5c0.1,0,0.2-0.1,0.3-0.2c0,0,0.1,0,0.1,0c0,0.2-0.1,0.3-0.1,0.3c0,0,0,0.1,0,0.1c0,0.2,0.2,0.3,0.5,0.3
		c0.3,0,0.5-0.2,0.5-0.3c0,0,0-0.1,0-0.1c0,0,0-0.1-0.1-0.3c0,0,0,0,0.1,0c0.1,0.1,0.2,0.2,0.3,0.2c0.2,0,0.3-0.2,0.3-0.5
		C83.2,96.9,83.1,96.7,82.9,96.7z"/>
	<path class="st1" d="M111.7,94.4c-0.3-0.4-0.8-0.6-1.4-0.6c-0.5,0-1.1,0.2-1.4,0.6c-0.4,0.4-0.6,0.9-0.6,1.4c0,0.5,0.2,1,0.6,1.4
		c0.4,0.4,0.9,0.6,1.4,0.6c0.5,0,1-0.2,1.3-0.6c0.3-0.4,0.5-0.8,0.5-1.3C112.2,95.3,112,94.8,111.7,94.4z"/>
	<path class="st0" d="M111,95.3c-0.1,0-0.2,0.1-0.3,0.2c0,0,0,0-0.1,0c0-0.1,0-0.2,0.1-0.3c0,0,0-0.1,0-0.1c0-0.2-0.2-0.3-0.5-0.3
		c-0.3,0-0.5,0.2-0.5,0.3c0,0,0,0.1,0,0.1c0,0.1,0.1,0.2,0.1,0.3c0,0,0,0-0.1,0c-0.1-0.1-0.2-0.2-0.3-0.2c-0.2,0-0.3,0.2-0.3,0.5
		c0,0.3,0.2,0.5,0.3,0.5c0.1,0,0.2-0.1,0.3-0.2c0,0,0.1,0,0.1,0c0,0.2-0.1,0.3-0.1,0.3c0,0,0,0.1,0,0.1c0,0.2,0.2,0.3,0.5,0.3
		c0.3,0,0.5-0.2,0.5-0.3c0,0,0-0.1,0-0.1c0,0,0-0.1-0.1-0.3c0,0,0,0,0.1,0c0.1,0.1,0.2,0.2,0.3,0.2c0.2,0,0.3-0.2,0.3-0.5
		C111.4,95.5,111.2,95.3,111,95.3z"/>
	<path class="st1" d="M88.2,57.1c-0.3-0.4-0.8-0.6-1.4-0.6c-0.5,0-1.1,0.2-1.4,0.6c-0.4,0.4-0.6,0.9-0.6,1.4c0,0.5,0.2,1,0.6,1.4
		c0.4,0.4,0.9,0.6,1.4,0.6c0.5,0,1-0.2,1.3-0.6c0.3-0.4,0.5-0.8,0.5-1.3C88.8,58,88.6,57.5,88.2,57.1z"/>
	<path class="st0" d="M87.6,58.1c-0.1,0-0.2,0.1-0.3,0.2c0,0,0,0-0.1,0c0-0.1,0-0.2,0.1-0.3c0,0,0-0.1,0-0.1c0-0.2-0.2-0.3-0.5-0.3
		c-0.3,0-0.5,0.2-0.5,0.3c0,0,0,0.1,0,0.1c0,0.1,0.1,0.2,0.1,0.3c0,0,0,0-0.1,0c-0.1-0.1-0.2-0.2-0.3-0.2c-0.2,0-0.3,0.2-0.3,0.5
		c0,0.3,0.2,0.5,0.3,0.5c0.1,0,0.2-0.1,0.3-0.2c0,0,0,0,0.1,0c0,0.2-0.1,0.3-0.1,0.3c0,0,0,0.1,0,0.1c0,0.2,0.2,0.3,0.5,0.3
		c0.3,0,0.5-0.2,0.5-0.3c0,0,0-0.1,0-0.1c0,0,0-0.1-0.1-0.3c0,0,0,0,0.1,0c0.1,0.1,0.2,0.2,0.3,0.2c0.2,0,0.3-0.2,0.3-0.5
		C87.9,58.3,87.8,58.1,87.6,58.1z"/>
	<path class="st1" d="M74.2,38.1c-0.1-0.2-0.1-0.4-0.1-0.6c0-0.2,0-0.4,0.1-0.6c0.1-0.4,0.3-0.7,0.7-0.9c0.3-0.2,0.8-0.1,1.1,0
		c0.3,0.2,0.6,0.4,0.9,0.7c0.6,0.5,1.1,1,1.6,1.5c0.5,0.5,1.1,1.1,1.6,1.6c2.1,2.1,4.1,4.3,6.1,6.5l3,3.3l1.5,1.7l0.7,0.8
		c0.2,0.3,0.5,0.6,0.7,0.9c0.1,0.2,0.2,0.4,0.2,0.6c0,0.1,0,0.2-0.1,0.3c-0.1,0.1-0.1,0.2-0.2,0.2c-0.4,0.2-0.8,0.2-1.1,0.2
		c-0.8,0-1.5-0.1-2.2-0.1c-1.5-0.1-3-0.2-4.5-0.4l0,0c-0.3,0-0.4-0.1-0.6-0.2c-0.2-0.1-0.4-0.2-0.5-0.3c-0.3-0.3-0.6-0.5-0.9-0.9
		c-0.5-0.6-0.9-1.3-1.3-2c-0.8-1.4-1.5-2.8-2.3-4.2L74.2,38.1z M74.2,38.1c0.8,1.4,1.5,2.8,2.3,4.2l2.3,4.1c0.8,1.4,1.5,2.8,2.3,4.1
		c0.4,0.7,0.8,1.4,1.3,2c0.2,0.3,0.5,0.6,0.8,0.8c0.2,0.1,0.3,0.2,0.5,0.3c0.2,0.1,0.4,0.1,0.5,0.2l0,0l0,0c1.5,0.1,3,0.3,4.5,0.4
		c0.7,0.1,1.5,0.1,2.2,0.1c0.4,0,0.7,0,1-0.2c0.1-0.1,0.2-0.2,0.2-0.4c0-0.2-0.1-0.3-0.2-0.5c-0.2-0.3-0.4-0.6-0.7-0.9l-0.7-0.8
		l-1.5-1.7l-3-3.3c-2-2.2-4-4.4-6.1-6.6c-1-1.1-2.1-2.2-3.2-3.2c-0.3-0.2-0.6-0.5-0.9-0.6c-0.3-0.2-0.7-0.2-1.1-0.1
		c-0.3,0.2-0.5,0.5-0.7,0.9c-0.1,0.2-0.1,0.4-0.1,0.5C74.1,37.7,74.1,37.9,74.2,38.1z"/>
	<path class="st1" d="M77.9,38.9c-0.2-0.2-0.5-0.3-0.8-0.3c-0.3,0-0.6,0.1-0.8,0.3c-0.2,0.2-0.4,0.5-0.4,0.8c0,0.3,0,0.6,0.3,0.9
		c0.2,0.2,0.5,0.4,0.8,0.4c0.3,0,0.6-0.1,0.8-0.3c0.2-0.2,0.4-0.5,0.4-0.8C78.2,39.4,78.1,39.1,77.9,38.9z M78,39.7
		c0,0.1,0,0.1,0,0.2C78,39.8,78,39.8,78,39.7c-0.2-0.2-0.5-0.4-0.9-0.4c-0.1,0-0.2,0-0.3,0.1c-0.3,0.1-0.5,0.3-0.6,0.5
		c0,0.1-0.1,0.2-0.1,0.3c-0.1-0.2-0.2-0.4-0.2-0.6c0-0.3,0.1-0.5,0.3-0.7c0.2-0.2,0.5-0.3,0.8-0.3c0.3,0,0.5,0.2,0.7,0.4
		C78,39.1,78.1,39.4,78,39.7z"/>
	<path class="st1" d="M81.6,43.4c-0.3-0.3-0.6-0.4-1-0.4c-0.4,0-0.7,0.1-1,0.4c-0.3,0.2-0.5,0.6-0.5,0.9c-0.1,0.4,0.1,0.8,0.3,1.1
		c0.2,0.3,0.6,0.5,1,0.5c0.4,0,0.8-0.1,1-0.4c0.3-0.3,0.4-0.6,0.4-1C82,44.1,81.9,43.7,81.6,43.4z M81.8,44.4c0,0.1,0,0.1,0,0.2
		C81.7,44.6,81.7,44.5,81.8,44.4c-0.2-0.3-0.6-0.5-1.1-0.4c-0.1,0-0.2,0-0.3,0.1c-0.3,0.1-0.6,0.3-0.7,0.6c-0.1,0.1-0.1,0.2-0.1,0.3
		c-0.1-0.2-0.2-0.4-0.3-0.7c0-0.3,0.1-0.7,0.4-0.9c0.3-0.2,0.6-0.4,0.9-0.3c0.3,0,0.6,0.2,0.9,0.4C81.7,43.8,81.8,44.1,81.8,44.4z"
		/>
	<path class="st1" d="M86.3,48.8c-0.3-0.4-0.8-0.6-1.3-0.6c-0.5,0-1,0.2-1.3,0.5c-0.4,0.3-0.6,0.8-0.7,1.3c-0.1,0.5,0.1,1,0.4,1.4
		c0.3,0.4,0.9,0.6,1.4,0.7c0.5,0,1.1-0.2,1.4-0.5c0.4-0.4,0.6-0.9,0.6-1.4C86.8,49.7,86.6,49.2,86.3,48.8z M86.5,50.2
		c0,0.1,0,0.2-0.1,0.3c0-0.1,0-0.1,0-0.2c-0.2-0.5-0.8-0.8-1.4-0.7c-0.1,0-0.3,0.1-0.4,0.1c-0.4,0.2-0.8,0.5-1,0.8
		c-0.1,0.2-0.1,0.3-0.1,0.5c-0.2-0.3-0.3-0.6-0.3-1c0-0.4,0.1-0.9,0.5-1.2c0.3-0.3,0.8-0.5,1.3-0.4c0.5,0,0.9,0.3,1.2,0.6
		C86.4,49.3,86.6,49.8,86.5,50.2z"/>
	<path class="st1" d="M73.4,93.6l3.9-0.1l3.9,0c1.3,0,2.6,0,3.9,0c1.3,0,2.6,0,3.9,0.1v0c-1.3,0.1-2.6,0.1-3.9,0.1
		c-1.3,0-2.6,0-3.9,0l-3.9,0L73.4,93.6L73.4,93.6z"/>
	<path class="st1" d="M73.8,70.9c1.4-1.5,3-2.8,4.7-3.8c1.7-1,3.7-1.8,5.7-2c1-0.1,2.1-0.1,3.1,0.1c1,0.1,2,0.4,3,0.7
		c2,0.6,3.8,1.5,5.6,2.5c1.8,1,3.4,2.3,4.9,3.7c0.7,0.7,1.4,1.5,2.1,2.3c0.6,0.8,1.3,1.6,1.9,2.4c2.5,3.2,4.9,6.5,7.3,9.8l0.1,0.2
		l-0.2,0.1c-0.9,0.7-1.9,1.4-2.9,2c-1,0.6-2,1.2-3.1,1.7c-1.1,0.5-2.1,1-3.2,1.4c-1.1,0.4-2.3,0.7-3.4,0.8l0-0.1
		c1.2-0.2,2.3-0.5,3.4-0.9c1.1-0.4,2.1-0.9,3.2-1.5c1-0.6,2-1.2,3-1.8c1-0.6,1.9-1.3,2.8-2l0,0.4l-7.3-9.8c-0.6-0.8-1.2-1.6-1.9-2.4
		c-0.6-0.8-1.3-1.6-2-2.3c-1.4-1.4-3.1-2.6-4.8-3.7c-1.7-1-3.6-1.9-5.5-2.5c-1-0.3-1.9-0.5-2.9-0.7c-1-0.1-2-0.2-3-0.1
		c-2,0.2-3.9,0.9-5.7,1.9C76.8,68.2,75.2,69.4,73.8,70.9z"/>
	<path class="st1" d="M85.8,89.7c-2.2,0.1-4.4-0.6-6.2-1.9c-1.8-1.3-3.2-3.2-3.8-5.3c-0.7-2.1-0.6-4.5,0.1-6.6
		c0.8-2.1,2.2-3.9,4.1-5.2c1.9-1.2,4.1-1.8,6.4-1.7c2.2,0.1,4.4,1,6.1,2.5c1.7,1.5,2.9,3.5,3.4,5.6c0.5,2.2,0.2,4.5-0.7,6.5
		c0.9-2,1.1-4.3,0.6-6.5c-0.5-2.1-1.7-4.1-3.4-5.5c-1.7-1.4-3.8-2.3-6-2.4c-2.2-0.1-4.4,0.4-6.2,1.6c-1.8,1.2-3.2,3-4,5
		c-0.7,2-0.8,4.3-0.2,6.4c0.6,2.1,1.9,4,3.7,5.3C81.4,89,83.6,89.7,85.8,89.7z"/>
	<path class="st1" d="M86.8,91.2c-2.6,0.3-5.3-0.3-7.6-1.7c-2.2-1.4-4-3.6-4.9-6.1c-0.9-2.5-0.9-5.4,0-7.9c0.9-2.5,2.6-4.8,4.9-6.2
		c2.3-1.4,5-2.1,7.7-1.8c2.7,0.3,5.2,1.5,7.1,3.4c1.9,1.9,3.2,4.4,3.5,7c0.3,2.6-0.3,5.4-1.7,7.6c0.6-1.1,1.1-2.4,1.3-3.7
		c0.2-1.3,0.3-2.6,0.1-3.9c-0.4-2.6-1.6-5-3.5-6.8c-0.9-0.9-2-1.6-3.2-2.2c-1.2-0.5-2.4-0.9-3.7-1c-2.6-0.3-5.2,0.4-7.4,1.8
		c-2.2,1.4-3.9,3.5-4.7,5.9c-0.4,1.2-0.7,2.5-0.7,3.8c0,1.3,0.2,2.6,0.6,3.8c0.8,2.5,2.5,4.6,4.6,6c1.1,0.7,2.3,1.3,3.5,1.6
		C84.2,91.2,85.5,91.3,86.8,91.2z"/>
	<path class="st1" d="M36.7,114.6c0.3,0.3,0.5,0.5,0.9,0.7c0.3,0.2,0.7,0.2,1.1,0.2c0.8,0,1.5,0.1,2.3,0.1l4.5,0.2l0,0l0,0l0,0
		c0.4,0.3,0.9,0.6,1.3,0.9c0.2,0.1,0.5,0.3,0.7,0.4c0.2,0.1,0.5,0.2,0.7,0.2c0.6,0,1.1,0.1,1.6,0.2c0.5,0.1,1.1,0.2,1.6,0.4
		c-0.5-0.1-1.1-0.1-1.6-0.2c-0.5-0.1-1.1-0.1-1.6-0.1c-0.3,0-0.6-0.1-0.8-0.2c-0.3-0.1-0.5-0.2-0.8-0.4c-0.5-0.3-0.9-0.6-1.4-0.9h0
		l0.1,0l-4.5-0.3c-0.8-0.1-1.5-0.1-2.3-0.2c-0.2,0-0.4,0-0.6-0.1c-0.2,0-0.4-0.1-0.5-0.2C37.2,115.2,36.9,114.9,36.7,114.6
		L36.7,114.6z"/>
	<path class="st1" d="M72.1,110l-3.3,0.1l0.1-0.1l0,0c-0.5,0.9-1.2,1.7-1.9,2.5c-0.7,0.7-1.6,1.4-2.5,1.9c-0.9,0.5-2,0.8-3,0.9
		c-1,0.1-2.1,0.3-3.1,0.4c-2.1,0.2-4.1,0.4-6.2,0.5c-2.1,0.1-4.1,0-6.2-0.3c4.1,0.4,8.3,0.1,12.4-0.4c1-0.1,2-0.3,3.1-0.4
		c1-0.1,2-0.4,2.9-0.9c0.9-0.5,1.7-1.1,2.4-1.8c0.7-0.7,1.4-1.5,1.9-2.4l0,0l0.1-0.1l0.1,0L72.1,110L72.1,110z"/>
	<path class="st1" d="M51,49.2l-3.2,3L47.8,52h0c2.6,0.1,5.2,0.1,7.8,0.2c0.3,0,0.6,0,1,0.1c0.3,0,0.6,0.1,1,0.1
		c0.6,0.1,1.3,0.2,1.9,0.3c1.3,0.2,2.6,0.5,3.8,0.8c0.6,0.2,1.3,0.4,1.8,0.7c0.6,0.3,1.2,0.5,1.8,0.8c1.2,0.6,2.2,1.5,2.9,2.6
		c0.7,1.1,1.1,2.4,1.4,3.6c0.2,1.3,0.3,2.6,0.3,3.9h0c0-1.3-0.1-2.6-0.4-3.9c-0.3-1.3-0.7-2.5-1.4-3.6c-0.7-1.1-1.7-2-2.9-2.6
		c-0.6-0.3-1.2-0.6-1.8-0.8c-0.6-0.3-1.2-0.5-1.8-0.6c-1.3-0.3-2.5-0.6-3.8-0.8c-0.6-0.1-1.3-0.2-1.9-0.3c-0.3,0-0.6-0.1-1-0.1
		c-0.3,0-0.6,0-1,0c-2.6-0.1-5.2-0.1-7.8-0.1h0l-0.4,0l0.3-0.2L51,49.2z"/>
	<path class="st1" d="M39.2,51.5c0.2,0.3,0.4,0.6,0.7,0.7c0.1,0,0.3,0,0.5,0l0.5,0l2.1,0c1.4,0,2.8,0,4.2,0v0
		c-1.4,0-2.8,0.1-4.2,0.1l-2.1,0l-0.5,0l-0.3,0c-0.1,0-0.2,0-0.3,0c-0.2-0.1-0.3-0.2-0.4-0.4C39.3,51.8,39.2,51.6,39.2,51.5z"/>
	<path class="st1" d="M24.3,44.9c1.2-0.7,2.6-1.1,3.9-1c0.7,0,1.4,0.2,2,0.5c0.6,0.3,1.2,0.7,1.7,1.3c0.4,0.5,0.8,1.1,1,1.8
		c0.2,0.7,0.2,1.4,0.1,2.1c-0.1,0.7-0.3,1.4-0.5,2c-0.1,0.3-0.3,0.6-0.4,0.9c-0.2,0.3-0.3,0.6-0.5,0.9c0.1-0.1,0.2-0.3,0.3-0.4
		c0.1-0.2,0.1-0.3,0.2-0.5c0.1-0.3,0.2-0.6,0.3-1c0.2-0.6,0.4-1.3,0.4-2c0-0.7,0-1.3-0.2-2c-0.2-0.6-0.5-1.2-1-1.7
		c-0.4-0.5-0.9-0.9-1.5-1.2c-0.6-0.3-1.3-0.4-1.9-0.5c-0.7,0-1.3,0-2,0.2C25.5,44.4,24.9,44.6,24.3,44.9z"/>
	<path class="st1" d="M66.5,65.8c-0.4,1.6-0.5,3.1-0.7,4.7c-0.2,1.6-0.3,3.2-0.4,4.8c-0.2,3.2-0.4,6.4-0.5,9.5
		c-0.2,3.2-0.3,6.4-0.4,9.6c-0.1,1.6-0.1,3.2-0.1,4.8c0,0.8,0,1.6-0.1,2.4l0,1.2c0,0.4,0,0.8,0,1.2c-0.1-0.8-0.1-1.6-0.1-2.4
		c0-0.8,0-1.6,0-2.4c0-1.6,0-3.2,0.1-4.8c0.1-3.2,0.2-6.4,0.3-9.6c0.2-3.2,0.3-6.4,0.6-9.5c0.1-1.6,0.3-3.2,0.5-4.8
		c0.1-0.8,0.2-1.6,0.3-2.4C66.1,67.4,66.3,66.6,66.5,65.8z"/>
	<path class="st1" d="M73.3,100c-0.4-2.6-0.6-5.3-0.8-8c-0.2-2.7-0.2-5.3-0.3-8c0-2.7,0-5.4,0.3-8c0.1-1.3,0.3-2.7,0.5-4
		c0.1-0.7,0.3-1.3,0.5-2c0.1-0.3,0.2-0.6,0.4-0.9c0.1-0.2,0.2-0.3,0.3-0.4c0.1-0.1,0.2-0.3,0.4-0.3c-0.2,0-0.3,0.2-0.4,0.3
		c-0.1,0.1-0.2,0.3-0.2,0.4c-0.1,0.3-0.2,0.6-0.3,0.9c-0.2,0.6-0.3,1.3-0.4,2c-0.2,1.3-0.3,2.6-0.4,4c-0.2,2.7-0.3,5.3-0.2,8
		c0,2.7,0.1,5.3,0.2,8c0.1,1.3,0.1,2.7,0.2,4C73.1,97.4,73.2,98.7,73.3,100z"/>
	<path class="st1" d="M97.9,10c-1.9,0.3-3.8,0.5-5.7,0.8l-5.7,0.7l-5.7,0.7l-0.7,0.1c-0.2,0-0.4,0.1-0.7,0.2
		c-0.5,0.1-0.9,0.3-1.3,0.4c-0.9,0.3-1.7,0.8-2.4,1.3c-0.7,0.5-1.4,1.2-1.8,2c-0.2,0.4-0.4,0.8-0.5,1.3c-0.1,0.4-0.1,0.9-0.1,1.4
		c-0.1,1.9-0.1,3.8-0.1,5.7c0,1,0,1.9,0,2.8c0,0.9,0.2,1.9,0.5,2.8c0.3,0.9,0.6,1.8,1.1,2.6c0.5,0.8,1,1.6,1.8,2.2
		c-0.8-0.5-1.4-1.3-1.9-2.1c-0.5-0.8-0.9-1.7-1.2-2.6c-0.3-0.9-0.5-1.9-0.5-2.8c-0.1-1-0.1-1.9-0.1-2.9c0-1.9,0-3.8,0-5.7
		c0-1,0.2-2,0.7-2.9c0.5-0.9,1.2-1.6,2-2.2c0.8-0.6,1.7-1,2.6-1.4c0.5-0.2,0.9-0.3,1.4-0.4c0.2-0.1,0.5-0.1,0.7-0.2l0.7-0.1
		c1.9-0.2,3.8-0.4,5.7-0.6l5.7-0.6C94.1,10.3,96,10.1,97.9,10z"/>
	<path class="st1" d="M47.1,10.6l10,1l5,0.5c0.8,0.1,1.7,0.2,2.5,0.3c0.8,0.1,1.7,0.3,2.5,0.6c0.8,0.3,1.6,0.7,2.3,1.2
		c0.7,0.5,1.3,1.2,1.7,2c0.4,0.8,0.5,1.7,0.5,2.5l0,2.5l0,5c0,0.8,0,1.7,0,2.5c0,0.8,0.1,1.7,0.1,2.5c-0.1-0.8-0.2-1.7-0.2-2.5
		c0-0.8,0-1.7,0-2.5l0-5l0-2.5c0-0.8-0.2-1.6-0.5-2.4c-0.4-0.7-0.9-1.3-1.6-1.8c-0.7-0.5-1.4-0.8-2.2-1.1c-0.8-0.3-1.6-0.5-2.4-0.6
		c-0.8-0.1-1.7-0.2-2.5-0.3l-5-0.6L47.1,10.6z"/>
	<path class="st1" d="M26.5,120.6c-0.6-1.4-0.9-2.9-1-4.5c-0.2-1.5-0.2-3.1-0.2-4.6c0.1-3,0.3-6.1,0.5-9.1c0.2-3,0.5-6.1,0.7-9.1
		c0.3-3,0.6-6.1,1-9.1c0.8-6,1.7-12.1,2.6-18.1c0.4-3,0.9-6,1.5-9c0.3-1.5,0.6-3,1-4.5c0.2-0.7,0.4-1.5,0.6-2.2
		c0.1-0.4,0.3-0.7,0.4-1.1c0.2-0.3,0.4-0.7,0.7-0.9c-0.3,0.3-0.4,0.6-0.6,1c-0.1,0.4-0.3,0.7-0.4,1.1c-0.2,0.7-0.4,1.5-0.5,2.2
		c-0.3,1.5-0.5,3-0.7,4.5c-0.4,3-0.8,6-1.2,9l-1.1,9.1l-1.2,9c-0.4,3-0.7,6-1.1,9.1c-0.3,3-0.6,6-0.9,9.1c-0.3,3-0.6,6.1-0.8,9.1
		c-0.1,1.5-0.2,3-0.1,4.5c0,0.8,0.1,1.5,0.2,2.3C26.1,119.1,26.3,119.9,26.5,120.6z"/>
	<path class="st1" d="M26.5,118.1c0.2-0.3,0.5-0.5,0.9-0.6c0.3-0.1,0.7-0.1,1.1,0c0.7,0.2,1.3,0.8,1.4,1.6c0.1,0.4,0,0.8-0.1,1.1
		c-0.2,0.3-0.4,0.6-0.7,0.8c-0.3,0.2-0.7,0.3-1.1,0.3c-0.4,0-0.7-0.1-1-0.3c0.6,0.3,1.4,0.3,1.9-0.1c0.5-0.4,0.8-1.1,0.7-1.7
		c-0.1-0.6-0.6-1.2-1.2-1.4C27.8,117.4,27,117.6,26.5,118.1z"/>
	<path class="st1" d="M26.8,118.4c0.1-0.2,0.4-0.3,0.6-0.4c0.2-0.1,0.5-0.1,0.8,0c0.5,0.1,0.9,0.6,1,1.1c0.1,0.5-0.2,1.1-0.6,1.3
		c-0.4,0.3-1,0.3-1.4,0c0.4,0.2,1,0.2,1.4-0.1c0.4-0.3,0.6-0.8,0.5-1.2c-0.1-0.5-0.4-0.9-0.9-1C27.7,118,27.1,118.1,26.8,118.4z"/>
	<path class="st1" d="M130.1,64.5c-0.1,0.3-0.4,0.5-0.6,0.6c-0.2,0.2-0.5,0.3-0.8,0.4c-0.3,0.1-0.6,0.2-0.9,0.2
		c-0.3,0.1-0.6,0.1-0.9,0.1c-1.2,0.2-2.3,0.3-3.5,0.4c-1.2,0.1-2.3,0.3-3.4,0.5c-0.3,0.1-0.6,0.1-0.8,0.2c-0.3,0.1-0.5,0.3-0.8,0.4
		c-0.5,0.3-1,0.6-1.4,1.1c0.2-0.2,0.4-0.4,0.6-0.6c0.2-0.2,0.5-0.4,0.7-0.5c0.2-0.2,0.5-0.3,0.8-0.4c0.3-0.1,0.6-0.2,0.8-0.3
		c1.1-0.3,2.3-0.4,3.5-0.6l3.5-0.4c0.3,0,0.6-0.1,0.9-0.1c0.3,0,0.6-0.1,0.8-0.2C129.2,65.3,129.7,65,130.1,64.5z"/>
	<path class="st1" d="M77.8,101.6c0.3,0.3,0.7,0.4,1.1,0.5c0.4,0,0.8,0,1.2,0c0.8,0,1.6,0,2.4,0c0.4,0,0.8,0.1,1.2,0.1
		c0.4,0.1,0.8,0.1,1.2,0.3c0.4,0.1,0.7,0.3,1.1,0.5c0.2,0.1,0.3,0.2,0.5,0.3c0.2,0.1,0.3,0.3,0.4,0.4c-0.1-0.2-0.3-0.3-0.4-0.4
		c-0.2-0.1-0.3-0.2-0.5-0.3c-0.4-0.2-0.7-0.3-1.1-0.5c-0.2-0.1-0.4-0.1-0.6-0.2c-0.2,0-0.4-0.1-0.6-0.1c-0.4,0-0.8-0.1-1.2-0.1
		c-0.8-0.1-1.6-0.1-2.4-0.1c-0.4,0-0.8,0-1.2,0c-0.2,0-0.4-0.1-0.6-0.2C78.1,101.9,77.9,101.8,77.8,101.6z"/>
	<path class="st1" d="M120.4,76.2c0.4,1.9,0.5,3.8,0.6,5.7c0.1,1.9,0.1,3.9,0,5.8c-0.1,1.9-0.2,3.9-0.3,5.8c-0.1,1-0.2,1.9-0.4,2.9
		c-0.1,0.5-0.2,1-0.3,1.4c-0.1,0.2-0.1,0.5-0.2,0.7c0,0.1-0.1,0.2-0.1,0.3c-0.1,0.1-0.1,0.2-0.2,0.3c0.1-0.1,0.2-0.2,0.2-0.3
		c0.1-0.1,0.1-0.2,0.1-0.3c0.1-0.2,0.1-0.5,0.2-0.7c0.1-0.5,0.2-0.9,0.2-1.4c0.1-1,0.2-1.9,0.3-2.9c0.1-1.9,0.2-3.8,0.3-5.8
		c0.1-1.9,0.1-3.8,0-5.8c0-1-0.1-1.9-0.1-2.9C120.7,78.1,120.6,77.1,120.4,76.2z"/>
	<path class="st1" d="M118.6,76.2c0.4,1.9,0.5,3.8,0.6,5.7c0.1,1.9,0.1,3.9,0,5.8c-0.1,1.9-0.2,3.9-0.3,5.8c-0.1,1-0.2,1.9-0.4,2.9
		c-0.1,0.5-0.2,1-0.3,1.4c-0.1,0.2-0.1,0.5-0.2,0.7c0,0.1-0.1,0.2-0.1,0.3c-0.1,0.1-0.1,0.2-0.2,0.3c0.1-0.1,0.2-0.2,0.2-0.3
		c0.1-0.1,0.1-0.2,0.1-0.3c0.1-0.2,0.1-0.5,0.2-0.7c0.1-0.5,0.2-0.9,0.2-1.4c0.1-1,0.2-1.9,0.3-2.9c0.1-1.9,0.2-3.8,0.3-5.8
		c0.1-1.9,0.1-3.8,0-5.8c0-1-0.1-1.9-0.1-2.9C118.9,78.1,118.8,77.1,118.6,76.2z"/>
	<path class="st1" d="M129.7,76.7c0.4,1.9,0.5,3.8,0.6,5.7c0.1,1.9,0.1,3.8,0,5.7c-0.1,1.9-0.2,3.8-0.3,5.7c-0.1,1-0.2,1.9-0.4,2.8
		c-0.1,0.5-0.2,0.9-0.3,1.4c-0.1,0.2-0.1,0.5-0.2,0.7c0,0.1-0.1,0.2-0.1,0.3c-0.1,0.1-0.1,0.2-0.2,0.3c0.1-0.1,0.2-0.2,0.2-0.3
		c0.1-0.1,0.1-0.2,0.1-0.3c0.1-0.2,0.1-0.5,0.2-0.7c0.1-0.5,0.2-0.9,0.2-1.4c0.1-0.9,0.2-1.9,0.3-2.8c0.1-1.9,0.2-3.8,0.3-5.7
		c0.1-1.9,0.1-3.8,0-5.7c0-1-0.1-1.9-0.1-2.9C130,78.6,129.9,77.6,129.7,76.7z"/>
</g>
</svg>
