<?xml version="1.0" encoding="utf-8"?>
<!-- Generator: Adobe Illustrator 22.0.1, SVG Export Plug-In . SVG Version: 6.00 Build 0)  -->
<svg version="1.1" id="Слой_1" xmlns="http://www.w3.org/2000/svg" xmlns:xlink="http://www.w3.org/1999/xlink" x="0px" y="0px"
	 viewBox="0 0 150 150" style="enable-background:new 0 0 150 150;" xml:space="preserve">
<style type="text/css">
	.st0{fill:#F57000;}
	.st1{fill:#FFFFFF;}
	.st2{fill:none;stroke:#FFFFFF;stroke-miterlimit:10;}
	.st3{fill:none;}
	.st4{fill:#5D5D5D;}
</style>
<g>
	<path class="st0" d="M7.7,55.9c0,0-0.9-0.5-1.5-5.5c-0.6-5-0.5-7.1,1.1-10.4c2.3-4.9,7.5-13,12.2-17.7c4.9-5,8.5-8.1,15.7-9.9
		c0,0,6.4-1,10.1,0.5c3.7,1.4,8.5,4.3,9.2,4.6c0.8,0.3,4.3,1.7,8.5,2.1c3,0.3,10.4,2.9,11.5,3.1c0,0,8,2.3,11.4,8.7
		c3,5.7,1.6,10.9,1.6,10.9s1.9,0.9,1.9,3.3c0,0,4.7,6.5,0,13.5c-0.1,0.2,0.1,1.2,0.1,1.2s3.7-5.6,4.7-8.8c1-3.2,4.8-12.8,5.9-15.1
		c0,0,4.1-9.7,7.2-8.9c0.2,0,6.9-6.1,14.4-0.5c0,0,7.4,5.4,16.9,6.6c9.5,1.2,4.5,12,4.4,12.2c-1,2.3-5.9,8.9-15.1,4.7
		c-4.1-1.9-6.7-4-10.1-4.8c-2.8-0.7-7.4-1.2-10.6-1.9c-0.4-0.1-1.6-1.3-1.8-2.4c0,0-0.5,0.7-1.1,2.5c-0.9,2.5-2.1,7.2-3.9,14.7
		c0,0,2.8,9.6-1.6,18.1c-4.7,9.1-10.8,10.5-10.8,10.7c0,3.3-1,4.2-1,4.2s-1.4,2.4-3.6,1.4c-0.1,0-1.2,1.7-3.1,4
		c-1.7,2.1-4.2,4.6-5.9,6.8c-2,2.6-3.4,4.9-3.4,4.9s5.3,0.1,8.9,4.6c3.7,4.5,17,8,17,8s5.7,2.6,3.3,8.7c-2.4,6.1-4.8,7.8-9.4,8.2
		c-5.4,0.4-11.5-6.3-13.8-6.7c0,0-7.9-4-11.1-4.1c-2.1,0-3.3-0.6-4.1-2.9c-0.5-1.5-0.7-5.1-0.7-5.1c-3-1.5,0.2-6.9,1.8-10.1
		c0,0,5.1-9.3,7-11.8c1.9-2.4,6-9.7,6.2-10.1c0.1-0.4-4.7,4.6-4.9,4.8c-0.2,0.2-4.4,5.8-6.8,3.4c-2.4-2.4,0.2-4.5,0.6-4.8
		c0.4-0.3,5.4-3.9,6.1-4.8c0.7-0.8,3.4-3.4,3.6-4.1c0.1-0.8-3.4-1.9-3.4-1.9c-1.2,1.1-6.6,5.6-10.1,4.9c-4.2-0.8-15.6-4.9-18.1-7.1
		c-1.4-1.2-2.4-2.2-3.2-4.4c0,0-6.8,4-8.1,3.1c-1.2-0.9-4.7-3.8-7.8-3.6c-0.3,0-0.4-1.7,0.4-2.3c1.6-1.2,5.7-4,5.7-4
		S18.8,63,17.5,62.4C15.9,61.7,8.3,56.9,7.7,55.9z"/>
	<path class="st1" d="M29.7,66.4c1.2,0.2,2.3,0.5,3.3,1.1c0.3,0.1,0.5,0.3,0.7,0.5c0.2,0.2,0.5,0.3,0.7,0.5c0.5,0.3,1,0.5,1.5,0.8
		c0.5,0.2,1.1,0.4,1.6,0.6c0.5,0.2,1.1,0.4,1.6,0.6c1.1,0.4,2.3,0.5,3.4,0.4c-0.6,0.1-1.2,0.1-1.8,0.1c-0.6,0-1.2-0.1-1.7-0.3
		C38,70.4,37,70,35.9,69.6c-0.5-0.2-1.1-0.5-1.6-0.8c-0.2-0.2-0.5-0.3-0.7-0.5c-0.2-0.2-0.5-0.3-0.7-0.5c-0.5-0.3-1-0.6-1.5-0.8
		C30.8,66.8,30.2,66.6,29.7,66.4z"/>
	<path class="st1" d="M23.6,71.1c0,0.1,0,0.2,0.1,0.2c0.1,0.1,0.2,0.1,0.2,0.1c0.2,0.1,0.4,0.1,0.5,0.1c0.4,0,0.7,0,1.1,0
		c0.7,0,1.5,0.3,2.1,0.7c1.3,0.7,2.5,1.6,3.6,2.5c0.1,0.1,0.3,0.2,0.4,0.3c0.2,0.1,0.3,0.1,0.5,0.1c0.4,0,0.7-0.1,1-0.3
		c0.3-0.2,0.6-0.3,1-0.5c0.3-0.2,0.6-0.4,0.9-0.6c1.2-0.8,2.5-1.6,3.8-2.3l-1.9,1.2c-0.6,0.4-1.2,0.8-1.8,1.2
		c-0.6,0.4-1.2,0.9-1.9,1.2c-0.3,0.2-0.7,0.3-1.1,0.3c-0.2,0-0.4,0-0.6-0.1c-0.2-0.1-0.3-0.2-0.5-0.3c-1.1-0.9-2.3-1.9-3.6-2.6
		c-0.6-0.3-1.3-0.6-2.1-0.7c-0.4,0-0.7,0-1.1-0.1c-0.2,0-0.4-0.1-0.5-0.1c-0.1,0-0.2-0.1-0.2-0.1C23.6,71.3,23.5,71.2,23.6,71.1z"/>
	<g>
		<path class="st0" d="M39.8,68.6c-0.1-0.6-0.2-1.8-0.1-2.3c0.1-0.4,0.4-1,1.4-1.1c1-0.1,2.6-0.3,3.4-0.1c0.3,0.1,1.3,0.3,1.3,1.2
			c-0.1,0.9,0,1.6-0.6,2c-0.6,0.4-1.3,0.8-1.8,1c-0.5,0.2-1.4,0.5-2.2,0.5C40.4,69.7,39.9,69,39.8,68.6z"/>
		<path class="st1" d="M39.8,68.6c0-0.4-0.1-0.7-0.1-1.1c0-0.4,0-0.8,0-1.1c0-0.4,0.3-0.8,0.6-1c0.3-0.2,0.7-0.3,1.1-0.3
			c0.7-0.1,1.5-0.1,2.2-0.1c0.4,0,0.8,0,1.1,0.1c0.4,0.1,0.7,0.3,1,0.6c0.1,0.2,0.2,0.4,0.2,0.5l0,0.6c0,0.4,0,0.8-0.2,1.1
			c-0.1,0.2-0.2,0.3-0.4,0.4l-0.5,0.3c-0.3,0.2-0.6,0.4-1,0.6c-0.3,0.2-0.7,0.3-1,0.4c-0.4,0.1-0.7,0.2-1.1,0.2c-0.2,0-0.4,0-0.6,0
			c-0.2,0-0.4-0.1-0.5-0.2c-0.2-0.1-0.3-0.2-0.4-0.4C39.9,69,39.8,68.9,39.8,68.6z M39.9,68.6c0,0.2,0.1,0.3,0.2,0.5
			c0.1,0.1,0.2,0.3,0.4,0.4c0.1,0.1,0.3,0.2,0.5,0.2c0.2,0,0.4,0,0.5,0c0.4,0,0.7-0.1,1.1-0.2c0.4-0.1,0.7-0.2,1-0.4
			c0.3-0.2,0.7-0.4,1-0.5c0.3-0.2,0.7-0.3,0.9-0.7c0.2-0.3,0.2-0.7,0.2-1.1l0-0.6c0-0.2-0.1-0.4-0.2-0.5c-0.2-0.3-0.6-0.5-0.9-0.6
			C44.3,65,43.9,65,43.6,65c-0.7,0-1.5,0.1-2.2,0.2c-0.4,0-0.7,0.1-1,0.3c-0.3,0.2-0.5,0.5-0.5,0.9c0,0.4,0,0.7,0,1.1
			C39.8,67.9,39.9,68.3,39.9,68.6z"/>
	</g>
	<path class="st1" d="M40.6,70.7c-0.7,0-1.4-0.3-2.1-0.6c-0.6-0.4-1.2-0.9-1.5-1.5c-0.4-0.6-0.6-1.4-0.6-2.1l-0.1-2.2
		c0-0.7-0.1-1.4-0.1-2.2c0-0.4,0-0.7,0-1.1c0-0.4,0.1-0.7,0.2-1.1c0.2-0.7,0.4-1.4,0.7-2.1c0.3-0.7,0.6-1.3,0.9-2
		c0.6-1.3,1.3-2.6,2-3.8c0.7-1.3,1.5-2.5,2.2-3.7c0.8-1.2,1.5-2.4,2.3-3.6c0.2-0.3,0.4-0.6,0.6-0.9c0.2-0.3,0.4-0.6,0.7-0.9
		c0.5-0.6,0.9-1.1,1.3-1.7c1.7-2.3,3.5-4.6,5.4-6.7c1-1.1,2-2.1,3-3.1c1-1,2.1-2,3.2-2.9c1.1-0.9,2.3-1.8,3.4-2.6
		c1.2-0.8,2.4-1.6,3.7-2.2c0.7-0.3,1.4-0.5,2.1-0.7c0.7-0.2,1.4-0.2,2.2-0.3c0.7,0,1.4,0,2.2,0c0.4,0,0.7,0,1.1,0c0.2,0,0.4,0,0.5,0
		c0.2,0,0.4,0,0.5,0.1c-0.2-0.1-0.3-0.1-0.5-0.1c-0.2,0-0.4,0-0.5,0c-0.4,0-0.7,0-1.1,0c-0.7,0-1.4,0-2.2,0.1
		c-0.7,0.1-1.4,0.2-2.1,0.3c-0.7,0.2-1.4,0.4-2,0.7c-1.3,0.6-2.5,1.4-3.6,2.3c-1.2,0.9-2.3,1.7-3.4,2.7c-2.2,1.9-4.2,3.9-6.1,6
		c-1.9,2.1-3.6,4.4-5.4,6.7c-0.4,0.6-0.9,1.1-1.3,1.7c-0.2,0.3-0.4,0.6-0.6,0.8c-0.2,0.3-0.4,0.6-0.6,0.9c-0.8,1.2-1.6,2.4-2.3,3.6
		c-0.8,1.2-1.5,2.4-2.2,3.7c-0.7,1.3-1.4,2.5-2.1,3.8c-0.3,0.6-0.6,1.3-0.9,1.9c-0.3,0.7-0.5,1.3-0.7,2c-0.1,0.3-0.1,0.7-0.2,1
		c0,0.4-0.1,0.7-0.1,1.1c0,0.7,0.1,1.4,0.1,2.2l0.1,2.2c0,0.7,0.2,1.4,0.5,2c0.3,0.6,0.8,1.2,1.5,1.5C39.2,70.4,39.9,70.6,40.6,70.7
		z"/>
	<path class="st1" d="M15.6,35l-1.2,2.9c-0.4,1-0.8,1.9-1.2,2.9C13.1,41,13,41.3,13,41.5c0,0.1,0,0.1-0.1,0.2c0,0.1,0,0.1-0.1,0.2
		l-0.1,0.4c-0.1,0.5-0.3,1-0.4,1.5c-0.1,0.5-0.2,1-0.3,1.5c0,0.3-0.1,0.5-0.1,0.8c0,0.2,0,0.5,0.1,0.7l0,0c0.4,0.8,0.9,1.6,1.5,2.4
		c0.6,0.7,1.2,1.5,1.9,2.1c0.7,0.6,1.4,1.2,2.2,1.8c0.4,0.3,0.8,0.5,1.2,0.7c0.2,0.1,0.4,0.2,0.6,0.3c0.2,0.1,0.4,0.2,0.6,0.2
		c0.9,0.3,1.8,0.4,2.8,0.4c0.9,0.1,1.9,0.1,2.8,0.1c0.9,0,1.9-0.1,2.8-0.1c0.5,0,0.9-0.1,1.4-0.2c0.1,0,0.2,0,0.3-0.1
		c0.1,0,0.2-0.1,0.3-0.1c0.2-0.1,0.4-0.2,0.6-0.3c1.7-0.9,3.1-2.1,4.4-3.5c0.6-0.7,1.2-1.4,1.8-2.2c0.6-0.7,1.2-1.5,1.7-2.3
		c1.1-1.5,2.2-3.1,3.2-4.7l0,0c0,0,0,0,0,0c0,0,0,0,0,0c0,0,0,0,0,0c0,0,0.1,0,0.1-0.1c0.1,0,0.1-0.1,0.2-0.1c0.1,0,0.2-0.1,0.3-0.1
		c0.2-0.1,0.5-0.1,0.7-0.2c0.5-0.1,0.9-0.2,1.4-0.3c0.9-0.2,1.9-0.4,2.8-0.5c-0.9,0.2-1.9,0.4-2.8,0.6c-0.5,0.1-0.9,0.2-1.4,0.4
		c-0.2,0.1-0.5,0.1-0.7,0.2c-0.1,0-0.2,0.1-0.3,0.1c-0.1,0-0.1,0-0.2,0.1c0,0,0,0-0.1,0c0,0,0,0,0,0c0,0,0,0,0,0c0,0,0,0,0,0l0,0
		c-1,1.6-2,3.2-3.1,4.8c-0.6,0.8-1.1,1.5-1.7,2.3c-0.6,0.8-1.2,1.5-1.8,2.2c-1.3,1.4-2.7,2.7-4.5,3.6c-0.2,0.1-0.4,0.2-0.7,0.3
		c-0.1,0-0.2,0.1-0.3,0.1l0,0c0,0,0,0-0.1,0c0,0-0.1,0-0.1,0c-0.1,0-0.1,0-0.2,0c-0.5,0.1-1,0.1-1.4,0.2c-1,0.1-1.9,0.1-2.9,0.1
		c-1,0-1.9,0-2.9-0.1c-1-0.1-1.9-0.2-2.9-0.5c-0.2-0.1-0.5-0.2-0.7-0.3c-0.2-0.1-0.4-0.2-0.6-0.3c-0.4-0.2-0.8-0.5-1.2-0.8
		c-0.8-0.5-1.5-1.2-2.2-1.8c-0.7-0.7-1.3-1.4-1.9-2.2c-0.6-0.8-1.1-1.6-1.5-2.5l0,0l0,0c-0.1-0.3-0.1-0.6-0.1-0.8
		c0-0.3,0-0.5,0.1-0.8c0.1-0.5,0.2-1,0.3-1.5c0.1-0.5,0.3-1,0.4-1.5l0.1-0.4c0-0.1,0-0.1,0.1-0.2c0-0.1,0-0.1,0.1-0.2
		c0.1-0.2,0.2-0.5,0.3-0.7c0.4-1,0.8-1.9,1.3-2.9C14.7,36.9,15.2,35.9,15.6,35z"/>
	<path class="st1" d="M16.5,30.3c-0.2,0.4-0.3,0.7-0.5,1.1c-0.2,0.4-0.3,0.7-0.5,1.1c-0.1,0.2-0.1,0.4-0.2,0.6
		c-0.1,0.2-0.1,0.4-0.1,0.6c0,0,0,0.1,0,0.1c0,0,0,0,0,0.1c0,0,0,0,0,0.1c0,0.1,0.1,0.2,0.2,0.2c0.1,0.2,0.3,0.3,0.4,0.4
		c0.6,0.6,1.2,1,1.9,1.5c0.7,0.5,1.3,0.9,2.1,1.2c1.4,0.7,2.9,1.3,4.5,1.7c0.8,0.2,1.5,0.4,2.3,0.6c0.8,0.2,1.6,0.4,2.4,0.5
		c0.2,0,0.4,0.1,0.6,0l0.6,0l1.2,0l2.4-0.1l4.8-0.1l4.8-0.1l2.4-0.1l1.2,0l0.6,0c0.2,0,0.4,0,0.6-0.1c-0.2,0.1-0.4,0.1-0.6,0.1
		L47,39.8l-1.2,0.1l-2.4,0.2c-1.6,0.1-3.2,0.2-4.8,0.3c-1.6,0.1-3.2,0.1-4.8,0.2l-2.4,0.1l-1.2,0l-0.6,0c-0.2,0-0.4,0-0.6-0.1
		c-0.8-0.1-1.6-0.3-2.4-0.5c-0.8-0.2-1.6-0.4-2.3-0.7c-1.5-0.5-3.1-1.1-4.5-1.8c-0.7-0.4-1.4-0.8-2.1-1.3c-0.7-0.5-1.3-1-1.9-1.6
		c-0.1-0.1-0.3-0.3-0.4-0.5c-0.1-0.1-0.1-0.2-0.2-0.3c0,0,0,0,0-0.1c0,0,0-0.1,0-0.1c0-0.1,0-0.1,0-0.2c0-0.2,0.1-0.4,0.2-0.6
		c0.1-0.2,0.2-0.4,0.2-0.6C15.7,31.7,16.1,31,16.5,30.3z"/>
	<path class="st1" d="M45.8,66.3c0.2-0.4,0.4-0.9,0.6-1.3c0.2-0.5,0.4-0.9,0.6-1.3c0.4-0.9,0.9-1.7,1.4-2.5c0.3-0.4,0.5-0.8,0.8-1.2
		c0.3-0.4,0.5-0.8,0.8-1.2c0.5-0.8,1.1-1.6,1.7-2.4c0.6-0.8,1.1-1.6,1.7-2.4c0.6-0.8,1.2-1.6,1.8-2.3c0.6-0.7,1.3-1.4,2-2.1
		c0.7-0.7,1.5-1.3,2.2-1.9c1.5-1.3,3-2.4,4.6-3.5C65.6,43,67.3,42,69,41c0.8-0.5,1.7-0.9,2.6-1.4c0.9-0.4,1.7-0.9,2.6-1.3
		c0.4-0.2,0.9-0.4,1.3-0.6c0.5-0.2,0.9-0.3,1.4-0.3c0.5,0,1,0,1.4,0.2c0.5,0.1,0.9,0.4,1.3,0.7c-0.4-0.3-0.8-0.5-1.3-0.7
		c-0.5-0.1-0.9-0.2-1.4-0.1c-0.5,0-0.9,0.2-1.4,0.4c-0.4,0.2-0.9,0.4-1.3,0.6c-1.7,0.9-3.4,1.8-5.1,2.8c-1.7,1-3.3,2-4.9,3.1
		c-1.6,1.1-3.1,2.3-4.6,3.5c-0.7,0.6-1.5,1.2-2.2,1.9c-0.7,0.6-1.4,1.3-2,2.1c-0.6,0.7-1.2,1.5-1.8,2.3c-0.6,0.8-1.2,1.6-1.7,2.3
		c-0.6,0.8-1.1,1.6-1.7,2.4c-0.3,0.4-0.5,0.8-0.8,1.2c-0.3,0.4-0.5,0.8-0.8,1.2c-0.5,0.8-1,1.6-1.5,2.5c-0.2,0.4-0.4,0.9-0.6,1.3
		C46.2,65.4,46,65.8,45.8,66.3L45.8,66.3z"/>
	<path class="st1" d="M43.2,70.4l0.5-0.8c0.2-0.3,0.4-0.5,0.6-0.8l0,0c-0.2,0.3-0.3,0.6-0.5,0.8C43.6,69.9,43.4,70.1,43.2,70.4z"/>
	<path class="st1" d="M6.9,40.4c-0.3,1.2-0.4,2.3-0.5,3.5c-0.1,1.2-0.1,2.4,0,3.6c0.1,1.2,0.3,2.4,0.7,3.5c0.3,1.1,0.8,2.2,1.4,3.2
		c0.3,0.5,0.7,1,1.1,1.4c0.1,0.1,0.2,0.2,0.3,0.3c0.1,0.1,0.2,0.2,0.3,0.3c0.2,0.2,0.4,0.4,0.7,0.6c0.9,0.8,1.8,1.5,2.8,2.2
		c0.2,0.2,0.5,0.3,0.7,0.5c0.2,0.1,0.5,0.3,0.8,0.4c0.5,0.3,1,0.6,1.6,0.8c1.1,0.5,2.2,0.9,3.3,1.2c2.3,0.6,4.7,0.7,7,0.6
		c2.4-0.2,4.7-0.7,6.9-1.4c0.6-0.2,1.1-0.4,1.7-0.5c0.5-0.2,1.1-0.4,1.7-0.6c1.1-0.4,2.2-0.9,3.3-1.3c2.2-0.9,4.4-1.9,6.5-3
		c4.3-2,7.7-5.5,10.8-9c0.4-0.4,0.8-0.9,1.2-1.4l0.6-0.7l0.3-0.3l0.1-0.1c0,0,0.1-0.1,0.1-0.1l0.2-0.2c0.8-0.9,1.7-1.7,2.5-2.6
		c1.7-1.7,3.4-3.3,5.1-5c0.9-0.8,1.8-1.6,2.7-2.3c0.5-0.4,0.9-0.7,1.4-1.1c0.2-0.2,0.5-0.3,0.8-0.5c0.3-0.2,0.5-0.3,0.8-0.4
		c1.1-0.5,2.2-1,3.4-1.2c1.2-0.3,2.4-0.4,3.6-0.2c0.6,0.1,1.2,0.3,1.7,0.5c0.5,0.3,1,0.6,1.5,1c0.4,0.4,0.8,0.9,1.1,1.4
		c0.3,0.5,0.6,1,0.8,1.6c0.5,1.1,0.8,2.3,0.9,3.4c0.1,0.6,0.1,1.2,0.1,1.8c0,0.6-0.1,1.2-0.2,1.8c0.1-0.6,0.2-1.2,0.2-1.8
		c0-0.6,0-1.2-0.1-1.8c-0.2-1.2-0.5-2.3-1-3.4c-0.5-1.1-1.1-2.1-2-2.9c-0.4-0.4-0.9-0.7-1.5-1c-0.5-0.2-1.1-0.4-1.7-0.5
		c-1.2-0.2-2.3,0-3.5,0.3c-1.1,0.3-2.2,0.7-3.3,1.2c-0.3,0.1-0.5,0.3-0.8,0.4c-0.2,0.1-0.5,0.3-0.7,0.5c-0.5,0.3-0.9,0.7-1.4,1.1
		c-0.9,0.8-1.8,1.5-2.7,2.4c-1.7,1.6-3.4,3.3-5.1,5c-0.8,0.8-1.7,1.7-2.5,2.6l-0.1,0.2c0,0,0,0.1-0.1,0.1l-0.1,0.1L60,44.8l-0.6,0.7
		c-0.4,0.5-0.8,0.9-1.2,1.4c-1.6,1.8-3.2,3.5-5,5.1c-0.9,0.8-1.8,1.6-2.8,2.2c-1,0.7-2.1,1.2-3.1,1.8c-2.1,1.1-4.3,2.1-6.5,3
		c-1.1,0.5-2.2,0.9-3.3,1.3c-0.6,0.2-1.1,0.4-1.7,0.6c-0.6,0.2-1.1,0.4-1.7,0.5c-2.3,0.7-4.6,1.2-7,1.4c-1.2,0.1-2.4,0.1-3.6,0
		c-1.2-0.1-2.4-0.3-3.5-0.6c-1.2-0.3-2.3-0.7-3.4-1.3c-0.5-0.3-1.1-0.5-1.6-0.8c-0.3-0.1-0.5-0.3-0.8-0.4c-0.3-0.2-0.5-0.3-0.7-0.5
		c-1-0.7-1.9-1.4-2.8-2.2c-0.2-0.2-0.5-0.4-0.7-0.6c-0.1-0.1-0.2-0.2-0.3-0.3c-0.1-0.1-0.2-0.2-0.3-0.3c-0.4-0.5-0.7-0.9-1.1-1.5
		c-0.6-1-1.1-2.1-1.4-3.3c-0.3-1.2-0.5-2.3-0.6-3.5c-0.1-1.2-0.1-2.4,0-3.6C6.4,42.8,6.6,41.6,6.9,40.4z"/>
	<g>
		<path class="st0" d="M60.3,44.3c-0.8,0-3.8-2.2-4.8-4.6c-0.1-0.2,2.3-3.1,2.5-3.1c2.1,0.5,5.2,2.9,5.3,4.1
			C63.5,42.4,62,44.4,60.3,44.3z"/>
		<path class="st1" d="M60.3,44.3c-0.2,0-0.5-0.1-0.7-0.2c-0.2-0.1-0.4-0.2-0.6-0.4c-0.4-0.3-0.8-0.6-1.1-0.9
			c-0.7-0.6-1.4-1.3-1.9-2.2c-0.1-0.2-0.2-0.4-0.3-0.6c0-0.1-0.1-0.2-0.1-0.3l0,0c0,0,0,0,0,0l0,0c0,0,0,0,0,0c0,0,0,0,0-0.1
			c0,0,0-0.1,0-0.1c0-0.1,0.1-0.1,0.1-0.2c0.3-0.4,0.6-0.8,0.9-1.2c0.3-0.4,0.6-0.7,0.9-1.1c0.1-0.1,0.2-0.2,0.2-0.3l0.1-0.1
			l0.1-0.1c0,0,0,0,0.1-0.1c0,0,0,0,0,0c0,0,0,0,0,0l0,0l0,0l0.1,0l0.2,0.1c0.1,0,0.2,0.1,0.3,0.1c0.9,0.4,1.7,0.8,2.5,1.4
			c0.4,0.3,0.8,0.6,1.1,0.9c0.3,0.3,0.7,0.7,0.9,1.1c0.1,0.1,0.1,0.2,0.1,0.3c0,0.1,0,0.2,0,0.4c0,0.2,0,0.5-0.1,0.7
			c-0.1,0.5-0.3,0.9-0.6,1.3c-0.3,0.4-0.6,0.7-1,1C61.3,44.2,60.8,44.3,60.3,44.3L60.3,44.3z M60.3,44.2c0.5,0,0.9-0.1,1.3-0.4
			c0.4-0.2,0.7-0.6,1-1c0.3-0.4,0.5-0.8,0.6-1.3c0.1-0.2,0.1-0.5,0.1-0.7c0-0.1,0-0.2,0-0.3c0-0.1-0.1-0.2-0.1-0.3
			c-0.2-0.4-0.6-0.8-0.9-1.1c-0.3-0.3-0.7-0.6-1.1-0.9c-0.8-0.5-1.6-1-2.5-1.4c-0.1,0-0.2-0.1-0.3-0.1l-0.2-0.1l-0.1,0l0,0l0,0
			c0,0,0,0,0,0c0,0,0,0,0,0c0,0,0,0-0.1,0l-0.1,0.1l-0.1,0.1c-0.1,0.1-0.2,0.2-0.2,0.3c-0.3,0.4-0.6,0.7-0.9,1.1
			c-0.3,0.4-0.6,0.7-0.9,1.1c0,0-0.1,0.1-0.1,0.1c0,0,0,0.1,0,0.1c0,0,0,0,0,0c0,0,0,0,0,0c0,0,0,0,0,0c0,0,0,0,0,0l0,0
			c0,0.1,0.1,0.2,0.1,0.3c0.1,0.2,0.2,0.4,0.3,0.6c0.5,0.8,1.1,1.5,1.8,2.2c0.4,0.3,0.7,0.6,1.1,0.9c0.2,0.1,0.4,0.3,0.6,0.4
			C59.9,44.1,60.1,44.2,60.3,44.2L60.3,44.2z"/>
	</g>
	<path class="st1" d="M43.1,66c-0.3-0.4-0.8-0.6-1.3-0.6c-0.5,0-1,0.2-1.3,0.6c-0.3,0.4-0.5,0.9-0.5,1.4c0,0.5,0.2,1,0.5,1.4
		c0.3,0.4,0.8,0.6,1.3,0.6c0.5,0,0.9-0.2,1.2-0.6c0.3-0.4,0.5-0.8,0.5-1.3C43.6,66.9,43.5,66.4,43.1,66z"/>
	<path class="st0" d="M42.5,66.9c-0.1,0-0.2,0.1-0.3,0.2c0,0,0,0-0.1,0c0-0.1,0-0.2,0.1-0.3c0,0,0-0.1,0-0.1c0-0.2-0.2-0.3-0.4-0.3
		c-0.2,0-0.4,0.2-0.4,0.3c0,0,0,0.1,0,0.1c0,0.1,0,0.2,0.1,0.3c0,0,0,0-0.1,0c-0.1-0.1-0.2-0.2-0.3-0.2c-0.2,0-0.3,0.2-0.3,0.5
		c0,0.3,0.1,0.5,0.3,0.5c0.1,0,0.2-0.1,0.3-0.2c0,0,0,0,0.1,0c0,0.2,0,0.3,0,0.3c0,0,0,0.1,0,0.1c0,0.2,0.2,0.3,0.4,0.3
		c0.2,0,0.4-0.2,0.4-0.3c0,0,0-0.1,0-0.1c0,0,0-0.1,0-0.3c0,0,0,0,0.1,0c0.1,0.1,0.2,0.2,0.3,0.2c0.2,0,0.3-0.2,0.3-0.5
		C42.9,67.1,42.7,66.9,42.5,66.9z"/>
	<path class="st1" d="M99.5,61.6c0,0.5-0.1,1-0.4,1.3c-0.2,0.2-0.4,0.4-0.6,0.5c-0.1-0.3-0.1-0.6-0.2-0.8c-0.1-0.6-0.2-1.2-0.2-1.7
		c0-0.1,0-0.3,0-0.4c0-0.4,0-0.7,0.1-0.9c0.3,0,0.7,0.3,0.9,0.6C99.4,60.6,99.5,61.1,99.5,61.6z"/>
	<path class="st0" d="M98.9,61.6c0,0.3-0.1,0.5-0.3,0.5c-0.1,0-0.2-0.1-0.2-0.2c0,0,0,0-0.1,0c0,0.2,0,0.3,0,0.3c0,0,0,0.1,0,0.1
		c0,0.1-0.1,0.2-0.2,0.3c-0.1-0.6-0.2-1.2-0.2-1.7c0-0.1,0-0.3,0-0.4c0,0,0,0,0,0c0.2,0,0.3,0.2,0.3,0.3c0,0,0,0.1,0,0.1
		c0,0.1,0,0.2,0,0.3c0,0,0,0,0.1,0c0-0.1,0.1-0.2,0.2-0.2C98.8,61.1,98.9,61.4,98.9,61.6z"/>
	<path class="st1" d="M59.5,38.6c-0.3-0.4-0.8-0.6-1.3-0.6c-0.5,0-1,0.2-1.3,0.6c-0.3,0.4-0.5,0.9-0.5,1.4c0,0.5,0.2,1,0.5,1.4
		c0.3,0.4,0.8,0.6,1.3,0.5c0.5,0,0.9-0.2,1.2-0.6c0.3-0.4,0.5-0.8,0.5-1.3C60,39.5,59.9,39,59.5,38.6z"/>
	<path class="st0" d="M58.9,39.5c-0.1,0-0.2,0.1-0.3,0.2c0,0,0,0-0.1,0c0-0.1,0-0.2,0.1-0.3c0,0,0-0.1,0-0.1c0-0.2-0.2-0.3-0.4-0.3
		s-0.4,0.2-0.4,0.3c0,0,0,0.1,0,0.1c0,0.1,0,0.2,0.1,0.3c0,0,0,0-0.1,0c-0.1-0.1-0.2-0.2-0.3-0.2c-0.2,0-0.3,0.2-0.3,0.5
		c0,0.3,0.1,0.5,0.3,0.5c0.1,0,0.2-0.1,0.3-0.2c0,0,0,0,0.1,0c0,0.2,0,0.3,0,0.3c0,0,0,0.1,0,0.1c0,0.2,0.2,0.3,0.4,0.3
		s0.4-0.2,0.4-0.3c0,0,0-0.1,0-0.1c0,0,0-0.1,0-0.3c0,0,0,0,0.1,0c0.1,0.1,0.2,0.2,0.3,0.2c0.2,0,0.3-0.2,0.3-0.5
		C59.3,39.7,59.1,39.5,58.9,39.5z"/>
	<g>
		<path class="st0" d="M83.9,32.5c-0.2,0.4-1,0.9-1.4,0.9c-0.5,0-1-2.1-1-2.2c0-0.1-0.1-0.4-0.1-0.4s-0.1-0.2-0.3-0.6
			c-0.1-0.2-0.2-0.4-0.3-0.7c-0.1-0.4-0.3-0.8-0.4-1.2c-0.1-0.5-0.3-0.9-0.3-1.3c0-0.5,0.1-0.6,0.5-0.6c1.5,0.2,3,4,3.1,4.1
			C83.7,30.8,84.1,32.1,83.9,32.5z"/>
		<path class="st1" d="M83.9,32.5c-0.1,0.2-0.2,0.3-0.3,0.4c-0.1,0.1-0.3,0.2-0.4,0.3c-0.2,0.1-0.3,0.1-0.5,0.2c0,0-0.1,0-0.1,0
			c0,0-0.1,0-0.1,0c-0.1,0-0.1-0.1-0.2-0.2c-0.2-0.3-0.3-0.6-0.4-1c-0.1-0.3-0.2-0.7-0.3-1c0-0.2-0.1-0.3-0.2-0.5
			c-0.1-0.2-0.2-0.3-0.2-0.5c-0.1-0.3-0.3-0.6-0.4-1c-0.1-0.3-0.2-0.7-0.3-1c-0.1-0.3-0.2-0.7-0.2-1c0-0.2,0-0.4,0-0.5
			c0-0.1,0.1-0.2,0.2-0.3c0.1-0.1,0.2-0.1,0.3-0.1c0.4,0,0.7,0.2,1,0.5c0.5,0.5,0.9,1.1,1.3,1.7c0.3,0.6,0.6,1.2,0.9,1.9
			c0,0,0,0.1,0,0.1c0,0,0,0.1,0,0.1l0.1,0.3c0,0.2,0.1,0.3,0.1,0.5c0,0.2,0.1,0.3,0.1,0.5C84,32.2,84,32.4,83.9,32.5L83.9,32.5
			L83.9,32.5z M83.9,32.5c0.1-0.2,0-0.3,0-0.5c0-0.2,0-0.3-0.1-0.5c0-0.2-0.1-0.3-0.1-0.5l-0.1-0.3c0,0,0-0.1,0-0.1c0,0,0-0.1,0-0.1
			c-0.3-0.6-0.6-1.3-0.9-1.9c-0.4-0.6-0.8-1.2-1.3-1.6c-0.3-0.2-0.6-0.4-0.9-0.4c-0.1,0-0.2,0-0.2,0c-0.1,0-0.1,0.1-0.1,0.2
			c0,0.2,0,0.3,0,0.5c0,0.3,0.1,0.7,0.2,1c0.1,0.3,0.2,0.7,0.3,1c0.1,0.3,0.3,0.6,0.4,1l0.2,0.5c0.1,0.2,0.2,0.3,0.2,0.5
			c0.1,0.3,0.2,0.7,0.3,1c0.1,0.3,0.2,0.7,0.4,0.9c0,0.1,0.1,0.1,0.2,0.2c0.1,0,0.2,0,0.2,0c0.2,0,0.3-0.1,0.5-0.2
			c0.2-0.1,0.3-0.2,0.4-0.3C83.7,32.8,83.8,32.7,83.9,32.5z"/>
	</g>
	<path class="st1" d="M82.1,28.6c0,0.4-0.1,0.8-0.4,1.1c-0.2,0.2-0.4,0.4-0.6,0.4c-0.1-0.2-0.2-0.4-0.3-0.7
		c-0.1-0.4-0.3-0.8-0.4-1.2c-0.1-0.5-0.3-0.9-0.3-1.3c0.2-0.1,0.4-0.2,0.6-0.2c0.4,0,0.8,0.2,1,0.5C82,27.8,82.1,28.2,82.1,28.6z"/>
	<path class="st0" d="M81.5,28.6c0,0.2-0.1,0.4-0.3,0.4c-0.1,0-0.2-0.1-0.2-0.2c0,0,0,0-0.1,0c0,0.2,0,0.3,0,0.3c0,0,0,0.1,0,0.1
		c0,0.1-0.1,0.3-0.3,0.3c-0.1-0.4-0.3-0.8-0.4-1.2c0,0,0,0,0,0c0,0,0,0,0.1,0c0-0.1,0-0.2,0-0.3c0,0,0-0.1,0-0.1
		c0-0.2,0.2-0.3,0.3-0.3c0.2,0,0.3,0.1,0.3,0.3c0,0,0,0.1,0,0.1c0,0.1,0,0.2,0,0.3c0,0,0,0,0.1,0c0-0.1,0.1-0.2,0.2-0.2
		C81.4,28.2,81.5,28.4,81.5,28.6z"/>
	<path class="st1" d="M15.8,33.9l2.3-3.8l2.3-3.8c0.4-0.6,0.7-1.3,1.1-1.9c0.4-0.6,0.8-1.3,1.3-1.8c0.5-0.6,1-1.1,1.5-1.6
		c0.6-0.5,1.2-0.9,1.9-1.2c-0.7,0.3-1.3,0.7-1.9,1.2c-0.6,0.5-1,1.1-1.5,1.6c-0.5,0.6-0.9,1.2-1.3,1.8c-0.4,0.6-0.8,1.3-1.1,1.9
		c-0.8,1.3-1.5,2.6-2.3,3.8L17,32L15.8,33.9z"/>
	<path class="st1" d="M32.4,39.9l2.9-1.5c1-0.5,1.9-0.9,2.9-1.4c1-0.5,2-0.9,2.9-1.4c1-0.4,2-0.9,3-1.3c0.3-0.1,0.5-0.2,0.8-0.2
		c0.3-0.1,0.5-0.1,0.8-0.2c0.5-0.1,1-0.3,1.6-0.4c1-0.3,2.1-0.6,3.1-0.9c1-0.3,2.1-0.6,3.1-1c0.5-0.2,1-0.4,1.5-0.6
		c0.2-0.1,0.5-0.2,0.7-0.3c0.2-0.1,0.5-0.2,0.7-0.4c-0.2,0.2-0.4,0.3-0.7,0.4c-0.2,0.1-0.5,0.2-0.7,0.3c-0.5,0.2-1,0.4-1.5,0.6
		c-1,0.4-2,0.7-3.1,1c-1,0.3-2.1,0.6-3.1,0.9c-0.5,0.1-1,0.3-1.6,0.4c-0.3,0.1-0.5,0.1-0.8,0.2c-0.3,0.1-0.5,0.1-0.8,0.2
		c-1,0.4-2,0.8-3,1.2c-1,0.4-2,0.9-2.9,1.4c-1,0.5-2,0.9-2.9,1.4L32.4,39.9z"/>
	<path class="st1" d="M26.2,20.1c-0.3,0.2-0.6,0.5-0.9,0.7c-0.3,0.2-0.6,0.5-0.9,0.8c-0.3,0.3-0.5,0.6-0.8,0.9
		c-0.2,0.3-0.4,0.6-0.6,1c-0.1,0.3-0.2,0.7-0.1,1c0.1,0.3,0.3,0.6,0.6,0.8c0.6,0.5,1.2,0.9,1.9,1.3c1.3,0.8,2.7,1.4,4.1,2.1
		c1.4,0.6,2.8,1.2,4.3,1.8c1.4,0.5,2.9,1,4.4,1.4c0.4,0.1,0.7,0.2,1.1,0.2c0.4,0.1,0.8,0.1,1.1,0.2l2.3,0.4c0.8,0.1,1.5,0.2,2.3,0.2
		c0.8,0,1.5,0,2.3-0.1c1.5-0.2,3-0.5,4.5-1c-0.7,0.3-1.5,0.5-2.2,0.7c-0.7,0.2-1.5,0.4-2.3,0.5C46.6,33,45.8,33,45,33
		c-0.8,0-1.6-0.1-2.3-0.2c-0.8-0.1-1.5-0.2-2.3-0.3c-0.4-0.1-0.8-0.1-1.1-0.1c-0.4,0-0.8-0.1-1.2-0.2c-1.5-0.3-3-0.8-4.5-1.4
		c-1.4-0.5-2.9-1.1-4.3-1.8c-1.4-0.7-2.8-1.4-4.1-2.2c-0.7-0.4-1.3-0.8-1.9-1.3c-0.3-0.3-0.6-0.6-0.7-1c-0.1-0.4,0-0.8,0.2-1.2
		c0.2-0.4,0.4-0.7,0.6-1c0.3-0.3,0.5-0.6,0.8-0.8C24.9,21,25.5,20.5,26.2,20.1z"/>
	<path class="st1" d="M33.8,30c-1-0.4-2.1-0.8-3.1-1.3c-1-0.4-2-0.9-3-1.4c-0.3-0.1-0.5-0.2-0.8-0.4l-0.4-0.2
		c-0.1-0.1-0.3-0.1-0.4-0.2c-0.2-0.2-0.5-0.4-0.6-0.6c-0.2-0.3-0.2-0.6-0.2-0.9c0-0.6,0.3-1.2,0.6-1.6c0.3-0.5,0.8-0.9,1.2-1.2
		l5.2-4.2c0.4-0.4,0.9-0.7,1.3-1.1l0.1-0.1c0,0,0,0,0,0c0,0,0.1,0,0.1-0.1c0.1,0,0.1-0.1,0.2-0.1c0.1-0.1,0.2-0.2,0.4-0.2
		c0.2-0.1,0.5-0.3,0.7-0.4c1-0.6,2-1.1,3-1.5c1-0.4,2.1-0.8,3.2-1.1c1.1-0.3,2.2-0.4,3.4-0.3c0.6,0.1,1.1,0.2,1.7,0.4
		c0.3,0.1,0.5,0.2,0.8,0.4l0.7,0.4c0.5,0.3,1,0.5,1.5,0.8c0.2,0.1,0.5,0.3,0.7,0.4c0.1,0.1,0.2,0.1,0.4,0.2c0.1,0.1,0.2,0.2,0.4,0.3
		c0.1,0.1,0.1,0.1,0.2,0.2c0,0.1,0.1,0.1,0.1,0.2l0.3,0.3c0.2,0.2,0.3,0.4,0.5,0.6c0.4,0.4,0.7,0.8,1.1,1.2c0.8,0.8,1.7,1.5,2.7,1.9
		c1,0.4,2.1,0.8,3.1,1.2c0.5,0.2,1,0.4,1.6,0.6c0.3,0.1,0.5,0.2,0.8,0.3c0.3,0.1,0.5,0.2,0.8,0.2c-0.3,0-0.5-0.1-0.8-0.2
		c-0.3-0.1-0.5-0.2-0.8-0.2c-0.5-0.2-1.1-0.4-1.6-0.6c-1-0.4-2.1-0.8-3.1-1.1c-1.1-0.4-2-1.1-2.8-1.9c-0.4-0.4-0.8-0.8-1.2-1.2
		c-0.2-0.2-0.4-0.4-0.5-0.6l-0.3-0.3c-0.1-0.1-0.1-0.1-0.1-0.2c0-0.1-0.1-0.1-0.1-0.1c-0.2-0.2-0.4-0.3-0.7-0.4
		c-0.2-0.1-0.5-0.3-0.7-0.4c-0.5-0.3-1-0.5-1.5-0.7l-0.7-0.4c-0.3-0.1-0.5-0.3-0.7-0.3c-0.5-0.2-1-0.3-1.6-0.4
		c-1.1-0.1-2.2,0-3.2,0.3c-1.1,0.3-2.1,0.6-3.1,1c-1,0.4-2,0.9-3,1.5c-0.2,0.1-0.5,0.3-0.7,0.4c-0.1,0.1-0.2,0.1-0.3,0.2
		c-0.1,0-0.1,0.1-0.2,0.1c0,0,0,0,0,0c0,0,0,0,0,0l-0.1,0.1c-0.4,0.4-0.9,0.7-1.3,1.1l-2.6,2.1c-0.9,0.7-1.7,1.4-2.6,2.1
		c-0.4,0.3-0.8,0.7-1.2,1.1c-0.3,0.4-0.6,0.9-0.6,1.4c0,0.3,0.1,0.5,0.2,0.7c0.1,0.2,0.3,0.4,0.5,0.6c0.1,0.1,0.2,0.1,0.3,0.2
		l0.4,0.2l0.7,0.4C29.7,28.1,31.7,29.1,33.8,30z"/>
	<path class="st1" d="M51.1,31.4c0.6-1,1.4-1.9,2.1-2.8c0.8-0.9,1.6-1.7,2.5-2.5c0.5-0.4,0.9-0.8,1.4-1.1c0.5-0.3,1-0.7,1.5-0.9
		c0.5-0.3,1.1-0.5,1.7-0.7c0.6-0.2,1.2-0.3,1.8-0.3c-1.2,0.2-2.2,0.7-3.2,1.3c-0.5,0.3-1,0.6-1.4,1c-0.5,0.3-0.9,0.7-1.4,1.1
		c-0.4,0.4-0.9,0.8-1.3,1.2c-0.4,0.4-0.8,0.8-1.3,1.2C52.7,29.7,51.9,30.6,51.1,31.4z"/>
	<path class="st1" d="M30.7,28.2c0.6-1.3,1.4-2.4,2.3-3.6c0.9-1.1,1.8-2.2,2.8-3.2c1-1,2.1-1.9,3.3-2.7c1.2-0.8,2.5-1.4,3.9-1.7
		c1.4-0.3,2.9-0.4,4.2,0c1.4,0.4,2.6,1.2,3.6,2.2c0.5,0.5,1,1,1.4,1.6c0.4,0.6,0.8,1.2,1.1,1.8c0.6,1.3,0.9,2.7,1.2,4.1
		c-0.3-1.4-0.7-2.8-1.2-4c-0.3-0.6-0.6-1.2-1.1-1.8c-0.4-0.6-0.9-1.1-1.4-1.6c-1-1-2.2-1.8-3.6-2.1c-1.3-0.4-2.8-0.4-4.1,0
		c-1.4,0.3-2.6,1-3.8,1.7c-1.2,0.8-2.3,1.7-3.3,2.6c-1,1-2,2-2.8,3.1C32.2,25.8,31.4,27,30.7,28.2z"/>
	<path class="st1" d="M31.5,28.9c1.2-2.4,2.8-4.5,4.7-6.4c1-0.9,2-1.8,3.1-2.5c1.1-0.7,2.3-1.4,3.6-1.7c1.3-0.4,2.7-0.5,4-0.2
		c1.3,0.3,2.5,1,3.5,1.9c1,0.9,1.8,2,2.4,3.2c0.6,1.2,1,2.5,1.3,3.8c-0.3-1.3-0.8-2.6-1.4-3.7c-0.6-1.2-1.5-2.2-2.5-3.1
		c-0.5-0.4-1-0.8-1.6-1.1c-0.6-0.3-1.2-0.5-1.9-0.7c-1.3-0.3-2.6-0.2-3.9,0.2c-1.3,0.4-2.5,1-3.6,1.7c-1.1,0.7-2.1,1.6-3.1,2.5
		c-1,0.9-1.8,1.9-2.7,3C32.8,26.6,32.1,27.8,31.5,28.9z"/>
	<path class="st1" d="M32.8,29.3c1.1-2.2,2.6-4.2,4.3-6c0.9-0.9,1.8-1.7,2.9-2.4c1-0.7,2.1-1.3,3.3-1.6c1.2-0.4,2.5-0.5,3.7-0.2
		c1.2,0.2,2.4,0.8,3.3,1.7c0.5,0.4,0.9,0.9,1.3,1.3c0.4,0.5,0.8,1,1.1,1.5c0.6,1.1,1,2.3,1.2,3.5c-0.3-1.2-0.7-2.4-1.3-3.4
		c-0.3-0.5-0.7-1-1.1-1.5c-0.4-0.5-0.8-0.9-1.3-1.3c-0.5-0.4-1-0.7-1.5-1c-0.5-0.3-1.1-0.5-1.7-0.6c-1.2-0.2-2.4-0.1-3.6,0.2
		c-1.2,0.3-2.3,0.9-3.3,1.6c-1,0.7-2,1.5-2.8,2.3c-0.9,0.9-1.7,1.8-2.4,2.8C34,27.1,33.3,28.2,32.8,29.3z"/>
	<path class="st1" d="M39.9,31.8c0.3-0.8,0.7-1.5,1.2-2.1c0.5-0.7,1.1-1.2,1.7-1.7c0.3-0.2,0.7-0.5,1.1-0.6c0.4-0.2,0.8-0.3,1.2-0.3
		c0.4,0,0.8,0,1.2,0.1c0.4,0.1,0.8,0.3,1.1,0.6c-0.7-0.5-1.5-0.7-2.3-0.6c-0.8,0.1-1.5,0.5-2.2,1c-0.7,0.5-1.2,1.1-1.7,1.7
		c-0.3,0.3-0.5,0.6-0.7,1C40.3,31.1,40.1,31.5,39.9,31.8z"/>
	<path class="st1" d="M38,31.4c0.3-1,0.9-2,1.6-2.8c0.7-0.8,1.5-1.6,2.5-2c1-0.5,2.1-0.7,3.2-0.5c0.5,0.1,1,0.3,1.5,0.6
		c0.5,0.3,0.9,0.6,1.2,1c-0.8-0.7-1.7-1.3-2.8-1.5c-0.5-0.1-1.1-0.1-1.6,0c-0.5,0.1-1,0.3-1.5,0.5c-1,0.5-1.8,1.2-2.5,2
		c-0.3,0.4-0.7,0.8-0.9,1.3C38.4,30.4,38.2,30.9,38,31.4z"/>
	<path class="st1" d="M6.4,46.7c0.7-1.7,1.5-3.4,2.3-5.1c0.8-1.7,1.7-3.4,2.6-5c0.9-1.6,1.9-3.3,3-4.8c0.5-0.8,1.1-1.5,1.7-2.3
		c0.3-0.4,0.6-0.7,1-1c0.3-0.3,0.7-0.6,1.1-0.9c-0.7,0.6-1.3,1.3-1.9,2.1c-0.6,0.7-1.1,1.5-1.6,2.3c-1,1.6-2,3.2-2.9,4.8
		c-0.9,1.6-1.8,3.3-2.7,5C8.1,43.4,7.2,45,6.4,46.7z"/>
	<path class="st1" d="M10.6,39.6c-0.2,0.6-0.4,1.2-0.6,1.9c-0.2,0.6-0.3,1.3-0.5,1.9c-0.3,1.3-0.5,2.6-0.6,3.9
		c-0.1,1.3-0.2,2.6-0.1,3.9c0,0.7,0.1,1.3,0.1,1.9C9,53.7,9.1,54.4,9.2,55c-0.1-0.6-0.2-1.3-0.3-1.9c-0.1-0.6-0.1-1.3-0.2-2
		c-0.1-1.3,0-2.6,0.1-3.9c0.1-1.3,0.3-2.6,0.6-3.9C9.7,42.1,10.1,40.8,10.6,39.6z"/>
	<path class="st1" d="M45.4,42.8c-1.5,2-3.1,4-4.7,5.9c-1.6,1.9-3.3,3.8-5,5.6c-0.9,0.9-1.8,1.8-2.7,2.6c-0.5,0.4-1,0.8-1.5,1.1
		c-0.5,0.3-1.1,0.6-1.7,0.8c-1.2,0.4-2.4,0.6-3.7,0.7c-1.3,0-2.5,0-3.8-0.2c-0.6-0.1-1.2-0.2-1.9-0.4c-0.3-0.1-0.6-0.1-0.9-0.2
		c-0.2,0-0.3-0.1-0.5-0.1l-0.2-0.1l-0.1,0l-0.1,0l0,0c0,0-0.1,0.1,0-0.1l0,0l0.1,0c0-0.1,0,0.1,0,0.1l0,0l0,0l-0.1,0l-0.2-0.1
		c-0.1-0.1-0.3-0.1-0.4-0.2c-0.3-0.1-0.6-0.3-0.9-0.4c-0.6-0.3-1.1-0.6-1.6-0.9c-1-0.7-2-1.5-2.8-2.5c-0.8-1-1.4-2.1-1.7-3.4
		c-0.2-0.6-0.2-1.2-0.2-1.9c0-0.6,0-1.3,0.1-1.9c0.2-1.2,0.4-2.5,0.7-3.7c0.3-1.2,0.7-2.4,1.1-3.6c0.2-0.6,0.4-1.2,0.7-1.8
		c0.2-0.6,0.5-1.2,0.8-1.7c-0.3,0.6-0.5,1.1-0.8,1.7c-0.2,0.6-0.4,1.2-0.6,1.8c-0.4,1.2-0.8,2.4-1.1,3.6c-0.3,1.2-0.6,2.4-0.7,3.7
		c-0.1,0.6-0.1,1.2-0.1,1.9c0,0.6,0.1,1.3,0.2,1.9c0.3,1.2,0.9,2.3,1.7,3.3c0.8,1,1.7,1.8,2.8,2.5c0.5,0.3,1.1,0.7,1.6,0.9
		c0.3,0.1,0.6,0.3,0.9,0.4c0.1,0.1,0.3,0.1,0.4,0.2l0.2,0.1l0.1,0l0,0l0,0c0,0,0,0.2,0,0.1l-0.1,0l0,0c0.1-0.2,0-0.1,0-0.1l0,0
		l0.1,0l0.1,0l0.2,0.1c0.1,0,0.3,0.1,0.5,0.1c0.3,0.1,0.6,0.2,0.9,0.2c0.6,0.1,1.2,0.3,1.8,0.4c1.2,0.2,2.5,0.3,3.7,0.2
		c1.2,0,2.5-0.2,3.7-0.7c0.6-0.2,1.2-0.5,1.7-0.8c0.5-0.3,1-0.7,1.5-1.1c1-0.8,1.9-1.7,2.7-2.6c1.8-1.8,3.4-3.7,5-5.6
		C42.3,46.7,43.8,44.8,45.4,42.8z"/>
	<path class="st1" d="M16.8,37.1c-0.5,1.1-0.9,2.2-1.2,3.3c-0.1,0.6-0.3,1.2-0.3,1.7c0,0.6,0,1.2,0.1,1.7c0.1,0.3,0.2,0.5,0.3,0.8
		c0.1,0.1,0.2,0.2,0.3,0.3l0.3,0.4c0.4,0.5,0.7,0.9,1.1,1.4c0.8,0.9,1.6,1.7,2.5,2.4c0.5,0.3,1,0.7,1.5,0.9c0.3,0.1,0.5,0.2,0.8,0.3
		c0.3,0.1,0.6,0.2,0.8,0.2c1.2,0.3,2.3,0.4,3.5,0.6c1.2,0.2,2.3,0.3,3.5,0.5c0.6,0.1,1.2,0.1,1.8,0.2c0.3,0,0.6,0.1,0.9,0.1
		c0.3,0,0.6,0,0.9,0c-0.6,0-1.2,0-1.8,0c-0.6,0-1.2-0.1-1.8-0.1c-1.2-0.1-2.4-0.2-3.5-0.4c-1.2-0.2-2.3-0.3-3.5-0.6
		c-0.3-0.1-0.6-0.1-0.9-0.2c-0.3-0.1-0.6-0.2-0.8-0.3c-0.5-0.3-1.1-0.6-1.5-0.9c-1-0.7-1.8-1.6-2.6-2.5c-0.4-0.5-0.7-0.9-1.1-1.4
		l-0.3-0.4c-0.1-0.1-0.2-0.2-0.3-0.4c-0.2-0.3-0.3-0.6-0.3-0.9c-0.1-0.6-0.1-1.2-0.1-1.8c0.1-0.6,0.2-1.2,0.4-1.8
		c0.2-0.6,0.4-1.1,0.6-1.7C16.3,38.2,16.5,37.7,16.8,37.1z"/>
	<path class="st1" d="M15.8,35.1c0,0.1,0,0.3,0,0.4c0,0.1,0,0.3,0.1,0.4c0,0.1,0.1,0.1,0.2,0.1l0.2,0.1l0.4,0.3c0.5,0.3,1,0.7,1.5,1
		c1,0.6,2.1,1.1,3.2,1.6c1.1,0.4,2.2,0.9,3.4,1.2c1.1,0.3,2.3,0.6,3.5,0.8c0.3,0,0.6,0.1,0.9,0.1c0.3,0,0.6,0,0.9,0l1.8,0
		c1.2,0,2.4,0,3.6-0.1l3.6-0.1l3.6-0.1l-3.6,0.2c-1.2,0.1-2.4,0.1-3.6,0.1c-1.2,0-2.4,0.1-3.6,0.1l-1.8,0c-0.3,0-0.6,0-0.9,0
		c-0.3,0-0.6-0.1-0.9-0.1c-1.2-0.2-2.3-0.5-3.5-0.8c-1.1-0.4-2.3-0.8-3.4-1.2c-1.1-0.5-2.2-1-3.2-1.6c-0.5-0.3-1-0.7-1.5-1l-0.4-0.3
		L16,36.2L16,36.1c0,0-0.1-0.1-0.1-0.1c-0.1-0.1-0.1-0.3-0.1-0.4C15.8,35.4,15.8,35.3,15.8,35.1z"/>
	<path class="st1" d="M17.7,46.5l1.5,0.9c0.5,0.3,1,0.6,1.5,0.9l0.4,0.2c0.1,0.1,0.3,0.1,0.4,0.2c0.1,0,0.3,0,0.4-0.1
		c0.1-0.1,0.3-0.1,0.4-0.2c0.1-0.1,0.2-0.2,0.3-0.3c0.1-0.1,0.2-0.2,0.2-0.3c0-0.3,0-0.6,0.1-0.9c0.1-1.2,0.3-2.3,0.3-3.5
		c0-0.6,0.1-1.2,0.1-1.8c0-0.3,0-0.6-0.1-0.9c0-0.1-0.1-0.3-0.1-0.4c-0.1-0.1-0.1-0.3-0.2-0.4c0.1,0.1,0.2,0.2,0.3,0.4
		c0.1,0.1,0.1,0.3,0.1,0.4c0.1,0.3,0.1,0.6,0.1,0.9c0,0.6,0,1.2,0,1.8c-0.1,1.2-0.2,2.3-0.3,3.5c0,0.3-0.1,0.6-0.1,0.9
		c0,0.2-0.1,0.3-0.2,0.4c-0.1,0.1-0.2,0.2-0.3,0.3c-0.1,0.1-0.3,0.2-0.4,0.2c-0.1,0.1-0.3,0.1-0.5,0.1c-0.3-0.1-0.5-0.3-0.8-0.4
		C19.6,47.8,18.6,47.1,17.7,46.5z"/>
	<path class="st1" d="M23.8,50.6c0.1-0.8,0.2-1.7,0.3-2.6c0-0.4,0.1-0.9,0.1-1.3c0-0.4,0.1-0.9,0.1-1.3c0-0.4,0-0.9,0-1.3
		c0-0.4,0-0.9,0-1.3c0-0.4-0.1-0.9-0.1-1.3c0-0.2-0.1-0.4-0.1-0.6c-0.1-0.2-0.1-0.4-0.2-0.6c0.2,0.4,0.4,0.8,0.5,1.2
		c0.1,0.4,0.2,0.8,0.2,1.3c0,0.4,0.1,0.9,0.1,1.3c0,0.4,0,0.9,0,1.3c0,0.4,0,0.9-0.1,1.3c0,0.4-0.1,0.9-0.1,1.3
		C24.1,48.9,23.9,49.7,23.8,50.6L23.8,50.6z"/>
	<path class="st1" d="M20.8,41.4c0.1,0.4,0.2,0.8,0.2,1.2c0,0.2-0.1,0.4-0.2,0.6c-0.1,0.2-0.3,0.4-0.5,0.5c-0.2,0.1-0.5,0.1-0.7,0.1
		c-0.2,0-0.5-0.1-0.6-0.3c-0.4-0.3-0.7-0.6-0.8-1.1C18,42,18,41.6,18.1,41.1c0.1-0.2,0.2-0.4,0.3-0.6c0.1-0.2,0.3-0.3,0.6-0.4
		c0.2-0.1,0.5,0,0.7,0c0.2,0.1,0.4,0.2,0.5,0.3C20.4,40.7,20.7,41.1,20.8,41.4z M20.8,41.4c-0.1-0.4-0.4-0.7-0.7-0.9
		c-0.2-0.1-0.3-0.2-0.5-0.2c-0.2,0-0.4,0-0.5,0.1c-0.3,0.2-0.4,0.5-0.4,0.8c0,0.3,0,0.7,0.2,1c0.1,0.3,0.3,0.6,0.6,0.8
		c0.2,0.2,0.6,0.4,0.9,0.3c0.1,0,0.3-0.1,0.4-0.3c0.1-0.1,0.2-0.3,0.2-0.5C21,42.2,21,41.8,20.8,41.4z"/>
	<path class="st1" d="M16.1,43.9c0.5,0.3,1.1,0.6,1.6,1l1.6,1l1.6,1c0.5,0.3,1,0.7,1.6,1c-0.5-0.3-1.1-0.6-1.6-1l-1.6-1l-1.6-1
		C17.1,44.6,16.6,44.3,16.1,43.9z"/>
	<path class="st1" d="M24.6,47.9c0.7,0.3,1.4,0.6,2.1,0.8l2.1,0.9l2,0.9c0.7,0.3,1.4,0.6,2,0.9c-0.7-0.3-1.4-0.6-2.1-0.8l-2.1-0.9
		l-2-0.9C26,48.6,25.3,48.3,24.6,47.9z"/>
	<path class="st1" d="M46.1,32.3c-0.3,0.1-0.7,0.1-1.1,0.1c-0.2,0-0.4-0.1-0.5-0.2c-0.2-0.1-0.3-0.3-0.4-0.5c-0.1-0.2-0.1-0.4,0-0.6
		c0.1-0.2,0.2-0.4,0.3-0.6c0.3-0.3,0.6-0.6,1-0.7c0.4-0.1,0.8-0.1,1.2,0c0.2,0.1,0.4,0.2,0.6,0.3c0.2,0.2,0.3,0.4,0.3,0.6
		c0,0.2,0,0.4-0.1,0.6c-0.1,0.2-0.2,0.3-0.3,0.5C46.8,32,46.5,32.2,46.1,32.3z M46.1,32.3c0.3-0.1,0.7-0.3,0.9-0.6
		c0.1-0.1,0.2-0.3,0.2-0.5c0-0.2,0-0.3,0-0.5c-0.1-0.3-0.4-0.4-0.7-0.5c-0.3,0-0.6,0-0.9,0.1c-0.3,0.1-0.6,0.2-0.8,0.4
		c-0.2,0.2-0.4,0.5-0.4,0.8c0,0.1,0.1,0.3,0.2,0.4c0.1,0.1,0.3,0.2,0.4,0.3C45.4,32.4,45.8,32.4,46.1,32.3z"/>
	<polygon class="st1" points="24.6,43.3 26.2,43.9 27.7,44.5 30.8,45.8 33.8,47.1 35.3,47.7 36.9,48.4 35.3,47.8 33.8,47.2 
		30.7,45.9 27.7,44.6 26.1,44 	"/>
	<polygon class="st1" points="25,46.2 26.3,46.7 27.5,47.2 30,48.3 32.5,49.4 33.7,50 35,50.6 33.7,50.1 32.4,49.5 30,48.4 
		27.5,47.3 26.2,46.7 	"/>
	<g>
		<path class="st1" d="M31.6,15.5c0.6-0.6,1.3-1,2.1-1.5c0.7-0.4,1.5-0.8,2.3-1.1c0.8-0.3,1.6-0.5,2.5-0.6c0.8-0.1,1.7-0.2,2.5-0.1
			c-0.8,0-1.7,0.1-2.5,0.3c-0.8,0.2-1.6,0.4-2.4,0.7c-0.8,0.3-1.5,0.6-2.3,1C33.1,14.6,32.3,15,31.6,15.5z"/>
	</g>
	<path class="st1" d="M58.6,19.7c-0.2,0-0.3,0-0.5,0c-0.1,0-0.2,0-0.2,0.1c-0.1,0-0.2,0.1-0.2,0.1c0,0.1,0,0.1,0.1,0.2
		c0.1,0.1,0.1,0.1,0.2,0.1c0.1,0.1,0.3,0.2,0.4,0.2c0.6,0.3,1.2,0.5,1.8,0.7c0.6,0.2,1.2,0.4,1.8,0.6l1.8,0.6
		c-0.6-0.2-1.2-0.3-1.9-0.5c-0.6-0.2-1.2-0.4-1.8-0.6c-0.6-0.2-1.2-0.5-1.8-0.7c-0.1-0.1-0.3-0.1-0.4-0.2c-0.1,0-0.1-0.1-0.2-0.2
		c0,0-0.1-0.1-0.1-0.1c0,0,0-0.1,0-0.1c0-0.1,0.1-0.1,0.2-0.1c0.1,0,0.2,0,0.2,0C58.3,19.7,58.4,19.7,58.6,19.7z"/>
	<path class="st1" d="M63.5,20c0.4,0.1,0.8,0.2,1.2,0.2c0.4,0.1,0.8,0.2,1.2,0.3c0.4,0.1,0.8,0.2,1.2,0.3c0.2,0.1,0.4,0.1,0.6,0.2
		c0.1,0,0.2,0.1,0.3,0.1c0.1,0,0.2,0.1,0.3,0.2c-0.1-0.1-0.2-0.1-0.3-0.1c-0.1,0-0.2-0.1-0.3-0.1C67.3,21,67.1,21,67,20.9l-1.2-0.3
		l-1.2-0.3C64.2,20.2,63.8,20.1,63.5,20z"/>
	<path class="st1" d="M28.2,27.1c0.9-1.7,2-3.3,3.2-4.8c1.2-1.5,2.6-2.9,4.1-4.1c0.8-0.6,1.6-1.1,2.4-1.6c0.9-0.4,1.8-0.8,2.7-1.1
		c0.9-0.2,1.9-0.3,2.9-0.3c1,0,1.9,0.2,2.8,0.6c-1.8-0.6-3.8-0.5-5.7,0c-0.9,0.3-1.8,0.6-2.6,1.1c-0.8,0.4-1.6,1-2.4,1.6
		c-1.5,1.2-2.9,2.5-4.1,4c-0.6,0.7-1.2,1.5-1.8,2.2C29.3,25.5,28.7,26.3,28.2,27.1z"/>
	<path class="st1" d="M47.2,28c0.4,0.2,0.8,0.3,1.2,0.5l1.2,0.5l1.1,0.5c0.4,0.2,0.8,0.3,1.1,0.5c-0.4-0.2-0.8-0.3-1.2-0.5l-1.2-0.5
		l-1.2-0.5C48,28.4,47.6,28.2,47.2,28z"/>
	<path class="st1" d="M56.5,83.5c-0.9-1-1.6-2.2-2.2-3.3c-0.6-1.2-1.1-2.4-1.4-3.7c-0.7-2.6-0.9-5.3-0.5-8c0.4-2.7,1.3-5.2,2.6-7.6
		c1.3-2.3,2.7-4.6,4.3-6.8c1.6-2.2,3.3-4.2,5.2-6.1c0.9-1,1.9-1.9,2.9-2.8c0.5-0.4,1-0.9,1.5-1.3l0.1-0.1c0,0,0,0,0,0l0,0
		c0.1-0.1,0.1-0.1,0.2-0.2c0.1-0.1,0.3-0.2,0.4-0.3c0.3-0.2,0.5-0.4,0.8-0.6c1.1-0.8,2.2-1.5,3.3-2.2c0.6-0.3,1.1-0.7,1.7-1
		c0.6-0.3,1.2-0.6,1.8-0.9c0.6-0.2,1.3-0.4,2-0.3c0.7,0,1.3,0.3,1.9,0.7c0.6,0.4,1,0.9,1.4,1.4c0.4,0.5,0.7,1.1,1,1.7
		c-0.3-0.6-0.6-1.2-1-1.7c-0.4-0.5-0.9-1-1.4-1.4c-0.6-0.4-1.2-0.6-1.9-0.6c-0.7,0-1.3,0.1-1.9,0.4c-0.6,0.2-1.2,0.5-1.8,0.9
		c-0.6,0.3-1.2,0.7-1.7,1c-1.1,0.7-2.2,1.5-3.3,2.2c-0.3,0.2-0.5,0.4-0.8,0.6c-0.1,0.1-0.3,0.2-0.4,0.3c-0.1,0.1-0.1,0.1-0.2,0.2
		l0,0c0,0,0,0-0.1,0.1L69,44.2c-0.5,0.4-1,0.8-1.5,1.3c-1,0.9-2,1.8-2.9,2.7c-1.9,1.9-3.6,4-5.1,6.1c-1.6,2.1-3,4.4-4.3,6.7
		c-1.3,2.3-2.2,4.9-2.6,7.5c-0.4,2.6-0.3,5.3,0.4,7.9c0.3,1.3,0.8,2.5,1.4,3.7c0.3,0.6,0.6,1.2,1,1.7C55.6,82.5,56,83,56.5,83.5z"/>
	<path class="st1" d="M59.3,83.5c-0.5-0.4-1-0.8-1.4-1.3c-0.4-0.5-0.8-1-1.2-1.5c-0.7-1.1-1.2-2.2-1.6-3.4c-0.8-2.4-0.9-5-0.7-7.5
		c0.1-1.3,0.3-2.5,0.6-3.8c0.3-1.2,0.7-2.5,1.1-3.6c0.9-2.4,2.2-4.6,3.6-6.7c1.4-2.1,3.1-4,4.8-5.9c1.8-1.8,3.6-3.5,5.6-5.1
		c1-0.8,2.1-1.5,3.1-2.2c1.1-0.7,2.1-1.4,3.2-2c0.3-0.2,0.6-0.3,0.8-0.5c0.1-0.1,0.3-0.1,0.4-0.2c0.2-0.1,0.3-0.1,0.5-0.1
		c0.6-0.2,1.3-0.2,1.9-0.1c0.6,0.1,1.2,0.4,1.7,0.9c0.5,0.4,0.8,0.9,1.1,1.5c-0.3-0.6-0.7-1.1-1.2-1.5c-0.5-0.4-1.1-0.7-1.7-0.8
		c-0.6-0.1-1.3-0.1-1.9,0.1c-0.2,0-0.3,0.1-0.5,0.1c-0.1,0.1-0.3,0.1-0.4,0.2c-0.3,0.1-0.6,0.3-0.8,0.5c-1.1,0.6-2.2,1.3-3.2,2
		c-1.1,0.7-2.1,1.4-3.1,2.2c-2,1.6-3.9,3.3-5.6,5.1c-1.7,1.8-3.4,3.8-4.8,5.9c-1.4,2.1-2.7,4.3-3.6,6.7c-0.5,1.2-0.9,2.4-1.2,3.6
		c-0.3,1.2-0.5,2.5-0.6,3.7c-0.2,2.5-0.1,5.1,0.7,7.5c0.4,1.2,0.9,2.4,1.6,3.4c0.3,0.5,0.7,1,1.2,1.5C58.3,82.7,58.7,83.2,59.3,83.5
		z"/>
	<path class="st1" d="M70.9,79.9c-1.4,0.2-2.8,0.5-4.2,0.7l-4.2,0.6l0,0l0,0c-0.4,0-0.9-0.2-1.2-0.4c-0.4-0.2-0.7-0.5-1-0.7
		c-0.6-0.6-1.2-1.2-1.7-1.9c-1-1.4-1.6-3-1.9-4.7c-0.4-1.7-0.4-3.4-0.2-5.1c0.2-1.7,0.6-3.4,1.2-5c0.6-1.6,1.4-3.1,2.2-4.6
		c0.9-1.5,1.8-2.9,3-4.1c1.1-1.3,2.4-2.4,3.9-3.2c0.8-0.4,1.6-0.7,2.4-0.9c0.4-0.1,0.8-0.2,1.3-0.2c0.4,0,0.9,0,1.3,0.1l0,0l0,0
		l2.6,3.1l2.6,3.1l-2.6-3l-2.6-3l0,0c-0.4-0.1-0.8-0.1-1.2,0c-0.4,0-0.8,0.1-1.2,0.2c-0.8,0.2-1.6,0.5-2.3,0.9
		c-1.5,0.8-2.7,2-3.8,3.2c-1.1,1.3-2.1,2.7-2.9,4.1c-0.8,1.5-1.6,3-2.2,4.5c-0.6,1.6-1,3.2-1.2,4.9c-0.2,1.7-0.1,3.4,0.2,5
		c0.3,1.6,0.9,3.2,1.9,4.6c0.5,0.7,1,1.4,1.6,1.9c0.3,0.3,0.6,0.5,1,0.7c0.4,0.2,0.8,0.4,1.2,0.4l0,0l4.3-0.6
		C68.1,80.3,69.5,80.1,70.9,79.9z"/>
	<path class="st1" d="M76.7,56.6c-0.7-0.1-1.3,0-1.9,0.2c-0.6,0.2-1.2,0.4-1.8,0.7c-1.2,0.6-2.2,1.4-3.1,2.4c-0.9,1-1.7,2-2.3,3.1
		c-0.7,1.1-1.2,2.3-1.7,3.5c-0.5,1.2-0.8,2.5-1,3.8c-0.2,1.3-0.1,2.6,0.1,3.9c0.3,1.3,0.9,2.5,1.7,3.5c0.4,0.5,0.9,0.9,1.4,1.3
		c0.3,0.2,0.5,0.4,0.8,0.5c0.3,0.1,0.6,0.3,0.9,0.3c-0.3,0-0.6-0.1-0.9-0.3c-0.3-0.1-0.6-0.3-0.9-0.5c-0.5-0.4-1-0.8-1.5-1.3
		c-0.9-1-1.5-2.2-1.8-3.5c-0.3-1.3-0.3-2.6-0.2-3.9c0.2-1.3,0.5-2.6,1-3.8c0.5-1.2,1-2.4,1.7-3.6c0.7-1.1,1.4-2.2,2.3-3.2
		c0.9-0.9,2-1.8,3.1-2.3c0.6-0.3,1.2-0.5,1.9-0.7C75.4,56.6,76.1,56.6,76.7,56.6z"/>
	<path class="st1" d="M75.2,71c0.3,1.1,0.5,2.3,0.6,3.4c0.1,1.2,0,2.3-0.2,3.5c-0.2,1.1-0.5,2.3-1,3.3c-0.3,0.5-0.6,1-0.9,1.5
		c-0.3,0.5-0.7,0.9-1.1,1.3c0.8-0.8,1.4-1.8,1.9-2.9c0.5-1,0.8-2.2,1-3.3c0.2-1.1,0.2-2.3,0.2-3.4c0-0.6-0.1-1.2-0.1-1.7
		C75.4,72.1,75.3,71.6,75.2,71z"/>
	<path class="st1" d="M77.7,76.5c0,0.6,0,1.1-0.1,1.6c-0.1,0.5-0.2,1.1-0.3,1.6c-0.3,1.1-0.7,2.1-1.2,3.1c-1,2-2.4,3.7-4.1,5.2
		c-0.8,0.7-1.7,1.4-2.6,2c-0.5,0.3-0.9,0.6-1.4,0.9c-0.4,0.3-0.9,0.6-1.3,1c-0.4,0.4-0.8,0.7-1.2,1.2c-0.2,0.2-0.3,0.4-0.4,0.7
		c-0.1,0.2-0.2,0.5-0.1,0.8c0.1,0.2,0.3,0.4,0.6,0.5c0.3,0.1,0.5,0.1,0.8,0.1c0.3,0,0.5-0.1,0.8-0.1c0.3-0.1,0.5-0.2,0.7-0.4
		c-0.2,0.2-0.5,0.3-0.7,0.4c-0.3,0.1-0.5,0.1-0.8,0.2c-0.3,0-0.6,0-0.8-0.1c-0.3-0.1-0.5-0.3-0.6-0.5c-0.1-0.3,0-0.6,0.1-0.8
		c0.1-0.3,0.3-0.5,0.4-0.7c0.3-0.4,0.7-0.8,1.2-1.2c0.8-0.7,1.8-1.3,2.7-1.9c0.9-0.6,1.8-1.3,2.6-2c1.6-1.5,3-3.2,4.1-5.1
		c0.5-1,0.9-2,1.2-3c0.2-0.5,0.3-1.1,0.4-1.6C77.6,77.6,77.7,77,77.7,76.5z"/>
	<path class="st1" d="M76.4,66c0.3,0.1,0.6,0.2,1,0.1c0.3,0,0.6-0.1,1-0.1c0.6-0.2,1.2-0.5,1.8-0.8c1.1-0.7,2-1.7,2.7-2.8
		c0.4-0.5,0.7-1.1,1.1-1.6c0.3-0.6,0.7-1.1,0.9-1.7c0.2-0.6,0.3-1.3,0.4-1.9c0-0.6,0-1.3,0-1.9c-0.1-2.6-0.7-5.2-0.9-7.8
		c-0.1-0.7-0.1-1.3-0.1-2c0-0.7,0.1-1.3,0.4-1.9c0.1-0.3,0.3-0.6,0.6-0.8c0.2-0.2,0.5-0.4,0.9-0.5c0.3-0.1,0.6-0.2,1-0.1
		c0.3,0,0.7,0.1,0.9,0.3c-0.3-0.2-0.6-0.3-0.9-0.3c-0.3,0-0.6,0.1-1,0.2c-0.3,0.1-0.6,0.3-0.8,0.5c-0.2,0.2-0.4,0.5-0.5,0.8
		c-0.3,0.6-0.3,1.3-0.4,1.9c0,0.6,0,1.3,0.1,1.9c0.3,2.6,0.8,5.2,0.9,7.8c0,0.7,0,1.3,0,2c-0.1,0.7-0.2,1.3-0.4,1.9
		c-0.1,0.3-0.2,0.6-0.4,0.9c-0.2,0.3-0.3,0.6-0.5,0.8c-0.3,0.6-0.7,1.1-1.1,1.6c-0.8,1-1.7,2-2.8,2.7c-0.5,0.4-1.1,0.7-1.8,0.8
		c-0.3,0.1-0.6,0.1-1,0.1C77,66.2,76.7,66.1,76.4,66z"/>
	<path class="st1" d="M89.2,45.5l-0.1,2.7l-0.1,2.7L89,53.6c0,0.4,0,0.9,0,1.3c0,0.4,0.1,3.7,0.2,4.1c-0.1-0.9-0.2-4.6-0.2-5.5
		c0-0.9,0-1.8,0.1-2.7c0-0.9,0.1-1.8,0.1-2.7C89.1,47.3,89.2,46.4,89.2,45.5z"/>
	<path class="st1" d="M70.4,79.7c-0.6-0.2-1.2-0.5-1.7-0.9c-0.5-0.4-1-0.8-1.4-1.3c-0.8-1-1.4-2.2-1.6-3.5c-0.2-1.3-0.2-2.6,0.1-3.9
		c0.1-0.6,0.3-1.3,0.5-1.9c0.2-0.6,0.4-1.2,0.6-1.8c0.5-1.2,1-2.4,1.6-3.5c0.6-1.1,1.4-2.2,2.3-3.1c0.9-0.9,2.1-1.6,3.3-2
		c0.6-0.2,1.3-0.3,1.9-0.4c0.3,0,0.6-0.1,1-0.1c0,0,0.1,0,0.1,0c0,0,0-0.1,0-0.1c0-0.1-0.1-0.1-0.1-0.2c-0.1-0.1-0.2-0.3-0.3-0.4
		c0.1,0.1,0.2,0.3,0.3,0.4c0,0.1,0.1,0.1,0.1,0.2c0,0,0,0.1,0,0.1c0,0-0.1,0-0.1,0c-0.3,0-0.6,0-1,0.1c-0.6,0.1-1.3,0.2-1.9,0.4
		c-1.2,0.4-2.4,1.1-3.3,2c-0.9,0.9-1.7,1.9-2.3,3.1c-0.6,1.1-1.1,2.3-1.6,3.5c-0.2,0.6-0.5,1.2-0.7,1.8c-0.2,0.6-0.4,1.2-0.5,1.9
		c-0.3,1.3-0.3,2.6-0.1,3.8c0.2,1.3,0.8,2.5,1.6,3.5c0.4,0.5,0.9,0.9,1.4,1.3C69.3,79.2,69.8,79.5,70.4,79.7z"/>
	<g>
		<path class="st0" d="M77.7,75.5c0,0,0.5-4.1-3.5-5.9c-4.2-1.8-5.7-1.8-6.3-1.7c-0.6,0.1-4.3,0.3-4.6-3.2c-0.4-3.5,4.2-4.9,6-2.7
			c1.9,2.2,6.4,5.2,9,5.1c2.6-0.1,6.5-3.7,7.4-6.3"/>
		<path class="st1" d="M77.7,75.5c0-0.5,0-1-0.1-1.5c-0.1-0.5-0.2-1-0.5-1.5c-0.4-0.9-1.1-1.7-2-2.3c-0.2-0.1-0.4-0.3-0.7-0.4
			c-0.2-0.1-0.5-0.2-0.7-0.3c-0.5-0.2-1-0.4-1.4-0.6c-1-0.4-1.9-0.7-3-0.9c-0.5-0.1-1-0.1-1.5-0.1c-0.5,0-1,0-1.6,0
			c-0.5-0.1-1-0.2-1.5-0.5c-0.5-0.3-0.9-0.6-1.1-1.1c-0.3-0.5-0.4-1-0.5-1.5c-0.1-0.5,0-1.1,0.1-1.6c0.2-0.5,0.5-1,0.8-1.3
			c0.4-0.4,0.8-0.6,1.3-0.8c1-0.4,2.1-0.3,3.1,0.2c0.2,0.1,0.4,0.3,0.6,0.5c0.1,0.1,0.2,0.2,0.3,0.3c0.1,0.1,0.2,0.2,0.3,0.3
			c0.4,0.4,0.7,0.7,1.1,1.1c0.8,0.7,1.6,1.3,2.5,1.8c0.9,0.5,1.8,1,2.8,1.4c0.5,0.2,1,0.3,1.5,0.4c0.3,0,0.5,0.1,0.8,0
			c0.3,0,0.5-0.1,0.8-0.1c1-0.3,1.9-0.8,2.7-1.4c0.8-0.6,1.6-1.3,2.3-2.1c0.3-0.4,0.7-0.8,0.9-1.2c0.3-0.4,0.5-0.9,0.7-1.4
			c-0.2,0.5-0.4,0.9-0.7,1.4c-0.3,0.4-0.6,0.8-0.9,1.2c-0.7,0.8-1.4,1.5-2.3,2.1c-0.4,0.3-0.8,0.6-1.3,0.8c-0.5,0.2-0.9,0.5-1.4,0.6
			c-0.3,0.1-0.5,0.1-0.8,0.1c-0.3,0-0.5,0-0.8,0c-0.5-0.1-1-0.2-1.5-0.4c-1-0.4-1.9-0.8-2.8-1.4c-0.9-0.5-1.7-1.1-2.5-1.8
			c-0.4-0.3-0.8-0.7-1.1-1.1c-0.1-0.1-0.2-0.2-0.3-0.3c-0.1-0.1-0.2-0.2-0.3-0.3c-0.2-0.2-0.4-0.3-0.6-0.5c-0.9-0.5-2-0.5-2.9-0.2
			c-0.5,0.2-0.9,0.4-1.3,0.8c-0.4,0.3-0.6,0.8-0.8,1.3c-0.2,0.5-0.2,1-0.1,1.5c0.1,0.5,0.2,1,0.5,1.4c0.3,0.4,0.6,0.8,1.1,1
			c0.4,0.3,0.9,0.4,1.4,0.5c0.5,0.1,1,0.1,1.5,0.1c0.5-0.1,1,0,1.6,0.1c1,0.2,2,0.5,3,0.9c0.5,0.2,1,0.4,1.4,0.6
			c0.5,0.2,1,0.4,1.4,0.7c0.9,0.6,1.6,1.4,2,2.3c0.2,0.5,0.4,1,0.4,1.5C77.7,74.5,77.7,75,77.7,75.5z"/>
	</g>
	<path class="st1" d="M77.3,57.6c0.5,0.2,1,0.5,1.5,0.7l1.5,0.8l1.5,0.8c0.5,0.3,1,0.5,1.5,0.8c-0.5-0.2-1-0.5-1.5-0.7l-1.5-0.8
		l-1.5-0.8C78.3,58.1,77.8,57.8,77.3,57.6z"/>
	<path class="st1" d="M73.1,51.8c0-0.7,0-1.3,0.1-2c0.1-0.7,0.2-1.3,0.4-1.9c0.4-1.3,1-2.5,1.9-3.5c0.4-0.5,0.9-1,1.4-1.4
		c0.5-0.4,1.1-0.8,1.7-1c0.6-0.3,1.3-0.4,2-0.4c0.7,0,1.3,0.2,1.9,0.5l0,0l0,0c0.6,0.4,1.2,0.8,1.9,1.2c-0.6-0.4-1.3-0.7-1.9-1.1
		l0,0c-0.6-0.3-1.2-0.4-1.9-0.4c-0.6,0-1.3,0.2-1.9,0.4c-1.2,0.5-2.2,1.4-3,2.4c-0.4,0.5-0.8,1-1.1,1.6c-0.3,0.6-0.6,1.2-0.8,1.8
		c-0.2,0.6-0.4,1.2-0.5,1.9C73.2,50.5,73.1,51.2,73.1,51.8z"/>
	<path class="st1" d="M78.5,57.9c-0.2-0.3-0.4-0.6-0.6-1c-0.2-0.3-0.3-0.7-0.4-1.1c-0.2-0.7-0.3-1.5-0.3-2.2c0-0.7,0.1-1.5,0.2-2.2
		c0.2-0.7,0.4-1.4,0.7-2.1c0.3-0.7,0.6-1.4,1-2c0.4-0.6,0.8-1.3,1.3-1.8c0.5-0.6,1.1-1.1,1.7-1.5c0.6-0.4,1.4-0.6,2.1-0.6
		c-0.7,0-1.5,0.3-2.1,0.7c-0.6,0.4-1.2,0.9-1.7,1.5c-1,1.1-1.7,2.4-2.2,3.8c-0.5,1.4-0.9,2.8-0.9,4.3c0,0.7,0.1,1.5,0.3,2.2
		C77.9,56.6,78.1,57.3,78.5,57.9z"/>
	<path class="st1" d="M75.5,45c0.3,0.1,0.6,0.3,1,0.4c0.3,0.1,0.6,0.3,0.9,0.4c0.3,0.1,0.6,0.3,0.9,0.5l0.5,0.2
		c0.2,0.1,0.3,0.2,0.5,0.3c-0.2-0.1-0.3-0.1-0.5-0.2l-0.5-0.2c-0.3-0.1-0.6-0.3-0.9-0.4c-0.3-0.1-0.6-0.3-0.9-0.5
		C76.1,45.4,75.8,45.2,75.5,45z"/>
	<path class="st1" d="M74.6,46.4c0.3,0.1,0.6,0.3,1,0.4c0.3,0.1,0.6,0.3,0.9,0.4c0.3,0.1,0.6,0.3,0.9,0.5l0.5,0.2
		c0.2,0.1,0.3,0.2,0.5,0.3c-0.2-0.1-0.3-0.1-0.5-0.2l-0.5-0.2c-0.3-0.1-0.6-0.3-0.9-0.4c-0.3-0.1-0.6-0.3-0.9-0.5
		C75.2,46.7,74.9,46.6,74.6,46.4z"/>
	<path class="st1" d="M73.9,48.2c0.3,0.1,0.6,0.3,1,0.4c0.3,0.1,0.6,0.3,0.9,0.4c0.3,0.1,0.6,0.3,0.9,0.5l0.5,0.2
		c0.2,0.1,0.3,0.2,0.5,0.3c-0.2-0.1-0.3-0.1-0.5-0.2l-0.5-0.2c-0.3-0.1-0.6-0.3-0.9-0.4c-0.3-0.1-0.6-0.3-0.9-0.5
		C74.5,48.5,74.2,48.4,73.9,48.2z"/>
	<path class="st1" d="M73.4,50.3c0.3,0.1,0.6,0.3,1,0.4c0.3,0.1,0.6,0.3,0.9,0.4c0.3,0.2,0.6,0.3,0.9,0.5c0.3,0.2,0.6,0.3,0.9,0.5
		c-0.3-0.1-0.6-0.3-1-0.4c-0.3-0.1-0.6-0.3-0.9-0.4c-0.3-0.2-0.6-0.3-0.9-0.5C74.1,50.6,73.7,50.5,73.4,50.3z"/>
	<path class="st1" d="M73.1,52.1c0.3,0.1,0.6,0.3,1,0.4c0.3,0.1,0.6,0.3,0.9,0.4c0.3,0.2,0.6,0.3,0.9,0.5c0.3,0.2,0.6,0.3,0.9,0.5
		c-0.3-0.1-0.6-0.3-1-0.4c-0.3-0.1-0.6-0.3-0.9-0.4c-0.3-0.2-0.6-0.3-0.9-0.5C73.7,52.4,73.4,52.3,73.1,52.1z"/>
	<path class="st1" d="M75.7,55.2c0.6,0.3,1.2,0.5,1.8,0.8c-0.3-0.1-0.6-0.2-0.9-0.4C76.3,55.6,76,55.4,75.7,55.2L75.7,55.2z"/>
	<path class="st1" d="M76.5,43.9c0.3,0.1,0.6,0.2,0.9,0.4c0.3,0.1,0.6,0.3,0.9,0.4c0.3,0.1,0.6,0.3,0.9,0.4l0.4,0.2
		c0.1,0.1,0.3,0.2,0.4,0.3c-0.2-0.1-0.3-0.1-0.5-0.2l-0.5-0.2c-0.3-0.1-0.6-0.3-0.9-0.4c-0.3-0.1-0.6-0.3-0.9-0.4
		C77.1,44.3,76.8,44.1,76.5,43.9z"/>
	<path class="st1" d="M77.6,42.9c0.6,0.2,1.2,0.5,1.8,0.8c0.6,0.3,1.2,0.6,1.7,0.9c-0.6-0.2-1.2-0.5-1.8-0.8
		C78.8,43.6,78.2,43.3,77.6,42.9z"/>
	<path class="st1" d="M79.2,42.2c0.3,0.1,0.6,0.2,0.8,0.3c0.3,0.1,0.6,0.2,0.8,0.4c0.3,0.1,0.6,0.3,0.8,0.4c0.3,0.1,0.5,0.3,0.8,0.4
		c-0.3-0.1-0.6-0.2-0.8-0.3c-0.3-0.1-0.6-0.2-0.8-0.4c-0.3-0.1-0.6-0.3-0.8-0.4C79.7,42.5,79.4,42.3,79.2,42.2z"/>
	<path class="st1" d="M80.6,41.9c0.5,0.2,1.1,0.5,1.6,0.7c0.5,0.3,1.1,0.5,1.6,0.8c-0.5-0.2-1.1-0.5-1.6-0.7
		C81.6,42.4,81.1,42.1,80.6,41.9z"/>
	<path class="st1" d="M88.9,45c-0.1-0.4-0.3-0.8-0.6-1.1c-0.1-0.2-0.3-0.3-0.4-0.4c-0.2-0.1-0.4-0.2-0.6-0.2c-0.4,0-0.8,0.3-1,0.6
		c-0.3,0.3-0.4,0.7-0.5,1.1c-0.1,0.4-0.1,0.8-0.1,1.2c0,0.4,0.1,0.8,0.1,1.2c0.1,0.4,0.1,0.8,0.2,1.2l0.1,0.6c0,0.2,0.1,0.4,0.1,0.6
		c0.3,1.6,0.5,3.3,0.6,4.9c0,0.8,0,1.7-0.1,2.5c-0.1,0.8-0.3,1.6-0.6,2.4c0.3-0.8,0.4-1.6,0.5-2.4c0.1-0.8,0.1-1.7,0-2.5
		c-0.1-1.7-0.4-3.3-0.6-4.9c0-0.2-0.1-0.4-0.1-0.6l-0.1-0.6c-0.1-0.4-0.1-0.8-0.2-1.2c-0.1-0.4-0.1-0.8-0.1-1.2c0-0.4,0-0.8,0.1-1.3
		c0.1-0.4,0.3-0.8,0.5-1.1c0.1-0.2,0.3-0.3,0.5-0.4c0.2-0.1,0.4-0.2,0.6-0.2c0.2,0,0.4,0.1,0.6,0.2c0.2,0.1,0.3,0.3,0.4,0.4
		C88.7,44.2,88.8,44.6,88.9,45z"/>
	<path class="st1" d="M76.1,86.9c0.5-1.1,0.9-2.3,1.4-3.4c0.5-1.1,0.9-2.3,1.3-3.4c0.9-2.3,1.9-4.5,3-6.7c1.1-2.2,2.2-4.4,3.4-6.5
		c0.6-1.1,1.2-2.1,1.9-3.2c0.6-1,1.3-2.1,2-3.1c-0.7,1-1.3,2-2,3.1c-0.6,1.1-1.2,2.1-1.8,3.2c-1.2,2.1-2.3,4.3-3.4,6.5
		c-1.1,2.2-2.1,4.4-3,6.7c-0.5,1.1-0.9,2.3-1.4,3.4C77.1,84.6,76.6,85.7,76.1,86.9z"/>
	<path class="st1" d="M80.9,74.8c-0.1-0.8-0.1-1.6,0-2.3c0.1-0.8,0.3-1.5,0.7-2.2c0.3-0.7,0.8-1.4,1.3-1.9c0.3-0.3,0.6-0.5,0.9-0.8
		c0.3-0.2,0.6-0.4,1-0.6c-0.6,0.4-1.2,0.9-1.8,1.5c-0.5,0.6-0.9,1.2-1.3,1.9c-0.3,0.7-0.5,1.4-0.7,2.2c-0.1,0.4-0.1,0.8-0.1,1.1
		C80.9,74,80.9,74.4,80.9,74.8z"/>
	<path class="st1" d="M69,92.2c0.1,0.2,0.1,0.4,0.1,0.5c0,0.2-0.1,0.4-0.2,0.5c-0.2,0.3-0.4,0.6-0.8,0.9c-0.3,0.2-0.7,0.4-1.1,0.5
		c-0.2,0-0.4,0-0.6,0c-0.2,0-0.4-0.2-0.6-0.4c-0.1-0.2-0.2-0.4-0.1-0.7c0-0.2,0.1-0.4,0.2-0.6c0.2-0.3,0.5-0.6,0.9-0.8
		c0.3-0.2,0.7-0.3,1.1-0.4c0.2,0,0.4,0,0.6,0C68.7,91.9,68.9,92,69,92.2z M69,92.2c-0.1-0.2-0.3-0.3-0.5-0.3c-0.2,0-0.4,0-0.6,0
		c-0.4,0.1-0.7,0.3-1,0.5c-0.3,0.2-0.5,0.5-0.7,0.8c-0.2,0.3-0.2,0.7-0.1,0.9c0.2,0.2,0.5,0.3,0.9,0.3c0.4,0,0.7-0.2,1-0.4
		c0.3-0.2,0.6-0.4,0.8-0.8c0.1-0.2,0.2-0.3,0.2-0.5C69.1,92.6,69.1,92.4,69,92.2z"/>
	<path class="st1" d="M87.6,47.8c-0.2,0-0.4-0.1-0.5-0.2c-0.1-0.1-0.3-0.3-0.3-0.5c-0.2-0.3-0.3-0.7-0.3-1.1c0-0.4,0-0.8,0.2-1.1
		c0.1-0.2,0.2-0.4,0.3-0.5c0.1-0.1,0.3-0.2,0.6-0.2c0.2,0,0.4,0.1,0.6,0.2c0.2,0.1,0.3,0.3,0.3,0.5c0.2,0.4,0.2,0.7,0.2,1.1
		c0,0.4-0.1,0.8-0.3,1.1c-0.1,0.2-0.2,0.3-0.3,0.5C88,47.7,87.8,47.8,87.6,47.8z M87.6,47.8c0.2,0,0.4-0.1,0.5-0.2
		c0.1-0.1,0.2-0.3,0.3-0.5c0.2-0.3,0.2-0.7,0.2-1.1c0-0.4-0.1-0.7-0.3-1.1c-0.1-0.2-0.2-0.3-0.3-0.4c-0.1-0.1-0.3-0.2-0.5-0.2
		c-0.2,0-0.3,0.1-0.5,0.2c-0.1,0.1-0.2,0.3-0.3,0.4c-0.2,0.3-0.2,0.7-0.2,1.1c0,0.4,0.1,0.8,0.2,1.1c0.1,0.2,0.2,0.3,0.3,0.5
		C87.2,47.7,87.4,47.8,87.6,47.8z"/>
	<path class="st1" d="M69.2,65.2c-0.2,0.5-0.6,0.9-1,1.1c-0.5,0.2-1,0.2-1.5,0.1c-0.5-0.1-1-0.4-1.3-0.9c-0.2-0.2-0.3-0.5-0.3-0.8
		c0-0.3,0-0.6,0.1-0.9c0.1-0.3,0.3-0.5,0.5-0.7c0.2-0.2,0.5-0.3,0.7-0.4c0.5-0.2,1.1-0.1,1.6,0.1c0.5,0.2,0.9,0.6,1.2,1
		C69.3,64.2,69.3,64.7,69.2,65.2z M69.2,65.2c0.1-0.2,0.1-0.5,0.1-0.8c0-0.2-0.2-0.5-0.3-0.7c-0.3-0.4-0.7-0.7-1.2-0.8
		c-0.5-0.1-1-0.1-1.4,0.1c-0.4,0.2-0.8,0.5-0.9,0.9c-0.1,0.4-0.1,0.9,0.2,1.3c0.2,0.4,0.6,0.7,1.1,0.9c0.4,0.2,1,0.2,1.4,0.1
		c0.2-0.1,0.5-0.2,0.6-0.4C68.9,65.7,69.1,65.4,69.2,65.2z"/>
	<path class="st1" d="M60.9,118.9c0-0.8,0.1-1.6,0.2-2.3c0.2-0.8,0.4-1.5,0.7-2.2c0.3-0.7,0.7-1.4,1.1-2.1c0.1-0.2,0.2-0.3,0.4-0.5
		c0.1-0.2,0.2-0.3,0.4-0.5c0.2-0.3,0.4-0.7,0.6-1c0.8-1.4,1.5-2.7,2.3-4.1c0.7-1.4,1.5-2.7,2.3-4.1c0.8-1.4,1.6-2.7,2.5-4
		c0.2-0.3,0.5-0.6,0.7-1l0.7-1c0.5-0.6,0.9-1.3,1.3-1.9c1.8-2.6,3.5-5.2,5-7.9c0.4-0.7,0.7-1.4,1-2.1c0.3-0.7,0.6-1.4,0.8-2.2
		c0-0.2,0.1-0.4,0.1-0.6c0-0.2,0.1-0.4,0.1-0.6c0.1-0.4,0.2-0.8,0.3-1.1c0.2-0.8,0.5-1.5,0.8-2.2c1.1-2.9,2.5-5.8,4-8.5
		c0.4-0.7,0.7-1.4,1.1-2.1l0.6-1l0.3-0.5c0.1-0.2,0.2-0.3,0.3-0.5c0.8-1.3,1.7-2.6,2.5-3.9c0.8-1.3,1.7-2.6,2.5-4
		c0.4-0.7,0.8-1.3,1.2-2c0.2-0.3,0.4-0.7,0.6-1c0.2-0.3,0.4-0.7,0.5-1l0,0c0.7-2.2,1.5-4.4,2.3-6.6c0.8-2.2,1.6-4.3,2.5-6.5
		c0.9-2.2,1.8-4.3,2.8-6.4c0.5-1,1-2.1,1.6-3.1c0.3-0.5,0.6-1,0.9-1.5c0.2-0.2,0.4-0.5,0.6-0.7c0.2-0.2,0.4-0.4,0.7-0.5
		c-0.3,0.1-0.5,0.3-0.7,0.5c-0.2,0.2-0.4,0.4-0.5,0.7c-0.3,0.5-0.6,1-0.9,1.5c-0.6,1-1.1,2-1.6,3.1c-1,2.1-1.8,4.2-2.7,6.4
		c-0.8,2.2-1.6,4.3-2.4,6.5c-0.8,2.2-1.5,4.4-2.2,6.6l0,0l0,0c-0.2,0.4-0.4,0.7-0.5,1.1c-0.2,0.3-0.4,0.7-0.6,1
		c-0.4,0.7-0.8,1.3-1.2,2c-0.8,1.3-1.7,2.6-2.5,4c-0.8,1.3-1.7,2.6-2.5,3.9c-0.1,0.2-0.2,0.3-0.3,0.5L87.9,66l-0.6,1
		c-0.4,0.7-0.8,1.4-1.1,2.1c-0.7,1.4-1.4,2.8-2.1,4.2s-1.3,2.8-1.9,4.3c-0.3,0.7-0.5,1.5-0.8,2.2c-0.1,0.4-0.2,0.7-0.3,1.1
		c0,0.2-0.1,0.4-0.1,0.6c0,0.2-0.1,0.4-0.1,0.6c-0.2,0.8-0.5,1.5-0.8,2.2c-0.3,0.7-0.7,1.4-1.1,2.1c-0.7,1.4-1.6,2.7-2.4,4
		c-0.8,1.3-1.7,2.6-2.6,3.9c-0.4,0.6-0.9,1.3-1.4,1.9L72,97.2c-0.2,0.3-0.5,0.6-0.7,0.9c-0.9,1.3-1.7,2.6-2.5,4
		c-1.6,2.7-3,5.5-4.6,8.2c-0.2,0.3-0.4,0.7-0.6,1c-0.1,0.1-0.1,0.2-0.2,0.2l-0.2,0.2c-0.1,0.2-0.2,0.3-0.4,0.5
		c-0.5,0.6-0.8,1.3-1.1,2c-0.3,0.7-0.5,1.5-0.7,2.2C60.9,117.3,60.8,118.1,60.9,118.9z"/>
	<path class="st1" d="M70.9,102c-0.2,0.3-0.3,0.7-0.3,1.1c0,0.2,0.1,0.4,0.1,0.5c0.1,0.2,0.2,0.3,0.4,0.4c0.3,0.2,0.7,0.1,1-0.1
		c0.3-0.2,0.5-0.4,0.7-0.7c0.2-0.3,0.3-0.6,0.3-1c0-0.3-0.1-0.7-0.3-0.9c-0.1-0.1-0.3-0.2-0.5-0.2c-0.2,0-0.4,0-0.5,0.1
		C71.4,101.4,71.1,101.7,70.9,102z M70.9,102c0.2-0.3,0.5-0.6,0.8-0.8c0.2-0.1,0.4-0.2,0.6-0.2c0.2,0,0.4,0,0.6,0.1
		c0.2,0.1,0.4,0.3,0.5,0.5c0.1,0.2,0.1,0.4,0.2,0.6c0,0.4-0.1,0.9-0.3,1.2c-0.2,0.4-0.6,0.7-1,0.8c-0.2,0.1-0.4,0.1-0.6,0.1
		c-0.2,0-0.4-0.1-0.6-0.2c-0.2-0.1-0.3-0.3-0.4-0.5c-0.1-0.2-0.1-0.4-0.1-0.6C70.6,102.7,70.7,102.4,70.9,102z"/>
	<path class="st1" d="M74.6,96.9c-0.2,0.4-0.4,0.8-0.4,1.2c0,0.2,0.1,0.4,0.1,0.6c0.1,0.2,0.2,0.3,0.4,0.4c0.4,0.2,0.8,0.1,1.1-0.1
		c0.3-0.2,0.6-0.5,0.8-0.8c0.2-0.3,0.4-0.7,0.4-1.1c0-0.4-0.1-0.8-0.4-1c-0.2-0.1-0.4-0.2-0.6-0.2c-0.2,0-0.4,0-0.6,0.1
		C75.2,96.2,74.8,96.5,74.6,96.9z M74.6,96.9c0.2-0.4,0.5-0.7,0.9-0.9c0.2-0.1,0.4-0.2,0.6-0.2c0.2,0,0.5,0,0.7,0.1
		c0.2,0.1,0.4,0.3,0.5,0.5c0.1,0.2,0.2,0.5,0.2,0.7c0,0.5-0.1,1-0.4,1.4c-0.3,0.4-0.6,0.7-1.1,0.9c-0.2,0.1-0.5,0.2-0.7,0.2
		c-0.2,0-0.5-0.1-0.7-0.2c-0.2-0.1-0.3-0.4-0.4-0.6c-0.1-0.2-0.1-0.5-0.1-0.7C74.2,97.7,74.4,97.3,74.6,96.9z"/>
	<path class="st1" d="M85.3,90.4c-0.1,0.2-0.2,0.4-0.3,0.7c0,0.2,0.1,0.5,0.3,0.6c0.2,0.1,0.5,0.1,0.7-0.1c0.2-0.1,0.4-0.3,0.5-0.5
		c0.1-0.2,0.2-0.4,0.3-0.7c0-0.2,0-0.5-0.2-0.6c-0.2-0.1-0.5-0.1-0.7,0C85.6,90,85.4,90.2,85.3,90.4z M85.3,90.4
		c0.1-0.2,0.3-0.4,0.5-0.5c0.1-0.1,0.2-0.1,0.4-0.1c0.1,0,0.3,0,0.4,0.1c0.1,0.1,0.2,0.2,0.2,0.3c0,0.1,0.1,0.3,0,0.4
		c0,0.3-0.1,0.5-0.3,0.7c-0.1,0.2-0.3,0.4-0.6,0.5c-0.1,0.1-0.2,0.1-0.4,0.1c-0.1,0-0.3,0-0.4-0.1c-0.1-0.1-0.2-0.2-0.2-0.3
		c0-0.1,0-0.3,0-0.4C85,90.8,85.1,90.6,85.3,90.4z"/>
	<path class="st1" d="M80.6,87.8c-0.3,0.4-0.4,0.9-0.4,1.3c0,0.2,0.1,0.5,0.2,0.7c0.1,0.2,0.3,0.4,0.4,0.5c0.4,0.2,0.8,0.1,1.2-0.1
		c0.4-0.2,0.7-0.5,0.9-0.9c0.2-0.4,0.4-0.8,0.4-1.2c0-0.4-0.1-0.9-0.4-1.1c-0.2-0.1-0.4-0.2-0.6-0.2c-0.2,0-0.5,0-0.7,0.1
		C81.3,87.1,80.9,87.4,80.6,87.8z M80.6,87.8c0.3-0.4,0.6-0.8,1-1c0.2-0.1,0.4-0.2,0.7-0.2c0.2,0,0.5,0,0.7,0.1
		c0.2,0.1,0.4,0.3,0.5,0.6c0.1,0.2,0.2,0.5,0.2,0.8c0,0.5-0.2,1-0.4,1.5c-0.3,0.4-0.7,0.8-1.1,1c-0.2,0.1-0.5,0.2-0.8,0.2
		c-0.3,0-0.5-0.1-0.7-0.2c-0.2-0.2-0.4-0.4-0.5-0.6c-0.1-0.2-0.1-0.5-0.1-0.7C80.2,88.7,80.4,88.2,80.6,87.8z"/>
	<path class="st1" d="M98.2,50.9c-0.1,0.4-0.1,0.9,0,1.3c0.1,0.2,0.2,0.4,0.3,0.6c0.1,0.2,0.3,0.3,0.5,0.3c0.2,0,0.4,0,0.5-0.1
		c0.2-0.1,0.3-0.3,0.4-0.4c0.2-0.3,0.4-0.7,0.5-1.1c0.1-0.4,0.1-0.8,0.1-1.2c0-0.2-0.1-0.4-0.2-0.6c-0.1-0.2-0.2-0.3-0.4-0.4
		c-0.2-0.1-0.4,0-0.6,0.1c-0.2,0.1-0.4,0.2-0.5,0.4C98.5,50,98.3,50.5,98.2,50.9z M98.2,50.9c0.1-0.4,0.3-0.9,0.5-1.2
		c0.1-0.2,0.3-0.4,0.5-0.5c0.2-0.1,0.4-0.2,0.7-0.2c0.3,0,0.5,0.2,0.6,0.4c0.2,0.2,0.3,0.4,0.3,0.7c0.1,0.5,0.1,1,0,1.4
		c-0.1,0.5-0.3,0.9-0.6,1.3c-0.2,0.2-0.4,0.3-0.6,0.5c-0.1,0.1-0.2,0.1-0.4,0.1c-0.1,0-0.1,0-0.2,0c0,0-0.1,0-0.1,0c0,0-0.1,0-0.1,0
		c-0.3-0.1-0.4-0.3-0.6-0.5c-0.1-0.2-0.2-0.4-0.2-0.6C98,51.8,98.1,51.3,98.2,50.9z"/>
	<path class="st1" d="M99.9,45.4c-0.1,0.4-0.1,0.8,0,1.2c0.1,0.2,0.1,0.4,0.3,0.5c0.1,0.2,0.3,0.3,0.5,0.3c0.4,0,0.7-0.2,0.9-0.5
		c0.2-0.3,0.4-0.7,0.4-1c0.1-0.4,0.1-0.8,0.1-1.1c0-0.2-0.1-0.4-0.2-0.5c-0.1-0.2-0.2-0.3-0.4-0.3c-0.2-0.1-0.4,0-0.5,0.1
		c-0.2,0.1-0.3,0.2-0.5,0.4C100.2,44.6,100,45,99.9,45.4z M99.9,45.4c0.1-0.4,0.2-0.8,0.5-1.1c0.1-0.2,0.3-0.3,0.5-0.5
		c0.2-0.1,0.4-0.2,0.7-0.2c0.2,0,0.5,0.2,0.6,0.4c0.1,0.2,0.2,0.4,0.3,0.6c0.1,0.4,0.1,0.9,0,1.3c-0.1,0.4-0.3,0.9-0.6,1.2
		c-0.1,0.2-0.3,0.3-0.5,0.4c-0.1,0.1-0.2,0.1-0.3,0.1c-0.1,0-0.1,0-0.2,0c0,0-0.1,0-0.1,0c0,0-0.1,0-0.1,0c-0.2-0.1-0.4-0.2-0.5-0.4
		c-0.1-0.2-0.2-0.4-0.2-0.6C99.8,46.2,99.8,45.8,99.9,45.4z"/>
	<path class="st1" d="M63.8,111.6c0.4-0.4,0.9-0.8,1.5-1.2c0.5-0.4,1.1-0.7,1.6-1c0.6-0.3,1.2-0.5,1.8-0.6c0.3-0.1,0.6-0.1,0.9-0.2
		c0.3,0,0.6,0,0.9,0c-0.3,0-0.6,0-0.9,0.1c-0.3,0-0.6,0.1-0.9,0.2c-0.6,0.2-1.2,0.4-1.7,0.7c-0.6,0.3-1.1,0.6-1.6,0.9
		c-0.3,0.2-0.5,0.3-0.8,0.5C64.3,111.2,64.1,111.4,63.8,111.6z"/>
	<path class="st1" d="M104.9,31c-0.1,0.4-0.3,0.8-0.4,1.2c-0.1,0.4-0.2,0.8-0.3,1.2c-0.2,0.8-0.3,1.7-0.4,2.5
		c-0.1,0.9,0,1.7,0.1,2.5c0.1,0.8,0.4,1.7,0.9,2.4c-0.3-0.3-0.5-0.7-0.7-1.1c-0.2-0.4-0.3-0.8-0.4-1.2c-0.2-0.8-0.2-1.7-0.1-2.6
		c0.1-0.9,0.2-1.7,0.4-2.6C104.4,32.6,104.6,31.8,104.9,31z"/>
	<path class="st1" d="M108.3,26.9c-0.5,0.9-1,1.9-1.3,2.9c-0.4,1-0.6,2.1-0.7,3.1c0,0.5,0,1.1,0.1,1.6c0.1,0.5,0.4,1,0.7,1.4
		c0.3,0.4,0.8,0.7,1.3,1c0.5,0.3,0.9,0.5,1.4,0.7c1,0.4,2,0.7,3,1c1,0.3,2.1,0.6,3.1,0.8c2.1,0.5,4.2,0.9,6.3,1.4
		c0.5,0.1,1.1,0.2,1.6,0.4c0.5,0.2,1,0.3,1.6,0.4c1,0.3,2.1,0.5,3.1,0.7c1.1,0.2,2.1,0.4,3.2,0.6c0.5,0.1,1.1,0.2,1.6,0.2
		c0.5,0.1,1.1,0.1,1.6,0.1c0.1,0,0.3,0,0.4-0.1c0.1-0.1,0.2-0.2,0.3-0.3c0.2-0.2,0.3-0.4,0.5-0.6l0.9-1.3c0.6-0.9,1.2-1.8,2-2.5
		c0.4-0.4,0.8-0.7,1.3-1c0.2-0.1,0.5-0.2,0.8-0.2c0.3,0,0.5,0,0.8,0.1c0.5,0.2,0.9,0.6,1.3,1c0.3,0.4,0.6,0.9,0.8,1.4
		c-0.2-0.5-0.5-0.9-0.9-1.4c-0.3-0.4-0.8-0.8-1.3-0.9c-0.3-0.1-0.5-0.1-0.8-0.1c-0.3,0-0.5,0.1-0.8,0.2c-0.5,0.2-0.9,0.6-1.3,1
		c-0.8,0.8-1.4,1.6-2,2.5l-0.9,1.3c-0.2,0.2-0.3,0.4-0.5,0.7c-0.1,0.1-0.2,0.2-0.3,0.3c-0.1,0-0.1,0.1-0.2,0.1c-0.1,0-0.1,0-0.2,0
		c-0.5,0-1.1,0-1.6-0.1c-0.5-0.1-1.1-0.1-1.6-0.2c-1.1-0.2-2.1-0.4-3.2-0.6c-1.1-0.2-2.1-0.4-3.2-0.7c-0.5-0.1-1-0.3-1.6-0.4
		c-0.5-0.2-1-0.3-1.6-0.4c-2.1-0.5-4.2-0.9-6.3-1.4c-1-0.3-2.1-0.5-3.1-0.8c-1-0.3-2.1-0.6-3.1-1.1c-0.5-0.2-1-0.4-1.5-0.7
		c-0.5-0.3-0.9-0.6-1.3-1c-0.4-0.4-0.6-0.9-0.7-1.4c-0.1-0.5-0.2-1.1-0.1-1.6c0.1-1.1,0.4-2.1,0.7-3.1
		C107.2,28.9,107.7,27.9,108.3,26.9z"/>
	<path class="st1" d="M142,45.3c1.2-2.8,1.1-5.5-0.3-6.1c-1.4-0.6-3.5,1.2-4.7,4c-1.2,2.8-1.1,5.5,0.3,6.1
		C138.7,49.8,140.8,48.1,142,45.3z"/>
	<path class="st0" d="M140.2,44.2c-0.1,0-0.2,0-0.3,0.1c0,0,0,0-0.1,0c0.1-0.1,0.1-0.2,0.2-0.3c0,0,0.1-0.1,0.1-0.1
		c0.1-0.2,0-0.4-0.2-0.5c-0.2-0.1-0.4,0-0.5,0.2c0,0.1,0,0.2,0,0.2c0,0.1,0,0.2-0.1,0.4c0,0,0,0-0.1,0c0-0.1-0.1-0.3-0.1-0.3
		c-0.2-0.1-0.4,0.1-0.5,0.4c-0.1,0.3-0.1,0.5,0.1,0.6c0.1,0,0.2,0,0.3-0.1c0,0,0,0,0.1,0c-0.1,0.2-0.2,0.3-0.2,0.3
		c0,0-0.1,0.1-0.1,0.1c-0.1,0.2,0,0.4,0.2,0.5c0.2,0.1,0.4,0,0.5-0.2c0-0.1,0-0.1,0-0.2c0,0,0-0.1,0.1-0.4c0,0,0,0,0.1,0
		c0,0.1,0.1,0.3,0.1,0.3c0.2,0.1,0.4-0.1,0.5-0.4C140.4,44.5,140.4,44.3,140.2,44.2z"/>
	<path class="st1" d="M98.4,132c1.2-2.8,1-5.5-0.5-6.1c-1.5-0.5-3.7,1.4-4.9,4.2c-1.2,2.8-1,5.5,0.5,6.1
		C95,136.7,97.2,134.9,98.4,132z"/>
	<path class="st0" d="M96.7,131.1c-0.1,0-0.2,0-0.3,0.1c0,0,0,0-0.1,0c0.1-0.1,0.1-0.2,0.2-0.3c0,0,0.1-0.1,0.1-0.1
		c0.1-0.2-0.1-0.4-0.3-0.5c-0.2-0.1-0.5,0-0.6,0.2c0,0.1,0,0.2,0,0.2c0,0.1,0,0.2-0.1,0.4c0,0,0,0-0.1,0c0-0.1-0.1-0.2-0.2-0.3
		c-0.2-0.1-0.4,0.1-0.5,0.4c-0.1,0.3,0,0.5,0.1,0.6c0.1,0,0.2,0,0.3-0.1c0,0,0.1,0,0.1,0c-0.1,0.2-0.2,0.3-0.2,0.3
		c0,0-0.1,0.1-0.1,0.1c-0.1,0.2,0.1,0.4,0.3,0.5c0.2,0.1,0.5,0,0.6-0.2c0-0.1,0-0.1,0-0.2c0,0,0-0.1,0.1-0.4c0,0,0,0,0.1,0
		c0,0.1,0.1,0.3,0.2,0.3c0.2,0.1,0.4-0.1,0.5-0.4C96.9,131.5,96.9,131.2,96.7,131.1z"/>
	<path class="st1" d="M65.9,110.9c-0.7,0.8-1.3,1.7-1.7,2.6c-0.2,0.5-0.4,1-0.6,1.5c-0.1,0.5-0.2,1-0.2,1.6c0,0.5,0.1,1,0.4,1.5
		c0.2,0.5,0.6,0.9,1,1.2c0.8,0.7,1.7,1.2,2.6,1.7c1.9,1,3.8,1.8,5.8,2.5l1.5,0.5c0.5,0.2,1,0.4,1.5,0.6c0.9,0.5,1.9,0.9,2.9,1.3
		c1.9,0.8,3.9,1.6,5.9,2.2c1,0.3,2,0.6,3,0.8c0.5,0.1,1,0.2,1.6,0.3c0.5,0.1,1,0.1,1.6,0c0.3,0,0.5-0.1,0.7-0.2
		c0.1-0.1,0.2-0.1,0.3-0.2c0.1-0.1,0.1-0.2,0.2-0.3c0.3-0.4,0.6-0.9,0.9-1.3c0.6-0.8,1.3-1.7,2.2-2.3c0.4-0.3,0.9-0.6,1.4-0.7
		c0.3-0.1,0.5-0.1,0.8-0.1c0.3,0,0.5,0.1,0.8,0.2c0.5,0.3,0.8,0.7,1.1,1.1c0.3,0.4,0.5,0.9,0.7,1.4c-0.2-0.5-0.4-1-0.7-1.4
		c-0.3-0.4-0.6-0.8-1.1-1.1c-0.2-0.1-0.5-0.2-0.7-0.2c-0.3,0-0.5,0-0.8,0.1c-0.5,0.1-1,0.4-1.4,0.7c-0.8,0.6-1.5,1.5-2.1,2.3
		c-0.3,0.4-0.6,0.9-0.9,1.3c-0.1,0.1-0.1,0.2-0.2,0.3c-0.1,0.1-0.2,0.2-0.3,0.3c-0.2,0.1-0.5,0.2-0.8,0.2c-0.5,0.1-1.1,0-1.6,0
		c-0.5-0.1-1-0.2-1.6-0.3c-1-0.2-2.1-0.5-3.1-0.8c-2-0.6-4-1.4-5.9-2.2c-1-0.4-1.9-0.8-2.9-1.3c-0.5-0.2-1-0.4-1.5-0.6l-1.5-0.6
		c-2-0.7-3.9-1.5-5.8-2.5c-0.9-0.5-1.8-1.1-2.6-1.8c-0.2-0.2-0.4-0.4-0.6-0.6c-0.2-0.2-0.3-0.4-0.4-0.7c-0.2-0.5-0.4-1-0.4-1.5
		c0-0.5,0.1-1.1,0.2-1.6c0.2-0.5,0.4-1,0.6-1.5C64.7,112.6,65.3,111.7,65.9,110.9z"/>
	<path class="st1" d="M87.5,67.7c-0.4,0.9-0.9,1.8-1.3,2.8c-0.4,0.9-0.8,1.9-1.2,2.8c-0.8,1.9-1.5,3.8-2,5.7c-0.3,1-0.5,2-0.7,2.9
		c-0.1,0.5-0.1,1-0.1,1.5c0,0.5,0,1,0.2,1.5c0.1,0.2,0.2,0.5,0.3,0.7c0.1,0.2,0.3,0.4,0.5,0.5c0.4,0.2,0.9,0.5,1.4,0.7
		c0.5,0.2,0.9,0.4,1.4,0.5c0.2,0.1,0.5,0.1,0.7,0.2c0.1,0,0.3,0,0.4,0c0.1,0,0.3,0,0.4-0.1c-0.1,0.1-0.2,0.1-0.4,0.1
		c-0.1,0-0.3,0-0.4,0c-0.3,0-0.5-0.1-0.7-0.1c-0.5-0.1-1-0.3-1.4-0.5c-0.5-0.2-0.9-0.4-1.4-0.6c-0.2-0.1-0.4-0.3-0.6-0.5
		c-0.1-0.2-0.3-0.5-0.3-0.7c-0.1-0.5-0.2-1-0.2-1.5c0-0.5,0.1-1,0.1-1.5c0.2-1,0.4-2,0.7-3c0.6-1.9,1.3-3.9,2.1-5.7
		c0.4-0.9,0.8-1.9,1.2-2.8C86.6,69.5,87,68.6,87.5,67.7z"/>
	<path class="st1" d="M92.8,59.1c0.4-0.6,0.9-1.1,1.4-1.6c0.6-0.5,1.2-0.8,1.9-0.9c0.7-0.1,1.5,0,2.1,0.4c0.6,0.4,1.1,0.9,1.6,1.4
		c-0.2-0.3-0.5-0.5-0.8-0.7c-0.3-0.2-0.6-0.4-0.9-0.6c-0.3-0.2-0.6-0.3-1-0.3c-0.3-0.1-0.7-0.1-1,0c-0.7,0.1-1.3,0.5-1.9,0.9
		c-0.3,0.2-0.5,0.4-0.8,0.7C93.3,58.5,93,58.8,92.8,59.1z"/>
	<path class="st1" d="M86.6,87.7c-0.3,0.4-0.5,0.8-0.8,1.3c-0.3,0.4-0.6,0.8-0.8,1.2c-0.3,0.4-0.6,0.8-0.9,1.2L83.7,92
		c-0.1,0.2-0.3,0.4-0.4,0.6c0.2-0.4,0.5-0.9,0.8-1.3c0.3-0.4,0.6-0.8,0.8-1.2c0.3-0.4,0.6-0.8,0.9-1.2C86,88.5,86.3,88.1,86.6,87.7z
		"/>
	<path class="st1" d="M100.7,67.7c-0.1,0.1-0.2,0.1-0.4,0.1c-0.1,0-0.2-0.1-0.3-0.2c-0.2-0.2-0.3-0.4-0.5-0.6
		c-0.3-0.4-0.4-0.9-0.6-1.4c-0.3-1-0.6-2-0.7-3c-0.1-0.5-0.1-1-0.2-1.5c0-0.3,0-0.5,0-0.8c0-0.3,0-0.5,0.1-0.8
		c0.1-0.1,0.1-0.2,0.2-0.3c0.1-0.1,0.2-0.2,0.4-0.2c0.3,0,0.5,0.1,0.8,0.2c0.1,0.1,0.2,0.1,0.3,0.2c0.1,0.1,0.2,0.2,0.3,0.3
		c0.2,0.2,0.3,0.4,0.4,0.7c-0.1-0.2-0.2-0.5-0.4-0.6c-0.1-0.1-0.2-0.2-0.3-0.3c-0.1-0.1-0.2-0.1-0.3-0.2c-0.2-0.1-0.5-0.2-0.7-0.2
		c-0.2,0-0.4,0.2-0.5,0.5c-0.1,0.2-0.1,0.5-0.1,0.7c0,0.3,0,0.5,0,0.8c0,0.5,0.1,1,0.2,1.5c0.2,1,0.4,2,0.7,3c0.2,0.5,0.3,1,0.6,1.4
		c0.1,0.2,0.2,0.4,0.4,0.6c0.1,0.1,0.2,0.2,0.3,0.2C100.5,67.8,100.6,67.8,100.7,67.7z"/>
</g>
</svg>
