<?xml version="1.0" encoding="utf-8"?>
<!-- Svg Vector Icons : http://www.onlinewebfonts.com/icon -->
<!DOCTYPE svg PUBLIC "-//W3C//DTD SVG 1.1//EN" "http://www.w3.org/Graphics/SVG/1.1/DTD/svg11.dtd">
<svg version="1.1" xmlns="http://www.w3.org/2000/svg" xmlns:xlink="http://www.w3.org/1999/xlink" x="0px" y="0px" viewBox="0 0 1000 1000" enable-background="new 0 0 1000 1000" xml:space="preserve">
<metadata> Svg Vector Icons : http://www.onlinewebfonts.com/icon </metadata>
<g><g transform="translate(0.000000,511.000000) scale(0.100000,-0.100000)"><path d="M9300.8,4213.2C7921.2,3856.6,6445,3012,4892,1686.9C4181.2,1082.5,3054.2-98.9,2457.3-859.3c-190.7-242.7-190.7-242.7-277.4-222.9c-136.2,27.2-376.5,19.8-470.6-19.8c-354.2-141.2-547.4-485.5-475.6-842.1l32.2-148.6l-584.5-708.4c-611.8-748-634.1-785.1-539.9-896.6c24.8-27.3,136.2-123.8,250.2-213c205.6-165.9,279.9-190.7,361.6-131.3c22.3,17.3,312.1,359.1,641.5,760.4c577.1,700.9,604.4,730.7,703.4,748c289.8,49.5,547.4,302.1,592,587c14.9,94.1,24.8,104,118.9,126.3c423.5,109,757.9,282.3,1020.4,525.1c388.9,364.1,599.4,842.1,710.8,1609.9l52,364.1l61.9-17.3c34.7-9.9,237.8-17.3,448.3-17.3c284.8,0,426,12.4,544.9,44.6c463.2,123.8,800,396.3,998.1,809.9c128.8,267.5,180.8,458.2,213,790.1c14.9,126.3,29.7,235.3,34.7,240.3c5,7.4,69.3-2.5,143.6-19.8c208.1-49.5,817.4-39.6,1010.6,14.9c215.5,59.4,433.4,161,624.1,287.3c200.6,133.7,542.4,480.5,703.4,713.3c69.3,96.6,131.3,178.3,141.2,178.3c9.9,0,14.9-1196.3,12.4-2655.1l-5-2657.6l-71.8-12.4c-39.6-7.4-84.2-32.2-99.1-57c-22.3-37.2-17.3-54.5,32.2-94.1c32.2-24.8,79.2-47,104-47c44.6,0,47.1-24.8,47.1-381.4c0-210.5-9.9-411.1-24.8-445.8c-29.7-79.3-153.6-143.7-235.3-123.8c-104,24.8-161,123.8-161,272.4c0,104-9.9,136.2-47.1,158.5c-61.9,32.2-66.9,32.2-111.5-14.9c-59.4-57-49.5-250.1,17.3-381.4c146.1-292.3,532.5-304.6,696-24.8c47.1,76.8,52,136.2,59.4,510.2l9.9,426l69.3,14.9c128.8,24.8,118.9,188.3-12.4,188.3c-44.6,0-59.5,17.3-69.3,86.7c-7.4,47-14.9,1287.9-17.3,2756.7l-2.5,2670l76.8,54.5c101.5,76.8,106.5,222.9,9.9,299.7C9709.4,4312.3,9682.2,4309.8,9300.8,4213.2z M9295.8,3750.1c-24.8-42.1-123.8-173.4-222.9-294.7c-522.6-639-1136.8-881.7-1927-765.3c-156,24.8-183.3,34.7-156,59.4c111.5,109,1084.8,616.7,1493.5,782.7c156,61.9,817.3,292.3,849.5,294.7C9337.9,3826.8,9320.6,3792.2,9295.8,3750.1z M6675.3,2360.6c-42.1-450.8-188.2-849.5-401.3-1084.8c-151.1-168.4-322-277.4-569.7-364.1c-183.3-64.4-215.5-69.3-631.6-69.3c-240.2,0-445.8,7.4-455.7,19.8c-57,54.5,943.7,901.6,1709,1448.9c175.9,126.3,329.4,227.9,341.8,227.9C6682.8,2538.9,6685.3,2469.6,6675.3,2360.6z M4347.1,327.1c-153.6-1070-567.2-1632.2-1394.4-1899.7c-222.9-71.8-277.4-76.8-277.4-19.8c0,14.8-24.8,74.3-54.5,133.7l-52,106.5l109,143.7C3136-599.2,4362,735.8,4379.3,646.6C4384.3,624.3,4369.4,480.7,4347.1,327.1z M2125.4-1495.8c131.3-66.9,188.2-183.3,173.4-349.2c-12.4-113.9-27.2-146.1-104-215.5c-222.9-205.6-584.5-37.2-584.5,272.4c0,163.5,180.8,339.3,354.2,339.3C2001.6-1448.8,2075.9-1471.1,2125.4-1495.8z M1548.3-2439.5c14.9-24.8-894.1-1139.3-931.3-1139.3c-14.9,0-22.3,14.9-17.3,34.7c9.9,39.6,891.7,1126.9,916.4,1126.9C1526-2414.7,1538.4-2424.6,1548.3-2439.5z"/></g></g>
</svg>