<?xml version="1.0" standalone="no"?>
<!DOCTYPE svg PUBLIC "-//W3C//DTD SVG 20010904//EN"
 "http://www.w3.org/TR/2001/REC-SVG-20010904/DTD/svg10.dtd">
<svg version="1.0" xmlns="http://www.w3.org/2000/svg"
 width="438.000000pt" height="384.000000pt" viewBox="0 0 438.000000 384.000000"
 preserveAspectRatio="xMidYMid meet">
<metadata>
Created by potrace 1.15, written by Peter Selinger 2001-2017
</metadata>
<g transform="translate(0.000000,384.000000) scale(0.100000,-0.100000)"
fill="#000000" stroke="none">
<path d="M2005 3719 c-166 -24 -351 -107 -446 -201 -55 -54 -98 -122 -99 -155
0 -10 28 -13 105 -13 l105 0 34 38 c200 219 772 219 972 0 l34 -38 106 0 106
0 -6 28 c-11 44 -75 129 -130 173 -100 80 -267 147 -420 168 -89 13 -273 13
-361 0z"/>
<path d="M577 3477 c-22 -15 -29 -103 -9 -101 6 1 86 2 177 3 l165 1 0 38 c0
66 -15 72 -176 72 -97 0 -145 -4 -157 -13z"/>
<path d="M3487 3472 c-10 -10 -17 -35 -17 -55 l0 -37 165 -1 c91 -1 171 -2
178 -3 19 -2 12 86 -10 101 -12 9 -60 13 -158 13 -125 0 -144 -2 -158 -18z"/>
<path d="M132 3274 l-22 -15 0 -1459 0 -1459 22 -15 c20 -14 232 -16 2058 -16
1826 0 2038 2 2058 16 l22 15 0 1459 0 1459 -22 15 c-20 14 -232 16 -2058 16
-1826 0 -2038 -2 -2058 -16z m4000 -121 c17 -15 18 -70 18 -1351 0 -1229 -1
-1337 -17 -1354 -15 -17 -89 -18 -1941 -18 -1778 0 -1927 1 -1944 17 -17 15
-18 70 -18 1351 0 1229 1 1337 17 1354 15 17 89 18 1941 18 1778 0 1927 -1
1944 -17z"/>
<path d="M356 3028 c-14 -20 -16 -94 -16 -605 l0 -583 400 0 400 0 0 605 0
605 -384 0 -385 0 -15 -22z"/>
<path d="M1220 2785 l0 -265 465 0 465 0 0 265 0 265 -465 0 -465 0 0 -265z"/>
<path d="M2230 2791 l0 -258 38 -7 c20 -3 229 -6 465 -6 l427 0 0 265 0 265
-465 0 -465 0 0 -259z"/>
<path d="M3240 2445 l0 -604 113 -3 c61 -2 241 -2 400 0 l287 3 0 582 c0 511
-2 585 -16 605 l-15 22 -385 0 -384 0 0 -605z"/>
<path d="M1220 2145 l0 -305 465 0 465 0 0 305 0 305 -465 0 -465 0 0 -305z"/>
<path d="M2230 2145 l0 -305 465 0 465 0 0 305 0 305 -465 0 -465 0 0 -305z"/>
<path d="M342 1428 l3 -333 398 -2 397 -3 0 335 0 335 -400 0 -400 0 2 -332z"/>
<path d="M1220 1425 l0 -335 463 2 462 3 3 333 2 332 -465 0 -465 0 0 -335z"/>
<path d="M2230 1425 l0 -335 465 0 465 0 0 335 0 335 -465 0 -465 0 0 -335z"/>
<path d="M3240 1425 l0 -334 398 2 397 2 3 333 2 332 -400 0 -400 0 0 -335z"/>
<path d="M347 1013 c-4 -3 -7 -99 -7 -212 0 -171 3 -210 16 -229 l15 -22 890
0 889 0 0 235 0 235 -898 0 c-494 0 -902 -3 -905 -7z"/>
<path d="M2230 785 l0 -235 889 0 890 0 15 22 c13 19 16 59 16 235 l0 213
-905 0 -905 0 0 -235z"/>
<path d="M462 222 c-20 -3 -23 -8 -20 -45 2 -33 8 -44 28 -54 34 -17 488 -18
525 -1 27 12 39 41 33 78 -3 22 -3 22 -273 23 -148 1 -280 1 -293 -1z"/>
<path d="M3354 221 c-7 -7 -4 -65 4 -77 20 -30 55 -34 289 -34 276 0 286 3
291 68 3 35 0 42 -15 42 -10 0 -141 1 -291 3 -151 1 -276 0 -278 -2z"/>
</g>
</svg>
