<?xml version="1.0" standalone="no"?>
<!DOCTYPE svg PUBLIC "-//W3C//DTD SVG 20010904//EN"
 "http://www.w3.org/TR/2001/REC-SVG-20010904/DTD/svg10.dtd">
<svg version="1.0" xmlns="http://www.w3.org/2000/svg"
 width="1735.000000pt" height="1709.000000pt" viewBox="0 0 1735.000000 1709.000000"
 preserveAspectRatio="xMidYMid meet">
<metadata>
Created by potrace 1.15, written by Peter Selinger 2001-2017
</metadata>
<g transform="translate(0.000000,1709.000000) scale(0.100000,-0.100000)"
fill="#000000" stroke="none">
<path d="M8255 16083 c-514 -22 -1067 -171 -1557 -420 -406 -205 -679 -428
-895 -728 -84 -117 -162 -274 -170 -342 -6 -51 -5 -53 23 -63 46 -18 267 -29
570 -30 l280 0 124 131 c190 201 358 321 611 436 401 181 892 275 1434 275
542 0 1033 -94 1434 -275 253 -115 421 -235 611 -436 l124 -131 443 0 c348 0
443 3 443 13 -1 38 -44 176 -76 239 -78 156 -237 362 -392 509 -314 299 -878
573 -1473 717 -353 86 -642 113 -1164 110 -165 -1 -331 -3 -370 -5z"/>
<path d="M2249 15090 c-165 -8 -260 -23 -296 -46 -51 -32 -87 -152 -88 -289 0
-70 4 -97 17 -117 l18 -27 167 5 c93 2 419 7 727 10 l559 6 -5 143 c-4 125 -8
149 -29 191 -43 86 -114 110 -369 124 -196 11 -467 11 -701 0z"/>
<path d="M14325 15090 c-160 -9 -205 -22 -250 -71 -47 -52 -66 -122 -72 -265
l-6 -122 559 -6 c308 -3 637 -8 731 -11 207 -5 198 -12 198 135 -1 142 -36
261 -88 294 -12 8 -47 19 -77 25 -123 26 -688 38 -995 21z"/>
<path d="M1355 14250 c-725 -8 -975 -14 -1140 -31 -89 -9 -106 -14 -157 -47
l-58 -37 0 -6085 0 -6085 58 -37 c133 -85 -120 -83 8617 -83 8737 0 8484 -2
8617 83 l58 37 0 6085 0 6085 -58 37 c-51 33 -68 38 -157 47 -283 31 -878 34
-7955 36 -3924 1 -7445 -1 -7825 -5z m14295 -510 c722 -9 1011 -21 1078 -43
23 -7 42 -22 50 -39 52 -110 56 -455 56 -5578 0 -5125 -4 -5529 -57 -5639 -17
-36 -62 -48 -229 -61 -318 -24 -1823 -30 -7828 -30 -7065 0 -7955 6 -8098 53
-23 7 -42 22 -50 39 -52 110 -56 455 -56 5573 0 4584 4 5266 34 5529 13 112
25 138 72 153 68 22 339 35 908 42 851 11 13293 12 14120 1z"/>
<path d="M1055 13213 c-41 -56 -53 -95 -66 -212 -19 -178 -28 -1114 -29 -2923
l0 -1868 1670 0 1670 0 0 2525 0 2525 -1605 0 -1605 0 -35 -47z"/>
<path d="M4630 12155 l0 -1105 1940 0 1940 0 0 1105 0 1105 -1940 0 -1940 0 0
-1105z"/>
<path d="M8840 12181 c0 -1020 1 -1080 18 -1085 131 -38 462 -45 2290 -45
l1572 -1 0 1105 0 1105 -1940 0 -1940 0 0 -1079z"/>
<path d="M13040 10741 l0 -2520 48 -8 c59 -10 3094 -9 3216 2 l88 7 -5 2236
c-3 1366 -9 2301 -16 2402 -14 224 -25 278 -70 342 l-37 53 -1612 3 -1612 2 0
-2519z"/>
<path d="M4630 9485 l0 -1275 1940 0 1940 0 0 1275 0 1275 -1940 0 -1940 0 0
-1275z"/>
<path d="M8840 9485 l0 -1275 1940 0 1940 0 0 1275 0 1275 -1940 0 -1940 0 0
-1275z"/>
<path d="M964 7328 c3 -310 9 -935 12 -1389 l6 -827 502 -6 c275 -3 1022 -9
1659 -12 l1157 -6 0 1401 0 1401 -1671 0 -1671 0 6 -562z"/>
<path d="M4630 6488 l0 -1401 1618 6 c889 4 1757 10 1928 14 l311 6 6 221 c4
122 10 746 14 1389 l6 1167 -1941 0 -1942 0 0 -1402z"/>
<path d="M8840 6490 l0 -1400 1940 0 1940 0 0 1400 0 1400 -1940 0 -1940 0 0
-1400z"/>
<path d="M13040 6490 l0 -1401 1163 6 c639 3 1388 8 1663 11 l502 6 6 827 c3
454 9 1079 12 1389 l6 562 -1676 0 -1676 0 0 -1400z"/>
<path d="M1457 4790 c-362 -6 -461 -10 -467 -20 -17 -28 -25 -310 -25 -920 1
-780 7 -849 90 -962 l35 -48 3710 0 3710 0 0 980 0 980 -3297 -2 c-1814 -1
-3504 -4 -3756 -8z"/>
<path d="M8840 3820 l0 -980 3710 0 3710 0 35 47 c82 113 85 154 92 1111 l5
802 -3776 0 -3776 0 0 -980z"/>
<path d="M1525 1480 c-49 -3 -98 -10 -107 -14 -29 -13 -41 -70 -33 -164 3 -48
11 -105 17 -127 13 -51 72 -110 123 -124 142 -38 950 -60 1543 -43 576 17 632
25 705 100 49 50 67 106 67 211 0 105 -11 125 -77 141 -83 20 -1993 37 -2238
20z"/>
<path d="M13715 1481 l-200 -6 -8 -50 c-11 -62 7 -234 28 -276 40 -76 132
-109 365 -130 189 -18 1526 -18 1702 -1 214 21 297 53 333 128 26 56 43 250
24 289 l-14 30 -290 6 c-456 10 -1719 16 -1940 10z"/>
</g>
</svg>
